<?xml version="1.0" standalone="no"?>
 <!DOCTYPE svg PUBLIC "-//W3C//DTD SVG 1.1//EN" 
 "http://www.w3.org/Graphics/SVG/1.1/DTD/svg11.dtd"> 
<svg xmlns="http://www.w3.org/2000/svg" version="1.1" 
    width="21.0007cm" height="29.7002cm" viewBox="0 0 82680 116930 ">
<title>SVG Picture created as SMD_pen-F.SilkS.svg date 2016/06/18 16:16:02 </title>
  <desc>Picture generated by PCBNEW </desc>
<g style="fill:#000000; fill-opacity:1;stroke:#000000; stroke-opacity:1;
stroke-linecap:round; stroke-linejoin:round; "
 transform="translate(0 0) scale(1 1)">
</g>
<g style="fill:#000000; fill-opacity:0.0; 
stroke:#000000; stroke-width:-0.000393701; stroke-opacity:1; 
stroke-linecap:round; stroke-linejoin:round;">
</g>
<g style="fill:#000000; fill-opacity:0.0; 
stroke:#000000; stroke-width:118.11; stroke-opacity:1; 
stroke-linecap:round; stroke-linejoin:round;">
<path d="M25649 16127
L26212 16521
" />
<path d="M25649 16802
L26830 16802
L26830 16352
L26774 16240
L26718 16183
L26605 16127
L26437 16127
L26324 16183
L26268 16240
L26212 16352
L26212 16802
" />
<path d="M26268 15621
L26268 15227
" />
<path d="M25649 15059
L25649 15621
L26830 15621
L26830 15059
" />
<path d="M25649 13990
L25649 14552
L26830 14552
" />
<path d="M25987 13652
L25987 13090
" />
<path d="M25649 13765
L26830 13371
L25649 12978
" />
<path d="M26212 12359
L25649 12359
" />
<path d="M26830 12753
L26212 12359
L26830 11965
" />
<path d="M25762 11571
L25705 11515
L25649 11571
L25705 11628
L25762 11571
L25649 11571
" />
<path d="M26268 10615
L26268 11009
" />
<path d="M25649 11009
L26830 11009
L26830 10447
" />
<path d="M49046 13793
L49440 13793
" />
<path d="M49440 14412
L49440 13231
L48877 13231
" />
<path d="M19528 33253
L19903 33516
" />
<path d="M19528 33703
L20315 33703
L20315 33403
L20278 33328
L20240 33291
L20165 33253
L20053 33253
L19978 33291
L19940 33328
L19903 33403
L19903 33703
" />
<path d="M19940 32916
L19940 32653
" />
<path d="M19528 32541
L19528 32916
L20315 32916
L20315 32541
" />
<path d="M19528 32203
L20315 32203
L20315 32016
L20278 31903
L20203 31828
L20128 31791
L19978 31753
L19865 31753
L19715 31791
L19641 31828
L19566 31903
L19528 32016
L19528 32203
" />
<path d="M19603 31416
L19566 31378
L19528 31416
L19566 31453
L19603 31416
L19528 31416
" />
<path d="M20315 31153
L19528 30891
L20315 30628
" />
<path d="M20315 30216
L20315 30066
L20278 29991
L20203 29916
L20053 29879
L19790 29879
L19641 29916
L19566 29991
L19528 30066
L19528 30216
L19566 30291
L19641 30366
L19790 30404
L20053 30404
L20203 30366
L20278 30291
L20315 30216
" />
<path d="M19528 29166
L19528 29541
L20315 29541
" />
<path d="M20315 29016
L20315 28566
" />
<path d="M19528 28791
L20315 28791
" />
<path d="M19603 28304
L19566 28266
L19528 28304
L19566 28341
L19603 28304
L19528 28304
" />
<path d="M17185 32803
L17185 33066
" />
<path d="M16772 33066
L17560 33066
L17560 32691
" />
<path d="M17560 32241
L17560 32091
L17522 32016
L17447 31941
L17297 31903
L17035 31903
L16885 31941
L16810 32016
L16772 32091
L16772 32241
L16810 32316
L16885 32391
L17035 32428
L17297 32428
L17447 32391
L17522 32316
L17560 32241
" />
<path d="M17560 31416
L17560 31266
L17522 31191
L17447 31116
L17297 31078
L17035 31078
L16885 31116
L16810 31191
L16772 31266
L16772 31416
L16810 31491
L16885 31566
L17035 31603
L17297 31603
L17447 31566
L17522 31491
L17560 31416
" />
<path d="M17560 30853
L17560 30404
" />
<path d="M16772 30628
L17560 30628
" />
<path d="M14213 33609
L15000 33609
L15000 33309
L14963 33234
L14925 33197
L14850 33159
L14738 33159
L14663 33197
L14626 33234
L14588 33309
L14588 33609
" />
<path d="M15000 32672
L15000 32522
L14963 32447
L14888 32372
L14738 32335
L14476 32335
L14326 32372
L14251 32447
L14213 32522
L14213 32672
L14251 32747
L14326 32822
L14476 32859
L14738 32859
L14888 32822
L14963 32747
L15000 32672
" />
<path d="M15000 32072
L14213 31885
L14775 31735
L14213 31585
L15000 31397
" />
<path d="M14626 31097
L14626 30835
" />
<path d="M14213 30722
L14213 31097
L15000 31097
L15000 30722
" />
<path d="M14213 29935
L14588 30197
" />
<path d="M14213 30385
L15000 30385
L15000 30085
L14963 30010
L14925 29972
L14850 29935
L14738 29935
L14663 29972
L14626 30010
L14588 30085
L14588 30385
" />
<path d="M50396 21283
L50284 21320
L50096 21320
L50021 21283
L49984 21245
L49946 21170
L49946 21095
L49984 21020
L50021 20983
L50096 20945
L50246 20908
L50321 20870
L50359 20833
L50396 20758
L50396 20683
L50359 20608
L50321 20570
L50246 20533
L50059 20533
L49946 20570
" />
<path d="M49684 20533
L49496 21320
L49346 20758
L49196 21320
L49009 20533
" />
<path d="M48709 21320
L48709 20533
" />
<path d="M48446 20533
L47996 20533
" />
<path d="M48221 21320
L48221 20533
" />
<path d="M47284 21245
L47321 21283
L47434 21320
L47509 21320
L47621 21283
L47696 21208
L47734 21133
L47771 20983
L47771 20870
L47734 20720
L47696 20645
L47621 20570
L47509 20533
L47434 20533
L47321 20570
L47284 20608
" />
<path d="M46946 21320
L46946 20533
" />
<path d="M46946 20908
L46497 20908
" />
<path d="M46497 21320
L46497 20533
" />
<path d="M39222 19549
L39222 18761
L38922 18761
L38847 18799
L38810 18836
L38772 18911
L38772 19024
L38810 19099
L38847 19136
L38922 19174
L39222 19174
" />
<path d="M38285 18761
L38135 18761
L38060 18799
L37985 18874
L37948 19024
L37948 19286
L37985 19436
L38060 19511
L38135 19549
L38285 19549
L38360 19511
L38435 19436
L38473 19286
L38473 19024
L38435 18874
L38360 18799
L38285 18761
" />
<path d="M37685 18761
L37498 19549
L37348 18986
L37198 19549
L37010 18761
" />
<path d="M36710 19136
L36448 19136
" />
<path d="M36335 19549
L36710 19549
L36710 18761
L36335 18761
" />
<path d="M35548 19549
L35810 19174
" />
<path d="M35998 19549
L35998 18761
L35698 18761
L35623 18799
L35585 18836
L35548 18911
L35548 19024
L35585 19099
L35623 19136
L35698 19174
L35998 19174
" />
</g>
<g style="fill:#000000; fill-opacity:0.0; 
stroke:#000000; stroke-width:59.0551; stroke-opacity:1; 
stroke-linecap:round; stroke-linejoin:round;">
<path d="M37916 23090
L37916 19547
" />
<path d="M37916 19547
L39491 19547
" />
<path d="M39491 19547
L39491 23090
" />
<path d="M47758 27814
L50120 27814
" />
<path d="M50120 27814
L50120 29389
" />
<path d="M50120 29389
L47758 29389
" />
<path d="M47758 28602
L47758 23090
" />
<path d="M47758 23090
L36735 23090
" />
<path d="M36735 23090
L36735 23877
" />
<path d="M36735 23877
L24924 23877
" />
<path d="M24924 23877
L24924 33326
" />
<path d="M24924 33326
L36341 33326
" />
<path d="M36341 33326
L36735 33326
" />
<path d="M36735 33326
L36735 34114
" />
<path d="M36735 34114
L47758 34114
" />
<path d="M47758 34114
L47758 28602
" />
<path d="M47719 12145
L47719 7421
" />
<path d="M47719 7421
L27640 7421
" />
<path d="M27640 7421
L27640 16870
" />
<path d="M27640 16870
L47719 16870
" />
<path d="M47719 16870
L47719 12145
" />
<path d="M44628 21311
L46203 21311
" />
<path d="M46203 21311
L46203 17374
" />
<path d="M46203 17374
L43054 17374
" />
<path d="M43054 17374
L43054 21311
" />
<path d="M43054 21311
L44628 21311
" />
<path d="M23892 11409
L22632 11409
" />
<path d="M22632 11409
L22632 6842
" />
<path d="M22632 6842
L23892 6842
" />
<path d="M23892 6842
L23892 11409
" />
<path d="M23183 9913
L23183 8338
" />
<path d="M23341 9913
L23341 8338
" />
<path d="M23262 9913
L23262 8338
" />
<path d="M24258 8972
L24258 9972
" />
<path d="M24148 7862
L24148 8472
" />
<path d="M24258 8972
L25258 8972
" />
<path d="M25368 8472
L25368 7862
" />
<path d="M25368 7862
L24148 7862
" />
<path d="M25258 8972
L25258 9972
" />
<path d="M25258 9972
L24258 9972
" />
<path d="M34648 19704
L34648 17342
" />
<path d="M34648 17342
L23231 17342
" />
<path d="M23231 17342
L23231 22066
" />
<path d="M23231 22066
L34648 22066
" />
<path d="M34648 22066
L34648 19704
" />
<path d="M47983 8724
L50345 8724
" />
<path d="M50345 8724
L50345 18960
" />
<path d="M50345 18960
L47983 18960
" />
<path d="M47983 18960
L47983 8724
" />
<path d="M41057 21311
L42632 21311
" />
<path d="M42632 21311
L42632 17374
" />
<path d="M42632 17374
L39483 17374
" />
<path d="M39483 17374
L39483 21311
" />
<path d="M39483 21311
L41057 21311
" />
<path d="M25792 8984
L25792 9984
" />
<path d="M25681 7874
L25681 8484
" />
<path d="M25792 8984
L26792 8984
" />
<path d="M26902 8484
L26902 7874
" />
<path d="M26902 7874
L25681 7874
" />
<path d="M26792 8984
L26792 9984
" />
<path d="M26792 9984
L25792 9984
" />
<path d="M18203 32488
L18203 30488
" />
<path d="M18203 30488
L19203 30488
" />
<path d="M19203 30488
L19203 32488
" />
<path d="M19313 33598
L19313 32988
" />
<path d="M19203 32488
L18203 32488
" />
<path d="M18093 32988
L18093 33598
" />
<path d="M18093 33598
L19313 33598
" />
<path d="M15447 32488
L15447 30488
" />
<path d="M15447 30488
L16447 30488
" />
<path d="M16447 30488
L16447 32488
" />
<path d="M16557 33598
L16557 32988
" />
<path d="M16447 32488
L15447 32488
" />
<path d="M15337 32988
L15337 33598
" />
<path d="M15337 33598
L16557 33598
" />
<path d="M12691 32488
L12691 30488
" />
<path d="M12691 30488
L13691 30488
" />
<path d="M13691 30488
L13691 32488
" />
<path d="M13802 33598
L13802 32988
" />
<path d="M13691 32488
L12691 32488
" />
<path d="M12581 32988
L12581 33598
" />
<path d="M12581 33598
L13802 33598
" />
<circle cx="18998.9" cy="20078.7" r="278.389" /> 
<circle cx="17620.9" cy="20078.7" r="278.389" /> 
<path d="M21361.1 13385.8 A393.701 393.701 0.0 0 0 20967.4 12992.1 " />
<path d="M15849.3 12992.1 A393.701 393.701 0.0 0 0 15455.6 13385.8 " />
<path d="M17227 20866
L17227 21259
" />
<path d="M17227 21259
L19392 21259
" />
<path d="M19392 21259
L19589 21259
" />
<path d="M19589 21259
L19589 20866
" />
<path d="M17817 20866
L17817 24015
" />
<path d="M17817 24015
L18998 24015
" />
<path d="M18998 24015
L18998 20866
" />
<path d="M17817 12992
L17817 10236
" />
<path d="M17817 10236
L18998 10236
" />
<path d="M18998 10236
L18998 12992
" />
<path d="M18408 12992
L15455 12992
" />
<path d="M15455 12992
L15455 20866
" />
<path d="M15455 20866
L21361 20866
" />
<path d="M21361 20866
L21361 12992
" />
<path d="M21361 12992
L18408 12992
" />
<circle cx="11912.3" cy="20078.7" r="278.389" /> 
<circle cx="10534.3" cy="20078.7" r="278.389" /> 
<path d="M14274.5 13385.8 A393.701 393.701 0.0 0 0 13880.8 12992.1 " />
<path d="M8762.68 12992.1 A393.701 393.701 0.0 0 0 8368.98 13385.8 " />
<path d="M10140 20866
L10140 21259
" />
<path d="M10140 21259
L12305 21259
" />
<path d="M12305 21259
L12502 21259
" />
<path d="M12502 21259
L12502 20866
" />
<path d="M10731 20866
L10731 24015
" />
<path d="M10731 24015
L11912 24015
" />
<path d="M11912 24015
L11912 20866
" />
<path d="M10731 12992
L10731 10236
" />
<path d="M10731 10236
L11912 10236
" />
<path d="M11912 10236
L11912 12992
" />
<path d="M11321 12992
L8368 12992
" />
<path d="M8368 12992
L8368 20866
" />
<path d="M8368 20866
L14274 20866
" />
<path d="M14274 20866
L14274 12992
" />
<path d="M14274 12992
L11321 12992
" />
</g>
<g style="fill:#000000; fill-opacity:0.0; 
stroke:#000000; stroke-width:39.3701; stroke-opacity:1; 
stroke-linecap:round; stroke-linejoin:round;">
<circle cx="22955.6" cy="24665.4" r="570.866" /> 
<circle cx="22955.6" cy="32539.4" r="570.866" /> 
<circle cx="35750.9" cy="23090.6" r="964.567" /> 
<circle cx="35750.9" cy="34114.2" r="964.567" /> 
<circle cx="46932" cy="11161.4" r="570.866" /> 
<circle cx="46932" cy="13129.9" r="570.866" /> 
<circle cx="28428" cy="10720.5" r="570.866" /> 
<circle cx="28428" cy="13570.9" r="570.866" /> 
<circle cx="46538.3" cy="8700.79" r="570.866" /> 
<circle cx="46538.3" cy="15590.6" r="570.866" /> 
<circle cx="28821.7" cy="8700.79" r="570.866" /> 
<circle cx="28821.7" cy="15590.6" r="570.866" /> 
<circle cx="44628.8" cy="20326.8" r="570.866" /> 
<circle cx="44628.8" cy="18358.3" r="570.866" /> 
<circle cx="23262.7" cy="10700.8" r="570.866" /> 
<circle cx="23262.7" cy="7551.18" r="570.866" /> 
<polyline fill="none;"
points="25139,8852
25139,8092
24378,8092
24378,8852
25139,8852
" /> 
<path d="M25139 9472
L25139 9472
" />
<path d="M24378 9472
L24378 9472
" />
<path d="M24378.4 9472.44 A380.315 380.315 0.0 0 0 25139.1 9472.44 " />
<path d="M25139.1 9472.44 A380.315 380.315 0.0 0 0 24378.4 9472.44 " />
<polyline fill="none;"
points="34333,18602
34333,17657
33388,17657
33388,18602
34333,18602
" /> 
<circle cx="24018.6" cy="18129.9" r="472.441" /> 
<circle cx="25987.1" cy="18129.9" r="472.441" /> 
<circle cx="27955.6" cy="18129.9" r="472.441" /> 
<circle cx="24018.6" cy="21279.5" r="472.441" /> 
<circle cx="25987.1" cy="21279.5" r="472.441" /> 
<circle cx="27955.6" cy="21279.5" r="472.441" /> 
<circle cx="33861.1" cy="21279.5" r="472.441" /> 
<circle cx="49164.3" cy="9905.51" r="767.717" /> 
<circle cx="49164.3" cy="11874" r="767.717" /> 
<circle cx="49164.3" cy="15811" r="767.717" /> 
<circle cx="49164.3" cy="17779.5" r="767.717" /> 
<circle cx="10514.6" cy="8681.1" r="767.717" /> 
<circle cx="46577.6" cy="8681.1" r="767.717" /> 
<circle cx="10514.6" cy="31673.2" r="767.717" /> 
<circle cx="46577.6" cy="31673.2" r="767.717" /> 
<circle cx="41058" cy="20326.8" r="570.866" /> 
<circle cx="41058" cy="18358.3" r="570.866" /> 
<polyline fill="none;"
points="26672,8864
26672,8103
25911,8103
25911,8864
26672,8864
" /> 
<path d="M26672 9484
L26672 9484
" />
<path d="M25911 9484
L25911 9484
" />
<path d="M25911.9 9484.25 A380.315 380.315 0.0 0 0 26672.5 9484.25 " />
<path d="M26672.5 9484.25 A380.315 380.315 0.0 0 0 25911.9 9484.25 " />
<polyline fill="none;"
points="18323,32667
18323,33308
19083,33308
19083,32667
18323,32667
" /> 
<path d="M18643 31667
L18763 31667
" />
<path d="M18643 32308
L18763 32308
" />
<path d="M18763.6 32308.5 A320.315 320.315 0.0 0 0 18763.6 31667.9 " />
<path d="M18643.6 31667.9 A320.315 320.315 0.0 0 0 18643.6 32308.5 " />
<path d="M18643 30667
L18763 30667
" />
<path d="M18643 31308
L18763 31308
" />
<path d="M18763.6 31308.5 A320.315 320.315 0.0 0 0 18763.6 30667.9 " />
<path d="M18643.6 30667.9 A320.315 320.315 0.0 0 0 18643.6 31308.5 " />
<polyline fill="none;"
points="15567,32667
15567,33308
16328,33308
16328,32667
15567,32667
" /> 
<path d="M15887 31667
L16007 31667
" />
<path d="M15887 32308
L16007 32308
" />
<path d="M16007.7 32308.5 A320.315 320.315 0.0 0 0 16007.7 31667.9 " />
<path d="M15887.7 31667.9 A320.315 320.315 0.0 0 0 15887.7 32308.5 " />
<path d="M15887 30667
L16007 30667
" />
<path d="M15887 31308
L16007 31308
" />
<path d="M16007.7 31308.5 A320.315 320.315 0.0 0 0 16007.7 30667.9 " />
<path d="M15887.7 30667.9 A320.315 320.315 0.0 0 0 15887.7 31308.5 " />
<polyline fill="none;"
points="12811,32667
12811,33308
13572,33308
13572,32667
12811,32667
" /> 
<path d="M13131 31667
L13251 31667
" />
<path d="M13131 32308
L13251 32308
" />
<path d="M13251.8 32308.5 A320.315 320.315 0.0 0 0 13251.8 31667.9 " />
<path d="M13131.8 31667.9 A320.315 320.315 0.0 0 0 13131.8 32308.5 " />
<path d="M13131 30667
L13251 30667
" />
<path d="M13131 31308
L13251 31308
" />
<path d="M13251.8 31308.5 A320.315 320.315 0.0 0 0 13251.8 30667.9 " />
<path d="M13131.8 30667.9 A320.315 320.315 0.0 0 0 13131.8 31308.5 " />
<circle cx="15258.7" cy="21850.4" r="570.866" /> 
<circle cx="15258.7" cy="23622" r="570.866" /> 
<circle cx="14865" cy="16929.1" r="964.567" /> 
<circle cx="21951.7" cy="16929.1" r="964.567" /> 
<circle cx="8172.13" cy="21850.4" r="570.866" /> 
<circle cx="8172.13" cy="23622" r="570.866" /> 
<circle cx="7778.43" cy="16929.1" r="964.567" /> 
<circle cx="14865" cy="16929.1" r="964.567" /> 
<polyline fill="none;"
points="16912,28720
16912,25610
13802,25610
13802,28720
16912,28720
" /> 
<polyline fill="none;"
points="10613,28720
10613,25610
7502,25610
7502,28720
10613,28720
" /> 
<circle cx="49412.3" cy="22736.2" r="767.717" /> 
<polyline fill="none;"
points="19963,9035
19963,5925
16853,5925
16853,9035
19963,9035
" /> 
</g>
<g style="fill:#000000; fill-opacity:0.0; 
stroke:#000000; stroke-width:118.11; stroke-opacity:1; 
stroke-linecap:round; stroke-linejoin:round;">
<path d="M37179 29176
L37179 27994
L36785 28838
L36392 27994
L36392 29176
" />
<path d="M35210 29176
L35885 29176
" />
<path d="M35548 29176
L35548 27994
L35660 28163
L35773 28276
L35885 28332
" />
<path d="M42147 11637
L42147 12912
L42072 13062
L41997 13137
L41847 13212
L41547 13212
L41397 13137
L41322 13062
L41247 12912
L41247 11637
" />
<path d="M40572 11787
L40497 11712
L40347 11637
L39972 11637
L39822 11712
L39747 11787
L39672 11937
L39672 12087
L39747 12312
L40647 13212
L39672 13212
" />
<path d="M49271 20317
L49271 19136
L48821 19136
L48709 19192
L48653 19249
L48596 19361
L48596 19530
L48653 19642
L48709 19699
L48821 19755
L49271 19755
" />
<path d="M47471 20317
L48146 20317
" />
<path d="M47809 20317
L47809 19136
L47921 19305
L48034 19417
L48146 19474
" />
<path d="M46740 19136
L46628 19136
L46515 19192
L46459 19249
L46403 19361
L46347 19586
L46347 19867
L46403 20092
L46459 20205
L46515 20261
L46628 20317
L46740 20317
L46853 20261
L46909 20205
L46965 20092
L47021 19867
L47021 19586
L46965 19361
L46909 19249
L46853 19192
L46740 19136
" />
<path d="M21853 8506
L21853 9350
L21909 9519
L22021 9631
L22190 9687
L22303 9687
" />
<path d="M21290 9687
L21290 8506
L20840 8506
L20728 8562
L20672 8619
L20615 8731
L20615 8900
L20672 9012
L20728 9069
L20840 9125
L21290 9125
" />
<path d="M19491 9687
L20165 9687
" />
<path d="M19828 9687
L19828 8506
L19940 8675
L20053 8787
L20165 8844
" />
<path d="M25387 7541
L25387 6753
L25087 6753
L25012 6791
L24974 6828
L24937 6903
L24937 7016
L24974 7091
L25012 7128
L25087 7166
L25387 7166
" />
<path d="M24637 6828
L24599 6791
L24524 6753
L24337 6753
L24262 6791
L24224 6828
L24187 6903
L24187 6978
L24224 7091
L24674 7541
L24187 7541
" />
<path d="M25312 23467
L25705 22904
" />
<path d="M25987 23467
L25987 22286
L25537 22286
L25424 22342
L25368 22398
L25312 22511
L25312 22679
L25368 22792
L25424 22848
L25537 22904
L25987 22904
" />
<path d="M24581 22904
L24581 23467
" />
<path d="M24974 22286
L24581 22904
L24187 22286
" />
<path d="M23174 23467
L23849 23467
" />
<path d="M23512 23467
L23512 22286
L23624 22455
L23737 22567
L23849 22623
" />
<path d="M39063 18546
L39063 17365
L38613 17365
L38501 17421
L38444 17477
L38388 17589
L38388 17758
L38444 17871
L38501 17927
L38613 17983
L39063 17983
" />
<path d="M37263 18546
L37938 18546
" />
<path d="M37601 18546
L37601 17365
L37713 17533
L37826 17646
L37938 17702
" />
<path d="M26961 7541
L26961 6753
L26662 6753
L26587 6791
L26549 6828
L26512 6903
L26512 7016
L26549 7091
L26587 7128
L26662 7166
L26961 7166
" />
<path d="M26249 6753
L25762 6753
L26024 7053
L25912 7053
L25837 7091
L25799 7128
L25762 7203
L25762 7391
L25799 7466
L25837 7503
L25912 7541
L26137 7541
L26212 7503
L26249 7466
" />
<path d="M18347 30010
L19134 30010
L19134 29710
L19097 29635
L19059 29597
L18984 29560
L18872 29560
L18797 29597
L18759 29635
L18722 29710
L18722 30010
" />
<path d="M18872 28885
L18347 28885
" />
<path d="M19172 29072
L18609 29260
L18609 28772
" />
<path d="M16528 30179
L16528 29391
L16228 29391
L16153 29429
L16116 29466
L16078 29541
L16078 29654
L16116 29729
L16153 29766
L16228 29804
L16528 29804
" />
<path d="M15366 29391
L15741 29391
L15778 29766
L15741 29729
L15666 29691
L15479 29691
L15404 29729
L15366 29766
L15329 29841
L15329 30029
L15366 30104
L15404 30141
L15479 30179
L15666 30179
L15741 30141
L15778 30104
" />
<path d="M12835 29991
L13623 29991
L13623 29691
L13585 29616
L13548 29579
L13473 29541
L13360 29541
L13285 29579
L13248 29616
L13210 29691
L13210 29991
" />
<path d="M12835 28791
L12835 29241
" />
<path d="M12835 29016
L13623 29016
L13510 29091
L13435 29166
L13398 29241
" />
<path d="M12835 28041
L12835 28491
" />
<path d="M12835 28266
L13623 28266
L13510 28341
L13435 28416
L13398 28491
" />
<path d="M17147 11562
L16922 11637
L16547 11637
L16397 11562
L16322 11487
L16247 11337
L16247 11187
L16322 11037
L16397 10962
L16547 10887
L16847 10812
L16997 10737
L17072 10662
L17147 10512
L17147 10362
L17072 10212
L16997 10137
L16847 10062
L16472 10062
L16247 10137
" />
<path d="M14747 11637
L15647 11637
" />
<path d="M15197 11637
L15197 10062
L15347 10287
L15497 10437
L15647 10512
" />
<path d="M10060 11365
L9835 11440
L9461 11440
L9311 11365
L9236 11290
L9161 11140
L9161 10990
L9236 10840
L9311 10765
L9461 10690
L9760 10615
L9910 10540
L9985 10465
L10060 10315
L10060 10165
L9985 10015
L9910 9940
L9760 9865
L9386 9865
L9161 9940
" />
<path d="M8561 10015
L8486 9940
L8336 9865
L7961 9865
L7811 9940
L7736 10015
L7661 10165
L7661 10315
L7736 10540
L8636 11440
L7661 11440
" />
</g> 
</svg>
