G04 #@! TF.FileFunction,Legend,Top*
%FSLAX46Y46*%
G04 Gerber Fmt 4.6, Leading zero omitted, Abs format (unit mm)*
G04 Created by KiCad (PCBNEW 4.0.1-stable) date 21.5.2016. 23:44:44*
%MOMM*%
G01*
G04 APERTURE LIST*
%ADD10C,0.100000*%
%ADD11C,0.150000*%
G04 APERTURE END LIST*
D10*
D11*
X106500000Y-94800000D02*
X106500000Y-88800000D01*
X106500000Y-88800000D02*
X135500000Y-88800000D01*
X135500000Y-88800000D02*
X135500000Y-100800000D01*
X135500000Y-100800000D02*
X106500000Y-100800000D01*
X106500000Y-100800000D02*
X106500000Y-94800000D01*
X66000000Y-93000000D02*
X72000000Y-93000000D01*
X72000000Y-93000000D02*
X72000000Y-67000000D01*
X72000000Y-67000000D02*
X66000000Y-67000000D01*
X66000000Y-67000000D02*
X66000000Y-93000000D01*
X141670000Y-100970000D02*
X141670000Y-103510000D01*
X141950000Y-98150000D02*
X141950000Y-99700000D01*
X141670000Y-100970000D02*
X139130000Y-100970000D01*
X138850000Y-99700000D02*
X138850000Y-98150000D01*
X138850000Y-98150000D02*
X141950000Y-98150000D01*
X139130000Y-100970000D02*
X139130000Y-103510000D01*
X139130000Y-103510000D02*
X141670000Y-103510000D01*
X95200000Y-93000000D02*
X95200000Y-97000000D01*
X95200000Y-97000000D02*
X85200000Y-97000000D01*
X85200000Y-97000000D02*
X85200000Y-89000000D01*
X85200000Y-89000000D02*
X95200000Y-89000000D01*
X95200000Y-89000000D02*
X95200000Y-93000000D01*
X129570000Y-82370000D02*
X129570000Y-84910000D01*
X129850000Y-79550000D02*
X129850000Y-81100000D01*
X129570000Y-82370000D02*
X127030000Y-82370000D01*
X126750000Y-81100000D02*
X126750000Y-79550000D01*
X126750000Y-79550000D02*
X129850000Y-79550000D01*
X127030000Y-82370000D02*
X127030000Y-84910000D01*
X127030000Y-84910000D02*
X129570000Y-84910000D01*
X100330000Y-95330000D02*
X100330000Y-92790000D01*
X100050000Y-98150000D02*
X100050000Y-96600000D01*
X100330000Y-95330000D02*
X102870000Y-95330000D01*
X103150000Y-96600000D02*
X103150000Y-98150000D01*
X103150000Y-98150000D02*
X100050000Y-98150000D01*
X102870000Y-95330000D02*
X102870000Y-92790000D01*
X102870000Y-92790000D02*
X100330000Y-92790000D01*
X150470000Y-123730000D02*
X150470000Y-118650000D01*
X150470000Y-118650000D02*
X147930000Y-118650000D01*
X147930000Y-118650000D02*
X147930000Y-123730000D01*
X147650000Y-126550000D02*
X147650000Y-125000000D01*
X147930000Y-123730000D02*
X150470000Y-123730000D01*
X150750000Y-125000000D02*
X150750000Y-126550000D01*
X150750000Y-126550000D02*
X147650000Y-126550000D01*
X154670000Y-123730000D02*
X154670000Y-118650000D01*
X154670000Y-118650000D02*
X152130000Y-118650000D01*
X152130000Y-118650000D02*
X152130000Y-123730000D01*
X151850000Y-126550000D02*
X151850000Y-125000000D01*
X152130000Y-123730000D02*
X154670000Y-123730000D01*
X154950000Y-125000000D02*
X154950000Y-126550000D01*
X154950000Y-126550000D02*
X151850000Y-126550000D01*
X83400000Y-93000000D02*
X83400000Y-97000000D01*
X83400000Y-97000000D02*
X73400000Y-97000000D01*
X73400000Y-97000000D02*
X73400000Y-89000000D01*
X73400000Y-89000000D02*
X83400000Y-89000000D01*
X83400000Y-89000000D02*
X83400000Y-93000000D01*
X163270000Y-123730000D02*
X163270000Y-118650000D01*
X163270000Y-118650000D02*
X160730000Y-118650000D01*
X160730000Y-118650000D02*
X160730000Y-123730000D01*
X160450000Y-126550000D02*
X160450000Y-125000000D01*
X160730000Y-123730000D02*
X163270000Y-123730000D01*
X163550000Y-125000000D02*
X163550000Y-126550000D01*
X163550000Y-126550000D02*
X160450000Y-126550000D01*
X73300000Y-75600000D02*
X73300000Y-63600000D01*
X73300000Y-63600000D02*
X124300000Y-63600000D01*
X124300000Y-63600000D02*
X124300000Y-87600000D01*
X124300000Y-87600000D02*
X73300000Y-87600000D01*
X73300000Y-87600000D02*
X73300000Y-75600000D01*
X98200000Y-103400000D02*
X98200000Y-94400000D01*
X98200000Y-94400000D02*
X94200000Y-94400000D01*
X94200000Y-94400000D02*
X94200000Y-103400000D01*
X73200000Y-115400000D02*
X67200000Y-115400000D01*
X67200000Y-115400000D02*
X67200000Y-119400000D01*
X67200000Y-119400000D02*
X73200000Y-119400000D01*
X73200000Y-117400000D02*
X73200000Y-103400000D01*
X73200000Y-103400000D02*
X101200000Y-103400000D01*
X101200000Y-103400000D02*
X101200000Y-105400000D01*
X101200000Y-105400000D02*
X131200000Y-105400000D01*
X131200000Y-105400000D02*
X131200000Y-129400000D01*
X131200000Y-129400000D02*
X102200000Y-129400000D01*
X102200000Y-129400000D02*
X101200000Y-129400000D01*
X101200000Y-129400000D02*
X101200000Y-131400000D01*
X101200000Y-131400000D02*
X73200000Y-131400000D01*
X73200000Y-131400000D02*
X73200000Y-117400000D01*
X145907107Y-91100000D02*
G75*
G03X145907107Y-91100000I-707107J0D01*
G01*
X149407107Y-91100000D02*
G75*
G03X149407107Y-91100000I-707107J0D01*
G01*
X140200000Y-73100000D02*
G75*
G03X139200000Y-74100000I0J-1000000D01*
G01*
X154200000Y-74100000D02*
G75*
G03X153200000Y-73100000I-1000000J0D01*
G01*
X149700000Y-93100000D02*
X149700000Y-94100000D01*
X149700000Y-94100000D02*
X144200000Y-94100000D01*
X144200000Y-94100000D02*
X143700000Y-94100000D01*
X143700000Y-94100000D02*
X143700000Y-93100000D01*
X148200000Y-93100000D02*
X148200000Y-101100000D01*
X148200000Y-101100000D02*
X145200000Y-101100000D01*
X145200000Y-101100000D02*
X145200000Y-93100000D01*
X148200000Y-73100000D02*
X148200000Y-66100000D01*
X148200000Y-66100000D02*
X145200000Y-66100000D01*
X145200000Y-66100000D02*
X145200000Y-73100000D01*
X146700000Y-73100000D02*
X154200000Y-73100000D01*
X154200000Y-73100000D02*
X154200000Y-93100000D01*
X154200000Y-93100000D02*
X139200000Y-93100000D01*
X139200000Y-93100000D02*
X139200000Y-73100000D01*
X139200000Y-73100000D02*
X146700000Y-73100000D01*
X164007107Y-91200000D02*
G75*
G03X164007107Y-91200000I-707107J0D01*
G01*
X167507107Y-91200000D02*
G75*
G03X167507107Y-91200000I-707107J0D01*
G01*
X158300000Y-73200000D02*
G75*
G03X157300000Y-74200000I0J-1000000D01*
G01*
X172300000Y-74200000D02*
G75*
G03X171300000Y-73200000I-1000000J0D01*
G01*
X167800000Y-93200000D02*
X167800000Y-94200000D01*
X167800000Y-94200000D02*
X162300000Y-94200000D01*
X162300000Y-94200000D02*
X161800000Y-94200000D01*
X161800000Y-94200000D02*
X161800000Y-93200000D01*
X166300000Y-93200000D02*
X166300000Y-101200000D01*
X166300000Y-101200000D02*
X163300000Y-101200000D01*
X163300000Y-101200000D02*
X163300000Y-93200000D01*
X166300000Y-73200000D02*
X166300000Y-66200000D01*
X166300000Y-66200000D02*
X163300000Y-66200000D01*
X163300000Y-66200000D02*
X163300000Y-73200000D01*
X164800000Y-73200000D02*
X172300000Y-73200000D01*
X172300000Y-73200000D02*
X172300000Y-93200000D01*
X172300000Y-93200000D02*
X157300000Y-93200000D01*
X157300000Y-93200000D02*
X157300000Y-73200000D01*
X157300000Y-73200000D02*
X164800000Y-73200000D01*
X137600000Y-77300000D02*
X137600000Y-74100000D01*
X137600000Y-74100000D02*
X126000000Y-74100000D01*
X126000000Y-74100000D02*
X126000000Y-77300000D01*
X126000000Y-77300000D02*
X137600000Y-77300000D01*
X133800000Y-75500000D02*
X129800000Y-75500000D01*
X133800000Y-75900000D02*
X129800000Y-75900000D01*
X133800000Y-75700000D02*
X129800000Y-75700000D01*
X132307144Y-102978571D02*
X131807144Y-102264286D01*
X131450001Y-102978571D02*
X131450001Y-101478571D01*
X132021429Y-101478571D01*
X132164287Y-101550000D01*
X132235715Y-101621429D01*
X132307144Y-101764286D01*
X132307144Y-101978571D01*
X132235715Y-102121429D01*
X132164287Y-102192857D01*
X132021429Y-102264286D01*
X131450001Y-102264286D01*
X133235715Y-102264286D02*
X133235715Y-102978571D01*
X132735715Y-101478571D02*
X133235715Y-102264286D01*
X133735715Y-101478571D01*
X135021429Y-102978571D02*
X134164286Y-102978571D01*
X134592858Y-102978571D02*
X134592858Y-101478571D01*
X134450001Y-101692857D01*
X134307143Y-101835714D01*
X134164286Y-101907143D01*
X139566667Y-94052381D02*
X139566667Y-94766667D01*
X139519047Y-94909524D01*
X139423809Y-95004762D01*
X139280952Y-95052381D01*
X139185714Y-95052381D01*
X140042857Y-95052381D02*
X140042857Y-94052381D01*
X140423810Y-94052381D01*
X140519048Y-94100000D01*
X140566667Y-94147619D01*
X140614286Y-94242857D01*
X140614286Y-94385714D01*
X140566667Y-94480952D01*
X140519048Y-94528571D01*
X140423810Y-94576190D01*
X140042857Y-94576190D01*
X140995238Y-94147619D02*
X141042857Y-94100000D01*
X141138095Y-94052381D01*
X141376191Y-94052381D01*
X141471429Y-94100000D01*
X141519048Y-94147619D01*
X141566667Y-94242857D01*
X141566667Y-94338095D01*
X141519048Y-94480952D01*
X140947619Y-95052381D01*
X141566667Y-95052381D01*
X91092858Y-98678571D02*
X91092858Y-97178571D01*
X91664286Y-97178571D01*
X91807144Y-97250000D01*
X91878572Y-97321429D01*
X91950001Y-97464286D01*
X91950001Y-97678571D01*
X91878572Y-97821429D01*
X91807144Y-97892857D01*
X91664286Y-97964286D01*
X91092858Y-97964286D01*
X93378572Y-98678571D02*
X92521429Y-98678571D01*
X92950001Y-98678571D02*
X92950001Y-97178571D01*
X92807144Y-97392857D01*
X92664286Y-97535714D01*
X92521429Y-97607143D01*
X131252381Y-85088095D02*
X130252381Y-85088095D01*
X130252381Y-84707142D01*
X130300000Y-84611904D01*
X130347619Y-84564285D01*
X130442857Y-84516666D01*
X130585714Y-84516666D01*
X130680952Y-84564285D01*
X130728571Y-84611904D01*
X130776190Y-84707142D01*
X130776190Y-85088095D01*
X130347619Y-84135714D02*
X130300000Y-84088095D01*
X130252381Y-83992857D01*
X130252381Y-83754761D01*
X130300000Y-83659523D01*
X130347619Y-83611904D01*
X130442857Y-83564285D01*
X130538095Y-83564285D01*
X130680952Y-83611904D01*
X131252381Y-84183333D01*
X131252381Y-83564285D01*
X100761905Y-92052381D02*
X100761905Y-91052381D01*
X101142858Y-91052381D01*
X101238096Y-91100000D01*
X101285715Y-91147619D01*
X101333334Y-91242857D01*
X101333334Y-91385714D01*
X101285715Y-91480952D01*
X101238096Y-91528571D01*
X101142858Y-91576190D01*
X100761905Y-91576190D01*
X101666667Y-91052381D02*
X102285715Y-91052381D01*
X101952381Y-91433333D01*
X102095239Y-91433333D01*
X102190477Y-91480952D01*
X102238096Y-91528571D01*
X102285715Y-91623810D01*
X102285715Y-91861905D01*
X102238096Y-91957143D01*
X102190477Y-92004762D01*
X102095239Y-92052381D01*
X101809524Y-92052381D01*
X101714286Y-92004762D01*
X101666667Y-91957143D01*
X148461905Y-127712381D02*
X148461905Y-126712381D01*
X148842858Y-126712381D01*
X148938096Y-126760000D01*
X148985715Y-126807619D01*
X149033334Y-126902857D01*
X149033334Y-127045714D01*
X148985715Y-127140952D01*
X148938096Y-127188571D01*
X148842858Y-127236190D01*
X148461905Y-127236190D01*
X149890477Y-127045714D02*
X149890477Y-127712381D01*
X149652381Y-126664762D02*
X149414286Y-127379048D01*
X150033334Y-127379048D01*
X152661905Y-127912381D02*
X152661905Y-126912381D01*
X153042858Y-126912381D01*
X153138096Y-126960000D01*
X153185715Y-127007619D01*
X153233334Y-127102857D01*
X153233334Y-127245714D01*
X153185715Y-127340952D01*
X153138096Y-127388571D01*
X153042858Y-127436190D01*
X152661905Y-127436190D01*
X154138096Y-126912381D02*
X153661905Y-126912381D01*
X153614286Y-127388571D01*
X153661905Y-127340952D01*
X153757143Y-127293333D01*
X153995239Y-127293333D01*
X154090477Y-127340952D01*
X154138096Y-127388571D01*
X154185715Y-127483810D01*
X154185715Y-127721905D01*
X154138096Y-127817143D01*
X154090477Y-127864762D01*
X153995239Y-127912381D01*
X153757143Y-127912381D01*
X153661905Y-127864762D01*
X153614286Y-127817143D01*
X78578572Y-98678571D02*
X78578572Y-97178571D01*
X79150000Y-97178571D01*
X79292858Y-97250000D01*
X79364286Y-97321429D01*
X79435715Y-97464286D01*
X79435715Y-97678571D01*
X79364286Y-97821429D01*
X79292858Y-97892857D01*
X79150000Y-97964286D01*
X78578572Y-97964286D01*
X80864286Y-98678571D02*
X80007143Y-98678571D01*
X80435715Y-98678571D02*
X80435715Y-97178571D01*
X80292858Y-97392857D01*
X80150000Y-97535714D01*
X80007143Y-97607143D01*
X81792857Y-97178571D02*
X81935714Y-97178571D01*
X82078571Y-97250000D01*
X82150000Y-97321429D01*
X82221429Y-97464286D01*
X82292857Y-97750000D01*
X82292857Y-98107143D01*
X82221429Y-98392857D01*
X82150000Y-98535714D01*
X82078571Y-98607143D01*
X81935714Y-98678571D01*
X81792857Y-98678571D01*
X81650000Y-98607143D01*
X81578571Y-98535714D01*
X81507143Y-98392857D01*
X81435714Y-98107143D01*
X81435714Y-97750000D01*
X81507143Y-97464286D01*
X81578571Y-97321429D01*
X81650000Y-97250000D01*
X81792857Y-97178571D01*
X160035714Y-128662381D02*
X160035714Y-127662381D01*
X160416667Y-127662381D01*
X160511905Y-127710000D01*
X160559524Y-127757619D01*
X160607143Y-127852857D01*
X160607143Y-127995714D01*
X160559524Y-128090952D01*
X160511905Y-128138571D01*
X160416667Y-128186190D01*
X160035714Y-128186190D01*
X161559524Y-128662381D02*
X160988095Y-128662381D01*
X161273809Y-128662381D02*
X161273809Y-127662381D01*
X161178571Y-127805238D01*
X161083333Y-127900476D01*
X160988095Y-127948095D01*
X162511905Y-128662381D02*
X161940476Y-128662381D01*
X162226190Y-128662381D02*
X162226190Y-127662381D01*
X162130952Y-127805238D01*
X162035714Y-127900476D01*
X161940476Y-127948095D01*
X76157143Y-88778571D02*
X76157143Y-89992857D01*
X76228571Y-90135714D01*
X76300000Y-90207143D01*
X76442857Y-90278571D01*
X76728571Y-90278571D01*
X76871429Y-90207143D01*
X76942857Y-90135714D01*
X77014286Y-89992857D01*
X77014286Y-88778571D01*
X77657143Y-88921429D02*
X77728572Y-88850000D01*
X77871429Y-88778571D01*
X78228572Y-88778571D01*
X78371429Y-88850000D01*
X78442858Y-88921429D01*
X78514286Y-89064286D01*
X78514286Y-89207143D01*
X78442858Y-89421429D01*
X77585715Y-90278571D01*
X78514286Y-90278571D01*
X75985715Y-130078571D02*
X75985715Y-128578571D01*
X76485715Y-129650000D01*
X76985715Y-128578571D01*
X76985715Y-130078571D01*
X78485715Y-130078571D02*
X77628572Y-130078571D01*
X78057144Y-130078571D02*
X78057144Y-128578571D01*
X77914287Y-128792857D01*
X77771429Y-128935714D01*
X77628572Y-129007143D01*
X138307143Y-77242857D02*
X138378571Y-77028571D01*
X138378571Y-76671428D01*
X138307143Y-76528571D01*
X138235714Y-76457142D01*
X138092857Y-76385714D01*
X137950000Y-76385714D01*
X137807143Y-76457142D01*
X137735714Y-76528571D01*
X137664286Y-76671428D01*
X137592857Y-76957142D01*
X137521429Y-77100000D01*
X137450000Y-77171428D01*
X137307143Y-77242857D01*
X137164286Y-77242857D01*
X137021429Y-77171428D01*
X136950000Y-77100000D01*
X136878571Y-76957142D01*
X136878571Y-76600000D01*
X136950000Y-76385714D01*
X138378571Y-74957143D02*
X138378571Y-75814286D01*
X138378571Y-75385714D02*
X136878571Y-75385714D01*
X137092857Y-75528571D01*
X137235714Y-75671429D01*
X137307143Y-75814286D01*
X156407143Y-77342857D02*
X156478571Y-77128571D01*
X156478571Y-76771428D01*
X156407143Y-76628571D01*
X156335714Y-76557142D01*
X156192857Y-76485714D01*
X156050000Y-76485714D01*
X155907143Y-76557142D01*
X155835714Y-76628571D01*
X155764286Y-76771428D01*
X155692857Y-77057142D01*
X155621429Y-77200000D01*
X155550000Y-77271428D01*
X155407143Y-77342857D01*
X155264286Y-77342857D01*
X155121429Y-77271428D01*
X155050000Y-77200000D01*
X154978571Y-77057142D01*
X154978571Y-76700000D01*
X155050000Y-76485714D01*
X155121429Y-75914286D02*
X155050000Y-75842857D01*
X154978571Y-75700000D01*
X154978571Y-75342857D01*
X155050000Y-75200000D01*
X155121429Y-75128571D01*
X155264286Y-75057143D01*
X155407143Y-75057143D01*
X155621429Y-75128571D01*
X156478571Y-75985714D01*
X156478571Y-75057143D01*
X133350000Y-77678571D02*
X133350000Y-78750000D01*
X133278572Y-78964286D01*
X133135715Y-79107143D01*
X132921429Y-79178571D01*
X132778572Y-79178571D01*
X134064286Y-79178571D02*
X134064286Y-77678571D01*
X134635714Y-77678571D01*
X134778572Y-77750000D01*
X134850000Y-77821429D01*
X134921429Y-77964286D01*
X134921429Y-78178571D01*
X134850000Y-78321429D01*
X134778572Y-78392857D01*
X134635714Y-78464286D01*
X134064286Y-78464286D01*
X136350000Y-79178571D02*
X135492857Y-79178571D01*
X135921429Y-79178571D02*
X135921429Y-77678571D01*
X135778572Y-77892857D01*
X135635714Y-78035714D01*
X135492857Y-78107143D01*
M02*
