M48
;DRILL file {KiCad 4.0.1-stable} date 5.6.2016. 11:17:45
;FORMAT={-:-/ absolute / metric / decimal}
FMAT,2
METRIC,TZ
T1C0.800
T2C1.000
T3C1.016
T4C1.400
T5C1.500
%
G90
G05
M71
T1
X124.Y46.3
X124.Y54.3
X139.Y46.3
X139.Y54.3
X144.Y46.3
X144.Y54.3
X149.Y46.3
X149.Y54.3
T2
X84.5Y58.
X91.7Y22.3
X91.7Y80.7
X96.65Y46.88
X96.65Y51.88
X100.95Y59.1
X105.72Y46.88
X105.72Y51.88
X110.7Y59.1
X119.2Y58.9
X119.2Y86.9
X126.3Y84.75
X145.2Y84.75
X154.25Y43.25
X163.25Y19.25
X171.Y69.25
X172.25Y43.25
X172.25Y43.25
X183.3Y22.3
X183.3Y80.7
X187.Y69.25
X190.25Y43.25
T3
X143.225Y21.8
X143.225Y24.34
X147.12Y21.77
X147.12Y24.31
X162.5Y78.96
X162.5Y81.5
X162.5Y84.04
X169.5Y78.96
X169.5Y81.5
X169.5Y84.04
X176.5Y78.96
X176.5Y81.5
X176.5Y84.04
T4
X85.13Y25.41
X85.13Y30.41
X85.13Y40.41
X85.13Y45.41
T5
X90.8Y28.6
X90.8Y33.6
X137.8Y27.48
X137.8Y34.72
X150.92Y19.43
X150.92Y27.43
X151.7Y62.9
X151.7Y82.9
X158.25Y57.5
X166.25Y57.5
X171.25Y55.75
X171.25Y60.25
X189.25Y55.75
X189.25Y60.25
T0
M30
