G04 #@! TF.FileFunction,Copper,L2,Bot,Signal*
%FSLAX46Y46*%
G04 Gerber Fmt 4.6, Leading zero omitted, Abs format (unit mm)*
G04 Created by KiCad (PCBNEW 4.0.1-stable) date 21.5.2016. 23:44:44*
%MOMM*%
G01*
G04 APERTURE LIST*
%ADD10C,0.100000*%
%ADD11R,2.500000X2.500000*%
%ADD12C,2.500000*%
%ADD13R,1.600200X3.599180*%
%ADD14R,1.600200X2.600960*%
%ADD15R,3.599180X1.600200*%
%ADD16R,1.600000X2.000000*%
%ADD17R,2.000000X1.250000*%
%ADD18R,4.000000X3.800000*%
%ADD19R,3.800000X4.000000*%
%ADD20R,2.499360X3.299460*%
%ADD21C,4.000000*%
%ADD22R,2.032000X2.032000*%
%ADD23O,2.032000X2.032000*%
%ADD24C,3.000000*%
%ADD25R,2.032000X1.727200*%
%ADD26O,2.032000X1.727200*%
%ADD27R,3.650000X2.050000*%
%ADD28R,0.800100X0.800100*%
%ADD29R,1.700000X2.000000*%
%ADD30R,2.000000X1.700000*%
%ADD31R,1.550000X0.600000*%
%ADD32C,5.000000*%
%ADD33R,2.500000X0.900000*%
%ADD34R,2.032000X3.657600*%
%ADD35R,2.032000X1.016000*%
%ADD36C,2.000000*%
%ADD37C,1.000000*%
%ADD38C,0.800000*%
%ADD39C,2.000000*%
%ADD40C,0.254000*%
G04 APERTURE END LIST*
D10*
D11*
X108500000Y-90800000D03*
D12*
X133500000Y-90800000D03*
X128500000Y-90800000D03*
X123500000Y-90800000D03*
X133500000Y-98800000D03*
X128500000Y-98800000D03*
X123500000Y-98800000D03*
X108500000Y-98800000D03*
D13*
X102100000Y-76100820D03*
X102100000Y-70599180D03*
D14*
X108700000Y-74500860D03*
X108700000Y-70899140D03*
D15*
X113250820Y-112000000D03*
X107749180Y-112000000D03*
D13*
X82400000Y-109449180D03*
X82400000Y-114950820D03*
D16*
X89200000Y-119000000D03*
X89200000Y-123000000D03*
D15*
X162296950Y-75868142D03*
X167798590Y-75868142D03*
X149750820Y-76100000D03*
X144249180Y-76100000D03*
D13*
X116000000Y-76350820D03*
X116000000Y-70849180D03*
D17*
X85400000Y-119725000D03*
X85400000Y-123287500D03*
D18*
X136300000Y-119650000D03*
X136300000Y-111550000D03*
D19*
X161397770Y-89668142D03*
X169497770Y-89668142D03*
X150650000Y-89600000D03*
X142550000Y-89600000D03*
D20*
X105001060Y-86400000D03*
X98198940Y-86400000D03*
D21*
X69000000Y-90000000D03*
X69000000Y-85000000D03*
X69000000Y-75000000D03*
X69000000Y-70000000D03*
X167800000Y-66800000D03*
X76200000Y-66800000D03*
X167800000Y-125200000D03*
X76200000Y-125200000D03*
D22*
X140400000Y-99700000D03*
D23*
X140400000Y-102240000D03*
D24*
X92700000Y-93000000D03*
X87700000Y-93000000D03*
D22*
X128300000Y-81100000D03*
D23*
X128300000Y-83640000D03*
D22*
X101600000Y-96600000D03*
D23*
X101600000Y-94060000D03*
D25*
X149200000Y-125000000D03*
D26*
X149200000Y-122460000D03*
X149200000Y-119920000D03*
D25*
X153400000Y-125000000D03*
D26*
X153400000Y-122460000D03*
X153400000Y-119920000D03*
D27*
X142000000Y-130100000D03*
X129250000Y-62000000D03*
X135900000Y-70200000D03*
X139900000Y-62200000D03*
D24*
X80900000Y-93000000D03*
X75900000Y-93000000D03*
D25*
X162000000Y-125000000D03*
D26*
X162000000Y-122460000D03*
X162000000Y-119920000D03*
D28*
X101400000Y-119100000D03*
X103300000Y-119100000D03*
X102350000Y-121098980D03*
X113000760Y-94250000D03*
X113000760Y-96150000D03*
X111001780Y-95200000D03*
X142599240Y-116050000D03*
X142599240Y-114150000D03*
X144598220Y-115100000D03*
D29*
X81500000Y-119400000D03*
X81500000Y-123400000D03*
D30*
X119848325Y-121924125D03*
X123848325Y-121924125D03*
X106248325Y-121924125D03*
X110248325Y-121924125D03*
X106248325Y-119124125D03*
X110248325Y-119124125D03*
X98300000Y-119900000D03*
X94300000Y-119900000D03*
X119848325Y-119124125D03*
X123848325Y-119124125D03*
X113048325Y-121924125D03*
X117048325Y-121924125D03*
X113048325Y-119124125D03*
X117048325Y-119124125D03*
X146700000Y-82200000D03*
X150700000Y-82200000D03*
X170400000Y-119650000D03*
X166400000Y-119650000D03*
D29*
X157550000Y-120550000D03*
X157550000Y-124550000D03*
X145050000Y-121150000D03*
X145050000Y-125150000D03*
X142200000Y-121200000D03*
X142200000Y-125200000D03*
D30*
X146700000Y-84800000D03*
X150700000Y-84800000D03*
X164847770Y-84868142D03*
X160847770Y-84868142D03*
X164892769Y-81981612D03*
X160892769Y-81981612D03*
D29*
X105200000Y-93200000D03*
X105200000Y-97200000D03*
D24*
X75300000Y-73100000D03*
X75300000Y-78100000D03*
X122300000Y-71980000D03*
X122300000Y-79220000D03*
D31*
X94600000Y-111595000D03*
X94600000Y-112865000D03*
X94600000Y-114135000D03*
X94600000Y-115405000D03*
X89200000Y-115405000D03*
X89200000Y-114135000D03*
X89200000Y-112865000D03*
X89200000Y-111595000D03*
D24*
X136200000Y-107400000D03*
X136200000Y-127400000D03*
D32*
X103700000Y-103400000D03*
X103700000Y-131400000D03*
D24*
X154700000Y-95600000D03*
X154700000Y-100100000D03*
D32*
X155700000Y-83100000D03*
X137700000Y-83100000D03*
D24*
X172800000Y-95700000D03*
X172800000Y-100200000D03*
D32*
X173800000Y-83200000D03*
X155800000Y-83200000D03*
D33*
X112701030Y-101486499D03*
X112701030Y-98586499D03*
X115384500Y-101541500D03*
X115384500Y-98641500D03*
X117984500Y-101541500D03*
X117984500Y-98641500D03*
D24*
X135800000Y-75700000D03*
X127800000Y-75700000D03*
D34*
X125502000Y-111500000D03*
D35*
X118898000Y-111500000D03*
X118898000Y-109214000D03*
X118898000Y-113786000D03*
D36*
X98000000Y-112000000D03*
X103800000Y-112000000D03*
D37*
X129250000Y-65030000D02*
X130420000Y-66200000D01*
X130420000Y-66200000D02*
X141950000Y-66200000D01*
X169650000Y-80888490D02*
X169650000Y-84480370D01*
X141950000Y-66200000D02*
X146399990Y-70649990D01*
X146399990Y-70649990D02*
X169638481Y-70649990D01*
X169638481Y-70649990D02*
X172800010Y-73811519D01*
X172800010Y-73811519D02*
X172800010Y-77738480D01*
X172800010Y-77738480D02*
X169650000Y-80888490D01*
X169650000Y-84480370D02*
X176650000Y-91480370D01*
X176650000Y-91480370D02*
X176650000Y-105422400D01*
X176650000Y-105422400D02*
X162152400Y-119920000D01*
X162152400Y-119920000D02*
X162000000Y-119920000D01*
X129250000Y-62000000D02*
X129250000Y-65030000D01*
X129250000Y-65030000D02*
X122300000Y-71980000D01*
X102100000Y-76100820D02*
X102100000Y-77100310D01*
X102100000Y-77100310D02*
X105001060Y-80001370D01*
X105001060Y-80001370D02*
X105001060Y-86400000D01*
X108500000Y-90800000D02*
X117000000Y-90800000D01*
X117000000Y-90800000D02*
X119600000Y-93400000D01*
X119600000Y-93400000D02*
X125900000Y-93400000D01*
X125900000Y-93400000D02*
X128500000Y-90800000D01*
D38*
X128300000Y-83640000D02*
X131640000Y-83640000D01*
X131640000Y-83640000D02*
X132000000Y-84000000D01*
D37*
X122300000Y-71980000D02*
X129880000Y-71980000D01*
X132000000Y-87300000D02*
X128500000Y-90800000D01*
X132000000Y-74100000D02*
X132000000Y-84000000D01*
X132000000Y-84000000D02*
X132000000Y-87300000D01*
X129880000Y-71980000D02*
X132000000Y-74100000D01*
D38*
X122300000Y-71980000D02*
X122300000Y-71700000D01*
D37*
X101600000Y-94060000D02*
X101600000Y-89801060D01*
X101600000Y-89801060D02*
X105001060Y-86400000D01*
D38*
X105001060Y-86400000D02*
X105001060Y-87301060D01*
D37*
X105001060Y-87301060D02*
X108500000Y-90800000D01*
D38*
X107749180Y-112000000D02*
X103800000Y-112000000D01*
X97595000Y-111595000D02*
X94600000Y-111595000D01*
X98000000Y-112000000D02*
X97595000Y-111595000D01*
X111800000Y-79701340D02*
X111800000Y-78950720D01*
X111800000Y-78950720D02*
X114399900Y-76350820D01*
X114399900Y-76350820D02*
X116000000Y-76350820D01*
X108700000Y-74500860D02*
X108700000Y-76601340D01*
X108700000Y-76601340D02*
X111800000Y-79701340D01*
X111800000Y-79701340D02*
X111800000Y-84300000D01*
X126700000Y-81100000D02*
X128300000Y-81100000D01*
X125100000Y-82700000D02*
X126700000Y-81100000D01*
X125100000Y-86100000D02*
X125100000Y-82700000D01*
X123200000Y-88000000D02*
X125100000Y-86100000D01*
X115500000Y-88000000D02*
X123200000Y-88000000D01*
X111800000Y-84300000D02*
X115500000Y-88000000D01*
X127800000Y-75700000D02*
X127800000Y-80600000D01*
X127800000Y-80600000D02*
X128300000Y-81100000D01*
X118898000Y-113786000D02*
X115036820Y-113786000D01*
X115036820Y-113786000D02*
X113250820Y-112000000D01*
D37*
X149200000Y-119920000D02*
X153400000Y-119920000D01*
X153400000Y-119920000D02*
X153400000Y-116350000D01*
X167350000Y-111850000D02*
X164450000Y-111850000D01*
X175150000Y-104050000D02*
X167350000Y-111850000D01*
X175150000Y-97750000D02*
X175150000Y-104050000D01*
X175150000Y-97750000D02*
X173100000Y-95700000D01*
X157900000Y-111850000D02*
X164450000Y-111850000D01*
X153400000Y-116350000D02*
X157900000Y-111850000D01*
X135800000Y-75700000D02*
X138400000Y-75700000D01*
X138400000Y-75700000D02*
X142150000Y-71950000D01*
X142150000Y-71950000D02*
X169100000Y-71950000D01*
X169100000Y-71950000D02*
X171500000Y-74350000D01*
X171500000Y-74350000D02*
X171500000Y-77200000D01*
X168100000Y-80600000D02*
X168100000Y-88270372D01*
X171500000Y-77200000D02*
X168100000Y-80600000D01*
X168100000Y-88270372D02*
X169497770Y-89668142D01*
X172800000Y-95700000D02*
X173100000Y-95700000D01*
X118898000Y-109214000D02*
X118898000Y-105452000D01*
X118898000Y-105452000D02*
X121050000Y-103300000D01*
X121050000Y-103300000D02*
X121050000Y-97300000D01*
X121050000Y-97300000D02*
X122649990Y-95700010D01*
X122649990Y-95700010D02*
X128599990Y-95700010D01*
X128599990Y-95700010D02*
X132250001Y-92049999D01*
X132250001Y-92049999D02*
X133500000Y-90800000D01*
X99000000Y-107800000D02*
X117484000Y-107800000D01*
X117484000Y-107800000D02*
X118898000Y-109214000D01*
X87800000Y-109449180D02*
X87800000Y-109000000D01*
X99795000Y-115405000D02*
X94600000Y-115405000D01*
X101200000Y-114000000D02*
X99795000Y-115405000D01*
X101200000Y-110000000D02*
X101200000Y-114000000D01*
X99000000Y-107800000D02*
X101200000Y-110000000D01*
X89000000Y-107800000D02*
X99000000Y-107800000D01*
X87800000Y-109000000D02*
X89000000Y-107800000D01*
X82400000Y-109449180D02*
X87800000Y-109449180D01*
X87800000Y-109449180D02*
X87849180Y-109449180D01*
X89200000Y-110800000D02*
X89200000Y-111595000D01*
X87849180Y-109449180D02*
X89200000Y-110800000D01*
X172800000Y-95700000D02*
X173200000Y-95700000D01*
X154700000Y-95600000D02*
X172700000Y-95600000D01*
X172700000Y-95600000D02*
X172800000Y-95700000D01*
X169497770Y-89668142D02*
X169497770Y-92397770D01*
X169497770Y-92397770D02*
X172800000Y-95700000D01*
X133500000Y-90800000D02*
X137400000Y-90800000D01*
X138600000Y-89600000D02*
X142550000Y-89600000D01*
X137400000Y-90800000D02*
X138600000Y-89600000D01*
X135800000Y-75700000D02*
X136900000Y-75700000D01*
X136900000Y-75700000D02*
X142550000Y-81350000D01*
X142550000Y-81350000D02*
X142550000Y-89600000D01*
X135900000Y-70200000D02*
X135900000Y-75600000D01*
X135900000Y-75600000D02*
X135800000Y-75700000D01*
D38*
X89200000Y-114135000D02*
X83215820Y-114135000D01*
X83215820Y-114135000D02*
X82400000Y-114950820D01*
X81500000Y-119400000D02*
X85075000Y-119400000D01*
X85075000Y-119400000D02*
X85400000Y-119725000D01*
X82400000Y-114950820D02*
X82400000Y-118500000D01*
X82400000Y-118500000D02*
X81500000Y-119400000D01*
X89200000Y-114135000D02*
X90565000Y-114135000D01*
X91835000Y-112865000D02*
X94600000Y-112865000D01*
X90565000Y-114135000D02*
X91835000Y-112865000D01*
X89200000Y-115405000D02*
X89200000Y-119000000D01*
X154700000Y-100100000D02*
X172700000Y-100100000D01*
X172700000Y-100100000D02*
X172800000Y-100200000D01*
X154700000Y-100100000D02*
X153000000Y-100100000D01*
X150650000Y-97750000D02*
X150650000Y-89600000D01*
X153000000Y-100100000D02*
X150650000Y-97750000D01*
X140400000Y-102240000D02*
X152560000Y-102240000D01*
X152560000Y-102240000D02*
X154700000Y-100100000D01*
X162296950Y-75868142D02*
X162296950Y-77203050D01*
X160892769Y-78607231D02*
X160892769Y-81981612D01*
X162296950Y-77203050D02*
X160892769Y-78607231D01*
X160892769Y-81981612D02*
X160892769Y-84823143D01*
X160892769Y-84823143D02*
X160847770Y-84868142D01*
X150650000Y-89600000D02*
X161329628Y-89600000D01*
X161329628Y-89600000D02*
X161397770Y-89668142D01*
X160847770Y-84868142D02*
X160847770Y-89118142D01*
X160847770Y-89118142D02*
X161397770Y-89668142D01*
X150700000Y-84800000D02*
X150700000Y-89550000D01*
X150700000Y-89550000D02*
X150650000Y-89600000D01*
X150700000Y-82200000D02*
X150700000Y-84800000D01*
X149750820Y-76100000D02*
X149750820Y-78250820D01*
X150700000Y-79200000D02*
X150700000Y-82200000D01*
X149750820Y-78250820D02*
X150700000Y-79200000D01*
X108500000Y-98800000D02*
X108500000Y-97701780D01*
X108500000Y-97701780D02*
X111001780Y-95200000D01*
X98198940Y-86400000D02*
X98198940Y-98198940D01*
X99600000Y-99600000D02*
X107700000Y-99600000D01*
X98198940Y-98198940D02*
X99600000Y-99600000D01*
X107700000Y-99600000D02*
X108500000Y-98800000D01*
D39*
X69000000Y-90000000D02*
X69000000Y-91425000D01*
X69000000Y-91425000D02*
X70575000Y-93000000D01*
X70575000Y-93000000D02*
X75900000Y-93000000D01*
X69000000Y-85000000D02*
X69000000Y-90000000D01*
X69000000Y-75000000D02*
X69000000Y-74825000D01*
X69000000Y-74825000D02*
X70725000Y-73100000D01*
X70725000Y-73100000D02*
X75300000Y-73100000D01*
X69000000Y-70000000D02*
X69000000Y-75000000D01*
D38*
X123500000Y-98800000D02*
X123500000Y-100567766D01*
X123500000Y-100567766D02*
X125432234Y-102500000D01*
X125432234Y-102500000D02*
X135784000Y-102500000D01*
X138584000Y-99700000D02*
X140400000Y-99700000D01*
X135784000Y-102500000D02*
X138584000Y-99700000D01*
D39*
X75300000Y-78100000D02*
X82350000Y-78100000D01*
X92700000Y-88450000D02*
X92700000Y-93000000D01*
X82350000Y-78100000D02*
X92700000Y-88450000D01*
X80900000Y-93000000D02*
X87700000Y-93000000D01*
D38*
X101600000Y-96600000D02*
X104600000Y-96600000D01*
X104600000Y-96600000D02*
X105200000Y-97200000D01*
X149200000Y-125000000D02*
X145200000Y-125000000D01*
X145200000Y-125000000D02*
X145050000Y-125150000D01*
X153400000Y-125000000D02*
X157100000Y-125000000D01*
X157100000Y-125000000D02*
X157550000Y-124550000D01*
X142000000Y-130100000D02*
X142000000Y-125400000D01*
X142000000Y-125400000D02*
X142200000Y-125200000D01*
X142000000Y-130100000D02*
X138500000Y-130100000D01*
X138400000Y-130200000D02*
X113000000Y-130200000D01*
X113000000Y-130200000D02*
X107000000Y-124200000D01*
X107000000Y-124200000D02*
X96400000Y-124200000D01*
X96400000Y-124200000D02*
X94300000Y-122100000D01*
X94300000Y-122100000D02*
X94300000Y-119900000D01*
X138500000Y-130100000D02*
X138400000Y-130200000D01*
X94300000Y-119900000D02*
X94500000Y-119900000D01*
X94600000Y-114135000D02*
X92965000Y-114135000D01*
X92965000Y-114135000D02*
X92000000Y-115100000D01*
X92000000Y-115100000D02*
X92000000Y-118900000D01*
X92000000Y-118900000D02*
X93000000Y-119900000D01*
X93000000Y-119900000D02*
X94300000Y-119900000D01*
X162000000Y-125000000D02*
X162950000Y-125000000D01*
X165750000Y-122200000D02*
X165750000Y-120300000D01*
X162950000Y-125000000D02*
X165750000Y-122200000D01*
X165750000Y-120300000D02*
X166400000Y-119650000D01*
X98300000Y-119900000D02*
X98800000Y-119900000D01*
X98800000Y-119900000D02*
X99600000Y-119100000D01*
X99600000Y-119100000D02*
X101400000Y-119100000D01*
X102350000Y-121098980D02*
X102498980Y-121098980D01*
X102498980Y-121098980D02*
X103324125Y-121924125D01*
X103324125Y-121924125D02*
X106248325Y-121924125D01*
X105200000Y-93200000D02*
X111950760Y-93200000D01*
X111950760Y-93200000D02*
X113000760Y-94250000D01*
X115384500Y-98641500D02*
X117984500Y-98641500D01*
X112701030Y-98586499D02*
X115329499Y-98586499D01*
X115329499Y-98586499D02*
X115384500Y-98641500D01*
X113000760Y-96150000D02*
X114250000Y-96150000D01*
X115384500Y-97284500D02*
X115384500Y-98641500D01*
X114250000Y-96150000D02*
X115384500Y-97284500D01*
X142200000Y-121200000D02*
X142200000Y-116449240D01*
X142200000Y-116449240D02*
X142599240Y-116050000D01*
X142200000Y-121200000D02*
X142800000Y-121200000D01*
X144598220Y-115100000D02*
X144800000Y-115100000D01*
X144800000Y-115100000D02*
X145050000Y-115350000D01*
X145050000Y-115350000D02*
X145050000Y-121150000D01*
X119848325Y-121924125D02*
X120675875Y-121924125D01*
X120675875Y-121924125D02*
X121800000Y-120800000D01*
X121800000Y-120800000D02*
X121800000Y-120200000D01*
X121800000Y-120200000D02*
X122875875Y-119124125D01*
X122875875Y-119124125D02*
X123848325Y-119124125D01*
X110248325Y-121924125D02*
X113048325Y-121924125D01*
X110248325Y-119124125D02*
X113048325Y-119124125D01*
X117048325Y-119124125D02*
X119848325Y-119124125D01*
X117048325Y-119124125D02*
X117048325Y-121924125D01*
X125502000Y-111500000D02*
X125502000Y-114102000D01*
X126075875Y-121924125D02*
X123848325Y-121924125D01*
X127200000Y-120800000D02*
X126075875Y-121924125D01*
X127200000Y-115800000D02*
X127200000Y-120800000D01*
X125502000Y-114102000D02*
X127200000Y-115800000D01*
X136200000Y-107400000D02*
X136200000Y-111450000D01*
X136200000Y-111450000D02*
X136300000Y-111550000D01*
X125502000Y-111500000D02*
X136250000Y-111500000D01*
X136250000Y-111500000D02*
X136300000Y-111550000D01*
X118898000Y-111500000D02*
X125502000Y-111500000D01*
D40*
G36*
X177873000Y-131873000D02*
X106834588Y-131873000D01*
X106835543Y-130779146D01*
X106359273Y-129626485D01*
X105478153Y-128743826D01*
X104326326Y-128265546D01*
X103079146Y-128264457D01*
X101926485Y-128740727D01*
X101043826Y-129621847D01*
X100565546Y-130773674D01*
X100564586Y-131873000D01*
X66127000Y-131873000D01*
X66127000Y-125721834D01*
X73564543Y-125721834D01*
X73964853Y-126690658D01*
X74705443Y-127432542D01*
X75673567Y-127834542D01*
X76721834Y-127835457D01*
X77690658Y-127435147D01*
X78432542Y-126694557D01*
X78834542Y-125726433D01*
X78835457Y-124678166D01*
X78435147Y-123709342D01*
X78411597Y-123685750D01*
X80015000Y-123685750D01*
X80015000Y-124526309D01*
X80111673Y-124759698D01*
X80290301Y-124938327D01*
X80523690Y-125035000D01*
X81214250Y-125035000D01*
X81373000Y-124876250D01*
X81373000Y-123527000D01*
X81627000Y-123527000D01*
X81627000Y-124876250D01*
X81785750Y-125035000D01*
X82476310Y-125035000D01*
X82709699Y-124938327D01*
X82888327Y-124759698D01*
X82985000Y-124526309D01*
X82985000Y-123685750D01*
X82872500Y-123573250D01*
X83765000Y-123573250D01*
X83765000Y-124038809D01*
X83861673Y-124272198D01*
X84040301Y-124450827D01*
X84273690Y-124547500D01*
X85114250Y-124547500D01*
X85273000Y-124388750D01*
X85273000Y-123414500D01*
X85527000Y-123414500D01*
X85527000Y-124388750D01*
X85685750Y-124547500D01*
X86526310Y-124547500D01*
X86759699Y-124450827D01*
X86938327Y-124272198D01*
X87035000Y-124038809D01*
X87035000Y-123573250D01*
X86876250Y-123414500D01*
X85527000Y-123414500D01*
X85273000Y-123414500D01*
X83923750Y-123414500D01*
X83765000Y-123573250D01*
X82872500Y-123573250D01*
X82826250Y-123527000D01*
X81627000Y-123527000D01*
X81373000Y-123527000D01*
X80173750Y-123527000D01*
X80015000Y-123685750D01*
X78411597Y-123685750D01*
X78012295Y-123285750D01*
X87765000Y-123285750D01*
X87765000Y-124126309D01*
X87861673Y-124359698D01*
X88040301Y-124538327D01*
X88273690Y-124635000D01*
X88914250Y-124635000D01*
X89073000Y-124476250D01*
X89073000Y-123127000D01*
X89327000Y-123127000D01*
X89327000Y-124476250D01*
X89485750Y-124635000D01*
X90126310Y-124635000D01*
X90359699Y-124538327D01*
X90538327Y-124359698D01*
X90635000Y-124126309D01*
X90635000Y-123285750D01*
X90476250Y-123127000D01*
X89327000Y-123127000D01*
X89073000Y-123127000D01*
X87923750Y-123127000D01*
X87765000Y-123285750D01*
X78012295Y-123285750D01*
X77694557Y-122967458D01*
X76726433Y-122565458D01*
X75678166Y-122564543D01*
X74709342Y-122964853D01*
X73967458Y-123705443D01*
X73565458Y-124673567D01*
X73564543Y-125721834D01*
X66127000Y-125721834D01*
X66127000Y-122273691D01*
X80015000Y-122273691D01*
X80015000Y-123114250D01*
X80173750Y-123273000D01*
X81373000Y-123273000D01*
X81373000Y-121923750D01*
X81627000Y-121923750D01*
X81627000Y-123273000D01*
X82826250Y-123273000D01*
X82985000Y-123114250D01*
X82985000Y-122536191D01*
X83765000Y-122536191D01*
X83765000Y-123001750D01*
X83923750Y-123160500D01*
X85273000Y-123160500D01*
X85273000Y-122186250D01*
X85527000Y-122186250D01*
X85527000Y-123160500D01*
X86876250Y-123160500D01*
X87035000Y-123001750D01*
X87035000Y-122536191D01*
X86938327Y-122302802D01*
X86759699Y-122124173D01*
X86526310Y-122027500D01*
X85685750Y-122027500D01*
X85527000Y-122186250D01*
X85273000Y-122186250D01*
X85114250Y-122027500D01*
X84273690Y-122027500D01*
X84040301Y-122124173D01*
X83861673Y-122302802D01*
X83765000Y-122536191D01*
X82985000Y-122536191D01*
X82985000Y-122273691D01*
X82888327Y-122040302D01*
X82721717Y-121873691D01*
X87765000Y-121873691D01*
X87765000Y-122714250D01*
X87923750Y-122873000D01*
X89073000Y-122873000D01*
X89073000Y-121523750D01*
X89327000Y-121523750D01*
X89327000Y-122873000D01*
X90476250Y-122873000D01*
X90635000Y-122714250D01*
X90635000Y-121873691D01*
X90538327Y-121640302D01*
X90359699Y-121461673D01*
X90126310Y-121365000D01*
X89485750Y-121365000D01*
X89327000Y-121523750D01*
X89073000Y-121523750D01*
X88914250Y-121365000D01*
X88273690Y-121365000D01*
X88040301Y-121461673D01*
X87861673Y-121640302D01*
X87765000Y-121873691D01*
X82721717Y-121873691D01*
X82709699Y-121861673D01*
X82476310Y-121765000D01*
X81785750Y-121765000D01*
X81627000Y-121923750D01*
X81373000Y-121923750D01*
X81214250Y-121765000D01*
X80523690Y-121765000D01*
X80290301Y-121861673D01*
X80111673Y-122040302D01*
X80015000Y-122273691D01*
X66127000Y-122273691D01*
X66127000Y-100126598D01*
X97600402Y-100026999D01*
X97645565Y-100018544D01*
X97688096Y-99991477D01*
X97716745Y-99949996D01*
X97726998Y-99900637D01*
X97730539Y-99194251D01*
X98868142Y-100331853D01*
X98868144Y-100331856D01*
X99199370Y-100553173D01*
X99203923Y-100556215D01*
X99600000Y-100635001D01*
X99600005Y-100635000D01*
X102182364Y-100635000D01*
X101926485Y-100740727D01*
X101043826Y-101621847D01*
X100565546Y-102773674D01*
X100564457Y-104020854D01*
X101040727Y-105173515D01*
X101921847Y-106056174D01*
X103073674Y-106534454D01*
X104320854Y-106535543D01*
X105473515Y-106059273D01*
X106356174Y-105178153D01*
X106834454Y-104026326D01*
X106835543Y-102779146D01*
X106419502Y-101772249D01*
X110816030Y-101772249D01*
X110816030Y-102062808D01*
X110912703Y-102296197D01*
X111091331Y-102474826D01*
X111324720Y-102571499D01*
X112415280Y-102571499D01*
X112574030Y-102412749D01*
X112574030Y-101613499D01*
X112828030Y-101613499D01*
X112828030Y-102412749D01*
X112986780Y-102571499D01*
X113875406Y-102571499D01*
X114008190Y-102626500D01*
X115098750Y-102626500D01*
X115257500Y-102467750D01*
X115257500Y-101668500D01*
X115511500Y-101668500D01*
X115511500Y-102467750D01*
X115670250Y-102626500D01*
X117698750Y-102626500D01*
X117857500Y-102467750D01*
X117857500Y-101668500D01*
X118111500Y-101668500D01*
X118111500Y-102467750D01*
X118270250Y-102626500D01*
X119360810Y-102626500D01*
X119594199Y-102529827D01*
X119772827Y-102351198D01*
X119869500Y-102117809D01*
X119869500Y-101827250D01*
X119710750Y-101668500D01*
X118111500Y-101668500D01*
X117857500Y-101668500D01*
X115511500Y-101668500D01*
X115257500Y-101668500D01*
X114482281Y-101668500D01*
X114427280Y-101613499D01*
X112828030Y-101613499D01*
X112574030Y-101613499D01*
X110974780Y-101613499D01*
X110816030Y-101772249D01*
X106419502Y-101772249D01*
X106359273Y-101626485D01*
X105644227Y-100910190D01*
X110816030Y-100910190D01*
X110816030Y-101200749D01*
X110974780Y-101359499D01*
X112574030Y-101359499D01*
X112574030Y-100560249D01*
X112828030Y-100560249D01*
X112828030Y-101359499D01*
X113603249Y-101359499D01*
X113658250Y-101414500D01*
X115257500Y-101414500D01*
X115257500Y-100615250D01*
X115511500Y-100615250D01*
X115511500Y-101414500D01*
X117857500Y-101414500D01*
X117857500Y-100615250D01*
X118111500Y-100615250D01*
X118111500Y-101414500D01*
X119710750Y-101414500D01*
X119869500Y-101255750D01*
X119869500Y-100965191D01*
X119772827Y-100731802D01*
X119594199Y-100553173D01*
X119360810Y-100456500D01*
X118270250Y-100456500D01*
X118111500Y-100615250D01*
X117857500Y-100615250D01*
X117698750Y-100456500D01*
X115670250Y-100456500D01*
X115511500Y-100615250D01*
X115257500Y-100615250D01*
X115098750Y-100456500D01*
X114210124Y-100456500D01*
X114077340Y-100401499D01*
X112986780Y-100401499D01*
X112828030Y-100560249D01*
X112574030Y-100560249D01*
X112415280Y-100401499D01*
X111324720Y-100401499D01*
X111091331Y-100498172D01*
X110912703Y-100676801D01*
X110816030Y-100910190D01*
X105644227Y-100910190D01*
X105478153Y-100743826D01*
X105216071Y-100635000D01*
X107699995Y-100635000D01*
X107700000Y-100635001D01*
X107905393Y-100594145D01*
X108123405Y-100684672D01*
X108873305Y-100685326D01*
X109566372Y-100398957D01*
X110097093Y-99869161D01*
X110384672Y-99176595D01*
X110385326Y-98426695D01*
X110098957Y-97733628D01*
X110015483Y-97650008D01*
X111421749Y-96243742D01*
X111637147Y-96203212D01*
X111853271Y-96064140D01*
X111953270Y-95917787D01*
X111953270Y-96550050D01*
X111997548Y-96785367D01*
X112136620Y-97001491D01*
X112348820Y-97146481D01*
X112600710Y-97197490D01*
X113400810Y-97197490D01*
X113467189Y-97185000D01*
X113821288Y-97185000D01*
X114169611Y-97533323D01*
X113951030Y-97489059D01*
X111451030Y-97489059D01*
X111215713Y-97533337D01*
X110999589Y-97672409D01*
X110854599Y-97884609D01*
X110803590Y-98136499D01*
X110803590Y-99036499D01*
X110847868Y-99271816D01*
X110986940Y-99487940D01*
X111199140Y-99632930D01*
X111451030Y-99683939D01*
X113876768Y-99683939D01*
X113882610Y-99687931D01*
X114134500Y-99738940D01*
X116634500Y-99738940D01*
X116686336Y-99729186D01*
X116734500Y-99738940D01*
X119234500Y-99738940D01*
X119469817Y-99694662D01*
X119685941Y-99555590D01*
X119830931Y-99343390D01*
X119881940Y-99091500D01*
X119881940Y-98191500D01*
X119837662Y-97956183D01*
X119698590Y-97740059D01*
X119486390Y-97595069D01*
X119234500Y-97544060D01*
X116734500Y-97544060D01*
X116682664Y-97553814D01*
X116634500Y-97544060D01*
X116419500Y-97544060D01*
X116419500Y-97284500D01*
X116345198Y-96910959D01*
X116340715Y-96888422D01*
X116250849Y-96753929D01*
X116116356Y-96552644D01*
X116116353Y-96552642D01*
X114981856Y-95418144D01*
X114646077Y-95193785D01*
X114250000Y-95114999D01*
X114249995Y-95115000D01*
X113850915Y-95115000D01*
X113852251Y-95114140D01*
X113997241Y-94901940D01*
X114048250Y-94650050D01*
X114048250Y-93849950D01*
X114003972Y-93614633D01*
X113864900Y-93398509D01*
X113652700Y-93253519D01*
X113421088Y-93206616D01*
X112682616Y-92468144D01*
X112346837Y-92243785D01*
X111950760Y-92164999D01*
X111950755Y-92165000D01*
X110374152Y-92165000D01*
X110397440Y-92050000D01*
X110397440Y-91935000D01*
X116529868Y-91935000D01*
X118797434Y-94202566D01*
X119165654Y-94448603D01*
X119600000Y-94535000D01*
X125900000Y-94535000D01*
X126334346Y-94448603D01*
X126702566Y-94202566D01*
X128220375Y-92684757D01*
X128873305Y-92685326D01*
X129566372Y-92398957D01*
X130097093Y-91869161D01*
X130384672Y-91176595D01*
X130385245Y-90519888D01*
X132802566Y-88102567D01*
X133048603Y-87734346D01*
X133101621Y-87467806D01*
X133135000Y-87300000D01*
X133135000Y-83720854D01*
X134564457Y-83720854D01*
X135040727Y-84873515D01*
X135921847Y-85756174D01*
X137073674Y-86234454D01*
X138320854Y-86235543D01*
X139473515Y-85759273D01*
X140356174Y-84878153D01*
X140834454Y-83726326D01*
X140835543Y-82479146D01*
X140359273Y-81326485D01*
X139478153Y-80443826D01*
X138326326Y-79965546D01*
X137079146Y-79964457D01*
X135926485Y-80440727D01*
X135043826Y-81321847D01*
X134565546Y-82473674D01*
X134564457Y-83720854D01*
X133135000Y-83720854D01*
X133135000Y-74100000D01*
X133048603Y-73665654D01*
X132802566Y-73297434D01*
X130682566Y-71177434D01*
X130543235Y-71084336D01*
X130314346Y-70931397D01*
X129880000Y-70845000D01*
X125040132Y-70845000D01*
X129250000Y-66635132D01*
X129617434Y-67002566D01*
X129985654Y-67248603D01*
X130420000Y-67335000D01*
X141479868Y-67335000D01*
X144959868Y-70815000D01*
X142150000Y-70815000D01*
X141715654Y-70901397D01*
X141441868Y-71084335D01*
X141347434Y-71147434D01*
X137929868Y-74565000D01*
X137641100Y-74565000D01*
X137611020Y-74492200D01*
X137035000Y-73915174D01*
X137035000Y-71872440D01*
X137725000Y-71872440D01*
X137960317Y-71828162D01*
X138176441Y-71689090D01*
X138321431Y-71476890D01*
X138372440Y-71225000D01*
X138372440Y-69175000D01*
X138328162Y-68939683D01*
X138189090Y-68723559D01*
X137976890Y-68578569D01*
X137725000Y-68527560D01*
X134075000Y-68527560D01*
X133839683Y-68571838D01*
X133623559Y-68710910D01*
X133478569Y-68923110D01*
X133427560Y-69175000D01*
X133427560Y-71225000D01*
X133471838Y-71460317D01*
X133610910Y-71676441D01*
X133823110Y-71821431D01*
X134075000Y-71872440D01*
X134765000Y-71872440D01*
X134765000Y-73817580D01*
X134592200Y-73888980D01*
X133991091Y-74489041D01*
X133665372Y-75273459D01*
X133664630Y-76122815D01*
X133988980Y-76907800D01*
X134589041Y-77508909D01*
X135373459Y-77834628D01*
X136222815Y-77835370D01*
X137007800Y-77511020D01*
X137056887Y-77462019D01*
X141415000Y-81820132D01*
X141415000Y-86952560D01*
X140650000Y-86952560D01*
X140414683Y-86996838D01*
X140198559Y-87135910D01*
X140053569Y-87348110D01*
X140002560Y-87600000D01*
X140002560Y-88465000D01*
X138600000Y-88465000D01*
X138165654Y-88551397D01*
X137864747Y-88752457D01*
X137797434Y-88797434D01*
X136929868Y-89665000D01*
X135030449Y-89665000D01*
X134569161Y-89202907D01*
X133876595Y-88915328D01*
X133126695Y-88914674D01*
X132433628Y-89201043D01*
X131902907Y-89730839D01*
X131615328Y-90423405D01*
X131614755Y-91080113D01*
X128129858Y-94565010D01*
X122649990Y-94565010D01*
X122215645Y-94651406D01*
X121847424Y-94897443D01*
X120247434Y-96497434D01*
X120001397Y-96865654D01*
X119915000Y-97300000D01*
X119915000Y-102829868D01*
X118095434Y-104649434D01*
X117849397Y-105017654D01*
X117763000Y-105452000D01*
X117763000Y-106720497D01*
X117484000Y-106665000D01*
X89000000Y-106665000D01*
X88565654Y-106751397D01*
X88233315Y-106973459D01*
X88197434Y-106997434D01*
X86997434Y-108197434D01*
X86919427Y-108314180D01*
X83847540Y-108314180D01*
X83847540Y-107649590D01*
X83803262Y-107414273D01*
X83664190Y-107198149D01*
X83451990Y-107053159D01*
X83200100Y-107002150D01*
X81599900Y-107002150D01*
X81364583Y-107046428D01*
X81148459Y-107185500D01*
X81003469Y-107397700D01*
X80952460Y-107649590D01*
X80952460Y-111248770D01*
X80996738Y-111484087D01*
X81135810Y-111700211D01*
X81348010Y-111845201D01*
X81599900Y-111896210D01*
X83200100Y-111896210D01*
X83435417Y-111851932D01*
X83651541Y-111712860D01*
X83796531Y-111500660D01*
X83847540Y-111248770D01*
X83847540Y-110584180D01*
X87379048Y-110584180D01*
X87832388Y-111037520D01*
X87828569Y-111043110D01*
X87777560Y-111295000D01*
X87777560Y-111895000D01*
X87821838Y-112130317D01*
X87885678Y-112229528D01*
X87828569Y-112313110D01*
X87777560Y-112565000D01*
X87777560Y-113100000D01*
X83837900Y-113100000D01*
X83803262Y-112915913D01*
X83664190Y-112699789D01*
X83451990Y-112554799D01*
X83200100Y-112503790D01*
X81599900Y-112503790D01*
X81364583Y-112548068D01*
X81148459Y-112687140D01*
X81003469Y-112899340D01*
X80952460Y-113151230D01*
X80952460Y-116750410D01*
X80996738Y-116985727D01*
X81135810Y-117201851D01*
X81348010Y-117346841D01*
X81365000Y-117350282D01*
X81365000Y-117752560D01*
X80650000Y-117752560D01*
X80414683Y-117796838D01*
X80198559Y-117935910D01*
X80053569Y-118148110D01*
X80002560Y-118400000D01*
X80002560Y-120400000D01*
X80046838Y-120635317D01*
X80185910Y-120851441D01*
X80398110Y-120996431D01*
X80650000Y-121047440D01*
X82350000Y-121047440D01*
X82585317Y-121003162D01*
X82801441Y-120864090D01*
X82946431Y-120651890D01*
X82990352Y-120435000D01*
X83768554Y-120435000D01*
X83796838Y-120585317D01*
X83935910Y-120801441D01*
X84148110Y-120946431D01*
X84400000Y-120997440D01*
X86400000Y-120997440D01*
X86635317Y-120953162D01*
X86851441Y-120814090D01*
X86996431Y-120601890D01*
X87047440Y-120350000D01*
X87047440Y-119100000D01*
X87003162Y-118864683D01*
X86864090Y-118648559D01*
X86651890Y-118503569D01*
X86400000Y-118452560D01*
X85484210Y-118452560D01*
X85471077Y-118443785D01*
X85075000Y-118364999D01*
X85074995Y-118365000D01*
X83435000Y-118365000D01*
X83435000Y-117353650D01*
X83435417Y-117353572D01*
X83651541Y-117214500D01*
X83796531Y-117002300D01*
X83847540Y-116750410D01*
X83847540Y-115170000D01*
X87777560Y-115170000D01*
X87777560Y-115705000D01*
X87821838Y-115940317D01*
X87960910Y-116156441D01*
X88165000Y-116295890D01*
X88165000Y-117396778D01*
X88164683Y-117396838D01*
X87948559Y-117535910D01*
X87803569Y-117748110D01*
X87752560Y-118000000D01*
X87752560Y-120000000D01*
X87796838Y-120235317D01*
X87935910Y-120451441D01*
X88148110Y-120596431D01*
X88400000Y-120647440D01*
X90000000Y-120647440D01*
X90235317Y-120603162D01*
X90451441Y-120464090D01*
X90596431Y-120251890D01*
X90647440Y-120000000D01*
X90647440Y-118000000D01*
X90603162Y-117764683D01*
X90464090Y-117548559D01*
X90251890Y-117403569D01*
X90235000Y-117400149D01*
X90235000Y-116292279D01*
X90426441Y-116169090D01*
X90571431Y-115956890D01*
X90622440Y-115705000D01*
X90622440Y-115158575D01*
X90961077Y-115091215D01*
X90967616Y-115086846D01*
X90964999Y-115100000D01*
X90965000Y-115100005D01*
X90965000Y-118899995D01*
X90964999Y-118900000D01*
X91043785Y-119296077D01*
X91268144Y-119631856D01*
X92268142Y-120631853D01*
X92268144Y-120631856D01*
X92596778Y-120851441D01*
X92603923Y-120856215D01*
X92675214Y-120870396D01*
X92696838Y-120985317D01*
X92835910Y-121201441D01*
X93048110Y-121346431D01*
X93265000Y-121390352D01*
X93265000Y-122099995D01*
X93264999Y-122100000D01*
X93343785Y-122496077D01*
X93568144Y-122831856D01*
X95668142Y-124931853D01*
X95668144Y-124931856D01*
X95776001Y-125003923D01*
X96003922Y-125156215D01*
X96400000Y-125235000D01*
X106571288Y-125235000D01*
X112268142Y-130931853D01*
X112268144Y-130931856D01*
X112454262Y-131056215D01*
X112603922Y-131156215D01*
X113000000Y-131235000D01*
X138399995Y-131235000D01*
X138400000Y-131235001D01*
X138796077Y-131156215D01*
X138827828Y-131135000D01*
X139529442Y-131135000D01*
X139571838Y-131360317D01*
X139710910Y-131576441D01*
X139923110Y-131721431D01*
X140175000Y-131772440D01*
X143825000Y-131772440D01*
X144060317Y-131728162D01*
X144276441Y-131589090D01*
X144421431Y-131376890D01*
X144472440Y-131125000D01*
X144472440Y-129075000D01*
X144428162Y-128839683D01*
X144289090Y-128623559D01*
X144076890Y-128478569D01*
X143825000Y-128427560D01*
X143035000Y-128427560D01*
X143035000Y-126847440D01*
X143050000Y-126847440D01*
X143285317Y-126803162D01*
X143501441Y-126664090D01*
X143642952Y-126456981D01*
X143735910Y-126601441D01*
X143948110Y-126746431D01*
X144200000Y-126797440D01*
X145900000Y-126797440D01*
X146135317Y-126753162D01*
X146351441Y-126614090D01*
X146496431Y-126401890D01*
X146547440Y-126150000D01*
X146547440Y-126035000D01*
X147568811Y-126035000D01*
X147580838Y-126098917D01*
X147719910Y-126315041D01*
X147932110Y-126460031D01*
X148184000Y-126511040D01*
X150216000Y-126511040D01*
X150451317Y-126466762D01*
X150667441Y-126327690D01*
X150812431Y-126115490D01*
X150863440Y-125863600D01*
X150863440Y-124136400D01*
X150819162Y-123901083D01*
X150680090Y-123684959D01*
X150467890Y-123539969D01*
X150426561Y-123531600D01*
X150444415Y-123519670D01*
X150769271Y-123033489D01*
X150883345Y-122460000D01*
X150769271Y-121886511D01*
X150444415Y-121400330D01*
X150129634Y-121190000D01*
X150331676Y-121055000D01*
X152268324Y-121055000D01*
X152470366Y-121190000D01*
X152155585Y-121400330D01*
X151830729Y-121886511D01*
X151716655Y-122460000D01*
X151830729Y-123033489D01*
X152155585Y-123519670D01*
X152169913Y-123529243D01*
X152148683Y-123533238D01*
X151932559Y-123672310D01*
X151787569Y-123884510D01*
X151736560Y-124136400D01*
X151736560Y-125863600D01*
X151780838Y-126098917D01*
X151919910Y-126315041D01*
X152132110Y-126460031D01*
X152384000Y-126511040D01*
X154416000Y-126511040D01*
X154651317Y-126466762D01*
X154867441Y-126327690D01*
X155012431Y-126115490D01*
X155028731Y-126035000D01*
X156285025Y-126035000D01*
X156448110Y-126146431D01*
X156700000Y-126197440D01*
X158400000Y-126197440D01*
X158635317Y-126153162D01*
X158851441Y-126014090D01*
X158996431Y-125801890D01*
X159047440Y-125550000D01*
X159047440Y-123550000D01*
X159003162Y-123314683D01*
X158864090Y-123098559D01*
X158651890Y-122953569D01*
X158400000Y-122902560D01*
X156700000Y-122902560D01*
X156464683Y-122946838D01*
X156248559Y-123085910D01*
X156103569Y-123298110D01*
X156052560Y-123550000D01*
X156052560Y-123965000D01*
X155031189Y-123965000D01*
X155019162Y-123901083D01*
X154880090Y-123684959D01*
X154667890Y-123539969D01*
X154626561Y-123531600D01*
X154644415Y-123519670D01*
X154969271Y-123033489D01*
X155083345Y-122460000D01*
X154969271Y-121886511D01*
X154644415Y-121400330D01*
X154329634Y-121190000D01*
X154644415Y-120979670D01*
X154740579Y-120835750D01*
X156065000Y-120835750D01*
X156065000Y-121676309D01*
X156161673Y-121909698D01*
X156340301Y-122088327D01*
X156573690Y-122185000D01*
X157264250Y-122185000D01*
X157423000Y-122026250D01*
X157423000Y-120677000D01*
X157677000Y-120677000D01*
X157677000Y-122026250D01*
X157835750Y-122185000D01*
X158526310Y-122185000D01*
X158759699Y-122088327D01*
X158938327Y-121909698D01*
X159035000Y-121676309D01*
X159035000Y-120835750D01*
X158876250Y-120677000D01*
X157677000Y-120677000D01*
X157423000Y-120677000D01*
X156223750Y-120677000D01*
X156065000Y-120835750D01*
X154740579Y-120835750D01*
X154969271Y-120493489D01*
X155083345Y-119920000D01*
X154984624Y-119423691D01*
X156065000Y-119423691D01*
X156065000Y-120264250D01*
X156223750Y-120423000D01*
X157423000Y-120423000D01*
X157423000Y-119073750D01*
X157677000Y-119073750D01*
X157677000Y-120423000D01*
X158876250Y-120423000D01*
X159035000Y-120264250D01*
X159035000Y-119423691D01*
X158938327Y-119190302D01*
X158759699Y-119011673D01*
X158526310Y-118915000D01*
X157835750Y-118915000D01*
X157677000Y-119073750D01*
X157423000Y-119073750D01*
X157264250Y-118915000D01*
X156573690Y-118915000D01*
X156340301Y-119011673D01*
X156161673Y-119190302D01*
X156065000Y-119423691D01*
X154984624Y-119423691D01*
X154969271Y-119346511D01*
X154644415Y-118860330D01*
X154535000Y-118787221D01*
X154535000Y-116820132D01*
X158370132Y-112985000D01*
X167350000Y-112985000D01*
X167515110Y-112952157D01*
X162045868Y-118421400D01*
X161815255Y-118421400D01*
X161241766Y-118535474D01*
X160755585Y-118860330D01*
X160430729Y-119346511D01*
X160316655Y-119920000D01*
X160430729Y-120493489D01*
X160755585Y-120979670D01*
X161070366Y-121190000D01*
X160755585Y-121400330D01*
X160430729Y-121886511D01*
X160316655Y-122460000D01*
X160430729Y-123033489D01*
X160755585Y-123519670D01*
X160769913Y-123529243D01*
X160748683Y-123533238D01*
X160532559Y-123672310D01*
X160387569Y-123884510D01*
X160336560Y-124136400D01*
X160336560Y-125863600D01*
X160380838Y-126098917D01*
X160519910Y-126315041D01*
X160732110Y-126460031D01*
X160984000Y-126511040D01*
X163016000Y-126511040D01*
X163251317Y-126466762D01*
X163467441Y-126327690D01*
X163612431Y-126115490D01*
X163663440Y-125863600D01*
X163663440Y-125744161D01*
X163681856Y-125731856D01*
X165467469Y-123946243D01*
X165165458Y-124673567D01*
X165164543Y-125721834D01*
X165564853Y-126690658D01*
X166305443Y-127432542D01*
X167273567Y-127834542D01*
X168321834Y-127835457D01*
X169290658Y-127435147D01*
X170032542Y-126694557D01*
X170434542Y-125726433D01*
X170435457Y-124678166D01*
X170035147Y-123709342D01*
X169294557Y-122967458D01*
X168326433Y-122565458D01*
X167278166Y-122564543D01*
X166517192Y-122878971D01*
X166706215Y-122596077D01*
X166785001Y-122200000D01*
X166785000Y-122199995D01*
X166785000Y-121147440D01*
X167400000Y-121147440D01*
X167635317Y-121103162D01*
X167851441Y-120964090D01*
X167996431Y-120751890D01*
X168047440Y-120500000D01*
X168047440Y-119935750D01*
X168765000Y-119935750D01*
X168765000Y-120626310D01*
X168861673Y-120859699D01*
X169040302Y-121038327D01*
X169273691Y-121135000D01*
X170114250Y-121135000D01*
X170273000Y-120976250D01*
X170273000Y-119777000D01*
X170527000Y-119777000D01*
X170527000Y-120976250D01*
X170685750Y-121135000D01*
X171526309Y-121135000D01*
X171759698Y-121038327D01*
X171938327Y-120859699D01*
X172035000Y-120626310D01*
X172035000Y-119935750D01*
X171876250Y-119777000D01*
X170527000Y-119777000D01*
X170273000Y-119777000D01*
X168923750Y-119777000D01*
X168765000Y-119935750D01*
X168047440Y-119935750D01*
X168047440Y-118800000D01*
X168023674Y-118673690D01*
X168765000Y-118673690D01*
X168765000Y-119364250D01*
X168923750Y-119523000D01*
X170273000Y-119523000D01*
X170273000Y-118323750D01*
X170527000Y-118323750D01*
X170527000Y-119523000D01*
X171876250Y-119523000D01*
X172035000Y-119364250D01*
X172035000Y-118673690D01*
X171938327Y-118440301D01*
X171759698Y-118261673D01*
X171526309Y-118165000D01*
X170685750Y-118165000D01*
X170527000Y-118323750D01*
X170273000Y-118323750D01*
X170114250Y-118165000D01*
X169273691Y-118165000D01*
X169040302Y-118261673D01*
X168861673Y-118440301D01*
X168765000Y-118673690D01*
X168023674Y-118673690D01*
X168003162Y-118564683D01*
X167864090Y-118348559D01*
X167651890Y-118203569D01*
X167400000Y-118152560D01*
X165524972Y-118152560D01*
X177452567Y-106224966D01*
X177698604Y-105856745D01*
X177785000Y-105422400D01*
X177785000Y-91480370D01*
X177698603Y-91046024D01*
X177452566Y-90677804D01*
X173063445Y-86288683D01*
X173173674Y-86334454D01*
X174420854Y-86335543D01*
X175573515Y-85859273D01*
X176456174Y-84978153D01*
X176934454Y-83826326D01*
X176935543Y-82579146D01*
X176459273Y-81426485D01*
X175578153Y-80543826D01*
X174426326Y-80065546D01*
X173179146Y-80064457D01*
X172026485Y-80540727D01*
X171143826Y-81421847D01*
X170785000Y-82285997D01*
X170785000Y-81358622D01*
X173602576Y-78541046D01*
X173632113Y-78496841D01*
X173848613Y-78172826D01*
X173935010Y-77738480D01*
X173935010Y-73811519D01*
X173848613Y-73377173D01*
X173602576Y-73008953D01*
X170441047Y-69847424D01*
X170436865Y-69844630D01*
X170072827Y-69601387D01*
X169638481Y-69514990D01*
X146870122Y-69514990D01*
X144676966Y-67321834D01*
X165164543Y-67321834D01*
X165564853Y-68290658D01*
X166305443Y-69032542D01*
X167273567Y-69434542D01*
X168321834Y-69435457D01*
X169290658Y-69035147D01*
X170032542Y-68294557D01*
X170434542Y-67326433D01*
X170435457Y-66278166D01*
X170035147Y-65309342D01*
X169294557Y-64567458D01*
X168326433Y-64165458D01*
X167278166Y-64164543D01*
X166309342Y-64564853D01*
X165567458Y-65305443D01*
X165165458Y-66273567D01*
X165164543Y-67321834D01*
X144676966Y-67321834D01*
X142752566Y-65397434D01*
X142614892Y-65305443D01*
X142384346Y-65151397D01*
X141950000Y-65065000D01*
X130890132Y-65065000D01*
X130385000Y-64559868D01*
X130385000Y-63672440D01*
X131075000Y-63672440D01*
X131310317Y-63628162D01*
X131526441Y-63489090D01*
X131671431Y-63276890D01*
X131722440Y-63025000D01*
X131722440Y-62485750D01*
X137440000Y-62485750D01*
X137440000Y-63351310D01*
X137536673Y-63584699D01*
X137715302Y-63763327D01*
X137948691Y-63860000D01*
X139614250Y-63860000D01*
X139773000Y-63701250D01*
X139773000Y-62327000D01*
X140027000Y-62327000D01*
X140027000Y-63701250D01*
X140185750Y-63860000D01*
X141851309Y-63860000D01*
X142084698Y-63763327D01*
X142263327Y-63584699D01*
X142360000Y-63351310D01*
X142360000Y-62485750D01*
X142201250Y-62327000D01*
X140027000Y-62327000D01*
X139773000Y-62327000D01*
X137598750Y-62327000D01*
X137440000Y-62485750D01*
X131722440Y-62485750D01*
X131722440Y-61048690D01*
X137440000Y-61048690D01*
X137440000Y-61914250D01*
X137598750Y-62073000D01*
X139773000Y-62073000D01*
X139773000Y-60698750D01*
X140027000Y-60698750D01*
X140027000Y-62073000D01*
X142201250Y-62073000D01*
X142360000Y-61914250D01*
X142360000Y-61048690D01*
X142263327Y-60815301D01*
X142084698Y-60636673D01*
X141851309Y-60540000D01*
X140185750Y-60540000D01*
X140027000Y-60698750D01*
X139773000Y-60698750D01*
X139614250Y-60540000D01*
X137948691Y-60540000D01*
X137715302Y-60636673D01*
X137536673Y-60815301D01*
X137440000Y-61048690D01*
X131722440Y-61048690D01*
X131722440Y-60975000D01*
X131678162Y-60739683D01*
X131539090Y-60523559D01*
X131326890Y-60378569D01*
X131075000Y-60327560D01*
X127425000Y-60327560D01*
X127189683Y-60371838D01*
X126973559Y-60510910D01*
X126828569Y-60723110D01*
X126777560Y-60975000D01*
X126777560Y-63025000D01*
X126821838Y-63260317D01*
X126960910Y-63476441D01*
X127173110Y-63621431D01*
X127425000Y-63672440D01*
X128115000Y-63672440D01*
X128115000Y-64559868D01*
X122799289Y-69875579D01*
X122726541Y-69845372D01*
X121877185Y-69844630D01*
X121092200Y-70168980D01*
X120491091Y-70769041D01*
X120165372Y-71553459D01*
X120164630Y-72402815D01*
X120488980Y-73187800D01*
X121089041Y-73788909D01*
X121873459Y-74114628D01*
X122722815Y-74115370D01*
X123507800Y-73791020D01*
X124108909Y-73190959D01*
X124140450Y-73115000D01*
X129409868Y-73115000D01*
X130865000Y-74570132D01*
X130865000Y-82605000D01*
X129728730Y-82605000D01*
X129767441Y-82580090D01*
X129912431Y-82367890D01*
X129963440Y-82116000D01*
X129963440Y-80084000D01*
X129919162Y-79848683D01*
X129780090Y-79632559D01*
X129567890Y-79487569D01*
X129316000Y-79436560D01*
X128835000Y-79436560D01*
X128835000Y-77582420D01*
X129007800Y-77511020D01*
X129608909Y-76910959D01*
X129934628Y-76126541D01*
X129935370Y-75277185D01*
X129611020Y-74492200D01*
X129010959Y-73891091D01*
X128226541Y-73565372D01*
X127377185Y-73564630D01*
X126592200Y-73888980D01*
X125991091Y-74489041D01*
X125665372Y-75273459D01*
X125664630Y-76122815D01*
X125988980Y-76907800D01*
X126589041Y-77508909D01*
X126765000Y-77581974D01*
X126765000Y-79718786D01*
X126687569Y-79832110D01*
X126637907Y-80077350D01*
X126303923Y-80143785D01*
X125968144Y-80368144D01*
X125968142Y-80368147D01*
X124368144Y-81968144D01*
X124143785Y-82303923D01*
X124064999Y-82700000D01*
X124065000Y-82700005D01*
X124065000Y-85671289D01*
X122771288Y-86965000D01*
X115928711Y-86965000D01*
X113736527Y-84772815D01*
X119164630Y-84772815D01*
X119488980Y-85557800D01*
X120089041Y-86158909D01*
X120873459Y-86484628D01*
X121722815Y-86485370D01*
X122507800Y-86161020D01*
X123108909Y-85560959D01*
X123434628Y-84776541D01*
X123435370Y-83927185D01*
X123111020Y-83142200D01*
X122510959Y-82541091D01*
X121726541Y-82215372D01*
X120877185Y-82214630D01*
X120092200Y-82538980D01*
X119491091Y-83139041D01*
X119165372Y-83923459D01*
X119164630Y-84772815D01*
X113736527Y-84772815D01*
X112835000Y-83871288D01*
X112835000Y-80733970D01*
X120965635Y-80733970D01*
X121125418Y-81052739D01*
X121916187Y-81362723D01*
X122765387Y-81346497D01*
X123474582Y-81052739D01*
X123634365Y-80733970D01*
X122300000Y-79399605D01*
X120965635Y-80733970D01*
X112835000Y-80733970D01*
X112835000Y-79701345D01*
X112835001Y-79701340D01*
X112835000Y-79701335D01*
X112835000Y-79379432D01*
X113378244Y-78836187D01*
X120157277Y-78836187D01*
X120173503Y-79685387D01*
X120467261Y-80394582D01*
X120786030Y-80554365D01*
X122120395Y-79220000D01*
X122479605Y-79220000D01*
X123813970Y-80554365D01*
X124132739Y-80394582D01*
X124442723Y-79603813D01*
X124426497Y-78754613D01*
X124132739Y-78045418D01*
X123813970Y-77885635D01*
X122479605Y-79220000D01*
X122120395Y-79220000D01*
X120786030Y-77885635D01*
X120467261Y-78045418D01*
X120157277Y-78836187D01*
X113378244Y-78836187D01*
X114552460Y-77661971D01*
X114552460Y-78150410D01*
X114596738Y-78385727D01*
X114735810Y-78601851D01*
X114948010Y-78746841D01*
X115199900Y-78797850D01*
X116800100Y-78797850D01*
X117035417Y-78753572D01*
X117251541Y-78614500D01*
X117396531Y-78402300D01*
X117447540Y-78150410D01*
X117447540Y-77706030D01*
X120965635Y-77706030D01*
X122300000Y-79040395D01*
X123634365Y-77706030D01*
X123474582Y-77387261D01*
X122683813Y-77077277D01*
X121834613Y-77093503D01*
X121125418Y-77387261D01*
X120965635Y-77706030D01*
X117447540Y-77706030D01*
X117447540Y-74551230D01*
X117403262Y-74315913D01*
X117264190Y-74099789D01*
X117051990Y-73954799D01*
X116800100Y-73903790D01*
X115199900Y-73903790D01*
X114964583Y-73948068D01*
X114748459Y-74087140D01*
X114603469Y-74299340D01*
X114552460Y-74551230D01*
X114552460Y-75315820D01*
X114399905Y-75315820D01*
X114399900Y-75315819D01*
X114003823Y-75394605D01*
X113668044Y-75618964D01*
X113668042Y-75618967D01*
X111424690Y-77862318D01*
X109876250Y-76313878D01*
X109951541Y-76265430D01*
X110096531Y-76053230D01*
X110147540Y-75801340D01*
X110147540Y-73200380D01*
X110103262Y-72965063D01*
X109964190Y-72748939D01*
X109895643Y-72702103D01*
X110038427Y-72559318D01*
X110135100Y-72325929D01*
X110135100Y-71184890D01*
X110085140Y-71134930D01*
X114564900Y-71134930D01*
X114564900Y-72775079D01*
X114661573Y-73008468D01*
X114840201Y-73187097D01*
X115073590Y-73283770D01*
X115714250Y-73283770D01*
X115873000Y-73125020D01*
X115873000Y-70976180D01*
X116127000Y-70976180D01*
X116127000Y-73125020D01*
X116285750Y-73283770D01*
X116926410Y-73283770D01*
X117159799Y-73187097D01*
X117338427Y-73008468D01*
X117435100Y-72775079D01*
X117435100Y-71134930D01*
X117276350Y-70976180D01*
X116127000Y-70976180D01*
X115873000Y-70976180D01*
X114723650Y-70976180D01*
X114564900Y-71134930D01*
X110085140Y-71134930D01*
X109976350Y-71026140D01*
X108827000Y-71026140D01*
X108827000Y-71046140D01*
X108573000Y-71046140D01*
X108573000Y-71026140D01*
X107423650Y-71026140D01*
X107264900Y-71184890D01*
X107264900Y-72325929D01*
X107361573Y-72559318D01*
X107503273Y-72701018D01*
X107448459Y-72736290D01*
X107303469Y-72948490D01*
X107252460Y-73200380D01*
X107252460Y-75801340D01*
X107296738Y-76036657D01*
X107435810Y-76252781D01*
X107648010Y-76397771D01*
X107665000Y-76401212D01*
X107665000Y-76601335D01*
X107664999Y-76601340D01*
X107743785Y-76997417D01*
X107968144Y-77333196D01*
X110765000Y-80130051D01*
X110765000Y-84299995D01*
X110764999Y-84300000D01*
X110843785Y-84696077D01*
X111068144Y-85031856D01*
X114768142Y-88731853D01*
X114768144Y-88731856D01*
X114897284Y-88818144D01*
X115103922Y-88956215D01*
X115500000Y-89035001D01*
X115500005Y-89035000D01*
X122835483Y-89035000D01*
X122433628Y-89201043D01*
X121902907Y-89730839D01*
X121615328Y-90423405D01*
X121614674Y-91173305D01*
X121901043Y-91866372D01*
X122298976Y-92265000D01*
X120070132Y-92265000D01*
X117802566Y-89997434D01*
X117678382Y-89914457D01*
X117434346Y-89751397D01*
X117000000Y-89665000D01*
X110397440Y-89665000D01*
X110397440Y-89550000D01*
X110353162Y-89314683D01*
X110214090Y-89098559D01*
X110001890Y-88953569D01*
X109750000Y-88902560D01*
X108207692Y-88902560D01*
X106898180Y-87593048D01*
X106898180Y-84750270D01*
X106853902Y-84514953D01*
X106714830Y-84298829D01*
X106502630Y-84153839D01*
X106250740Y-84102830D01*
X106136060Y-84102830D01*
X106136060Y-80001370D01*
X106049663Y-79567024D01*
X105803626Y-79198804D01*
X103547540Y-76942718D01*
X103547540Y-74301230D01*
X103503262Y-74065913D01*
X103364190Y-73849789D01*
X103151990Y-73704799D01*
X102900100Y-73653790D01*
X101299900Y-73653790D01*
X101064583Y-73698068D01*
X100848459Y-73837140D01*
X100703469Y-74049340D01*
X100652460Y-74301230D01*
X100652460Y-77900410D01*
X100696738Y-78135727D01*
X100835810Y-78351851D01*
X101048010Y-78496841D01*
X101299900Y-78547850D01*
X101942408Y-78547850D01*
X103866060Y-80471502D01*
X103866060Y-84102830D01*
X103751380Y-84102830D01*
X103516063Y-84147108D01*
X103299939Y-84286180D01*
X103154949Y-84498380D01*
X103103940Y-84750270D01*
X103103940Y-86691988D01*
X100797434Y-88998494D01*
X100551397Y-89366714D01*
X100465000Y-89801060D01*
X100465000Y-92849284D01*
X100400222Y-92892567D01*
X100042330Y-93428190D01*
X99916655Y-94060000D01*
X100042330Y-94691810D01*
X100269499Y-95031792D01*
X100132559Y-95119910D01*
X99987569Y-95332110D01*
X99936560Y-95584000D01*
X99936560Y-97616000D01*
X99980838Y-97851317D01*
X100119910Y-98067441D01*
X100332110Y-98212431D01*
X100584000Y-98263440D01*
X102616000Y-98263440D01*
X102851317Y-98219162D01*
X103067441Y-98080090D01*
X103212431Y-97867890D01*
X103259592Y-97635000D01*
X103702560Y-97635000D01*
X103702560Y-98200000D01*
X103746838Y-98435317D01*
X103830287Y-98565000D01*
X100028711Y-98565000D01*
X99233940Y-97770228D01*
X99233940Y-88697170D01*
X99448620Y-88697170D01*
X99683937Y-88652892D01*
X99900061Y-88513820D01*
X100045051Y-88301620D01*
X100096060Y-88049730D01*
X100096060Y-84750270D01*
X100051782Y-84514953D01*
X99912710Y-84298829D01*
X99700510Y-84153839D01*
X99448620Y-84102830D01*
X97806185Y-84102830D01*
X97872440Y-70884930D01*
X100664900Y-70884930D01*
X100664900Y-72525079D01*
X100761573Y-72758468D01*
X100940201Y-72937097D01*
X101173590Y-73033770D01*
X101814250Y-73033770D01*
X101973000Y-72875020D01*
X101973000Y-70726180D01*
X102227000Y-70726180D01*
X102227000Y-72875020D01*
X102385750Y-73033770D01*
X103026410Y-73033770D01*
X103259799Y-72937097D01*
X103438427Y-72758468D01*
X103535100Y-72525079D01*
X103535100Y-70884930D01*
X103376350Y-70726180D01*
X102227000Y-70726180D01*
X101973000Y-70726180D01*
X100823650Y-70726180D01*
X100664900Y-70884930D01*
X97872440Y-70884930D01*
X97883526Y-68673281D01*
X100664900Y-68673281D01*
X100664900Y-70313430D01*
X100823650Y-70472180D01*
X101973000Y-70472180D01*
X101973000Y-68323340D01*
X102227000Y-68323340D01*
X102227000Y-70472180D01*
X103376350Y-70472180D01*
X103535100Y-70313430D01*
X103535100Y-69472351D01*
X107264900Y-69472351D01*
X107264900Y-70613390D01*
X107423650Y-70772140D01*
X108573000Y-70772140D01*
X108573000Y-69122410D01*
X108827000Y-69122410D01*
X108827000Y-70772140D01*
X109976350Y-70772140D01*
X110135100Y-70613390D01*
X110135100Y-69472351D01*
X110038427Y-69238962D01*
X109859799Y-69060333D01*
X109626410Y-68963660D01*
X108985750Y-68963660D01*
X108827000Y-69122410D01*
X108573000Y-69122410D01*
X108414250Y-68963660D01*
X107773590Y-68963660D01*
X107540201Y-69060333D01*
X107361573Y-69238962D01*
X107264900Y-69472351D01*
X103535100Y-69472351D01*
X103535100Y-68923281D01*
X114564900Y-68923281D01*
X114564900Y-70563430D01*
X114723650Y-70722180D01*
X115873000Y-70722180D01*
X115873000Y-68573340D01*
X116127000Y-68573340D01*
X116127000Y-70722180D01*
X117276350Y-70722180D01*
X117435100Y-70563430D01*
X117435100Y-68923281D01*
X117338427Y-68689892D01*
X117159799Y-68511263D01*
X116926410Y-68414590D01*
X116285750Y-68414590D01*
X116127000Y-68573340D01*
X115873000Y-68573340D01*
X115714250Y-68414590D01*
X115073590Y-68414590D01*
X114840201Y-68511263D01*
X114661573Y-68689892D01*
X114564900Y-68923281D01*
X103535100Y-68923281D01*
X103535100Y-68673281D01*
X103438427Y-68439892D01*
X103259799Y-68261263D01*
X103026410Y-68164590D01*
X102385750Y-68164590D01*
X102227000Y-68323340D01*
X101973000Y-68323340D01*
X101814250Y-68164590D01*
X101173590Y-68164590D01*
X100940201Y-68261263D01*
X100761573Y-68439892D01*
X100664900Y-68673281D01*
X97883526Y-68673281D01*
X97890545Y-67272815D01*
X119164630Y-67272815D01*
X119488980Y-68057800D01*
X120089041Y-68658909D01*
X120873459Y-68984628D01*
X121722815Y-68985370D01*
X122507800Y-68661020D01*
X123108909Y-68060959D01*
X123434628Y-67276541D01*
X123435370Y-66427185D01*
X123111020Y-65642200D01*
X122510959Y-65041091D01*
X121726541Y-64715372D01*
X120877185Y-64714630D01*
X120092200Y-65038980D01*
X119491091Y-65639041D01*
X119165372Y-66423459D01*
X119164630Y-67272815D01*
X97890545Y-67272815D01*
X97926365Y-60127000D01*
X177873000Y-60127000D01*
X177873000Y-131873000D01*
X177873000Y-131873000D01*
G37*
X177873000Y-131873000D02*
X106834588Y-131873000D01*
X106835543Y-130779146D01*
X106359273Y-129626485D01*
X105478153Y-128743826D01*
X104326326Y-128265546D01*
X103079146Y-128264457D01*
X101926485Y-128740727D01*
X101043826Y-129621847D01*
X100565546Y-130773674D01*
X100564586Y-131873000D01*
X66127000Y-131873000D01*
X66127000Y-125721834D01*
X73564543Y-125721834D01*
X73964853Y-126690658D01*
X74705443Y-127432542D01*
X75673567Y-127834542D01*
X76721834Y-127835457D01*
X77690658Y-127435147D01*
X78432542Y-126694557D01*
X78834542Y-125726433D01*
X78835457Y-124678166D01*
X78435147Y-123709342D01*
X78411597Y-123685750D01*
X80015000Y-123685750D01*
X80015000Y-124526309D01*
X80111673Y-124759698D01*
X80290301Y-124938327D01*
X80523690Y-125035000D01*
X81214250Y-125035000D01*
X81373000Y-124876250D01*
X81373000Y-123527000D01*
X81627000Y-123527000D01*
X81627000Y-124876250D01*
X81785750Y-125035000D01*
X82476310Y-125035000D01*
X82709699Y-124938327D01*
X82888327Y-124759698D01*
X82985000Y-124526309D01*
X82985000Y-123685750D01*
X82872500Y-123573250D01*
X83765000Y-123573250D01*
X83765000Y-124038809D01*
X83861673Y-124272198D01*
X84040301Y-124450827D01*
X84273690Y-124547500D01*
X85114250Y-124547500D01*
X85273000Y-124388750D01*
X85273000Y-123414500D01*
X85527000Y-123414500D01*
X85527000Y-124388750D01*
X85685750Y-124547500D01*
X86526310Y-124547500D01*
X86759699Y-124450827D01*
X86938327Y-124272198D01*
X87035000Y-124038809D01*
X87035000Y-123573250D01*
X86876250Y-123414500D01*
X85527000Y-123414500D01*
X85273000Y-123414500D01*
X83923750Y-123414500D01*
X83765000Y-123573250D01*
X82872500Y-123573250D01*
X82826250Y-123527000D01*
X81627000Y-123527000D01*
X81373000Y-123527000D01*
X80173750Y-123527000D01*
X80015000Y-123685750D01*
X78411597Y-123685750D01*
X78012295Y-123285750D01*
X87765000Y-123285750D01*
X87765000Y-124126309D01*
X87861673Y-124359698D01*
X88040301Y-124538327D01*
X88273690Y-124635000D01*
X88914250Y-124635000D01*
X89073000Y-124476250D01*
X89073000Y-123127000D01*
X89327000Y-123127000D01*
X89327000Y-124476250D01*
X89485750Y-124635000D01*
X90126310Y-124635000D01*
X90359699Y-124538327D01*
X90538327Y-124359698D01*
X90635000Y-124126309D01*
X90635000Y-123285750D01*
X90476250Y-123127000D01*
X89327000Y-123127000D01*
X89073000Y-123127000D01*
X87923750Y-123127000D01*
X87765000Y-123285750D01*
X78012295Y-123285750D01*
X77694557Y-122967458D01*
X76726433Y-122565458D01*
X75678166Y-122564543D01*
X74709342Y-122964853D01*
X73967458Y-123705443D01*
X73565458Y-124673567D01*
X73564543Y-125721834D01*
X66127000Y-125721834D01*
X66127000Y-122273691D01*
X80015000Y-122273691D01*
X80015000Y-123114250D01*
X80173750Y-123273000D01*
X81373000Y-123273000D01*
X81373000Y-121923750D01*
X81627000Y-121923750D01*
X81627000Y-123273000D01*
X82826250Y-123273000D01*
X82985000Y-123114250D01*
X82985000Y-122536191D01*
X83765000Y-122536191D01*
X83765000Y-123001750D01*
X83923750Y-123160500D01*
X85273000Y-123160500D01*
X85273000Y-122186250D01*
X85527000Y-122186250D01*
X85527000Y-123160500D01*
X86876250Y-123160500D01*
X87035000Y-123001750D01*
X87035000Y-122536191D01*
X86938327Y-122302802D01*
X86759699Y-122124173D01*
X86526310Y-122027500D01*
X85685750Y-122027500D01*
X85527000Y-122186250D01*
X85273000Y-122186250D01*
X85114250Y-122027500D01*
X84273690Y-122027500D01*
X84040301Y-122124173D01*
X83861673Y-122302802D01*
X83765000Y-122536191D01*
X82985000Y-122536191D01*
X82985000Y-122273691D01*
X82888327Y-122040302D01*
X82721717Y-121873691D01*
X87765000Y-121873691D01*
X87765000Y-122714250D01*
X87923750Y-122873000D01*
X89073000Y-122873000D01*
X89073000Y-121523750D01*
X89327000Y-121523750D01*
X89327000Y-122873000D01*
X90476250Y-122873000D01*
X90635000Y-122714250D01*
X90635000Y-121873691D01*
X90538327Y-121640302D01*
X90359699Y-121461673D01*
X90126310Y-121365000D01*
X89485750Y-121365000D01*
X89327000Y-121523750D01*
X89073000Y-121523750D01*
X88914250Y-121365000D01*
X88273690Y-121365000D01*
X88040301Y-121461673D01*
X87861673Y-121640302D01*
X87765000Y-121873691D01*
X82721717Y-121873691D01*
X82709699Y-121861673D01*
X82476310Y-121765000D01*
X81785750Y-121765000D01*
X81627000Y-121923750D01*
X81373000Y-121923750D01*
X81214250Y-121765000D01*
X80523690Y-121765000D01*
X80290301Y-121861673D01*
X80111673Y-122040302D01*
X80015000Y-122273691D01*
X66127000Y-122273691D01*
X66127000Y-100126598D01*
X97600402Y-100026999D01*
X97645565Y-100018544D01*
X97688096Y-99991477D01*
X97716745Y-99949996D01*
X97726998Y-99900637D01*
X97730539Y-99194251D01*
X98868142Y-100331853D01*
X98868144Y-100331856D01*
X99199370Y-100553173D01*
X99203923Y-100556215D01*
X99600000Y-100635001D01*
X99600005Y-100635000D01*
X102182364Y-100635000D01*
X101926485Y-100740727D01*
X101043826Y-101621847D01*
X100565546Y-102773674D01*
X100564457Y-104020854D01*
X101040727Y-105173515D01*
X101921847Y-106056174D01*
X103073674Y-106534454D01*
X104320854Y-106535543D01*
X105473515Y-106059273D01*
X106356174Y-105178153D01*
X106834454Y-104026326D01*
X106835543Y-102779146D01*
X106419502Y-101772249D01*
X110816030Y-101772249D01*
X110816030Y-102062808D01*
X110912703Y-102296197D01*
X111091331Y-102474826D01*
X111324720Y-102571499D01*
X112415280Y-102571499D01*
X112574030Y-102412749D01*
X112574030Y-101613499D01*
X112828030Y-101613499D01*
X112828030Y-102412749D01*
X112986780Y-102571499D01*
X113875406Y-102571499D01*
X114008190Y-102626500D01*
X115098750Y-102626500D01*
X115257500Y-102467750D01*
X115257500Y-101668500D01*
X115511500Y-101668500D01*
X115511500Y-102467750D01*
X115670250Y-102626500D01*
X117698750Y-102626500D01*
X117857500Y-102467750D01*
X117857500Y-101668500D01*
X118111500Y-101668500D01*
X118111500Y-102467750D01*
X118270250Y-102626500D01*
X119360810Y-102626500D01*
X119594199Y-102529827D01*
X119772827Y-102351198D01*
X119869500Y-102117809D01*
X119869500Y-101827250D01*
X119710750Y-101668500D01*
X118111500Y-101668500D01*
X117857500Y-101668500D01*
X115511500Y-101668500D01*
X115257500Y-101668500D01*
X114482281Y-101668500D01*
X114427280Y-101613499D01*
X112828030Y-101613499D01*
X112574030Y-101613499D01*
X110974780Y-101613499D01*
X110816030Y-101772249D01*
X106419502Y-101772249D01*
X106359273Y-101626485D01*
X105644227Y-100910190D01*
X110816030Y-100910190D01*
X110816030Y-101200749D01*
X110974780Y-101359499D01*
X112574030Y-101359499D01*
X112574030Y-100560249D01*
X112828030Y-100560249D01*
X112828030Y-101359499D01*
X113603249Y-101359499D01*
X113658250Y-101414500D01*
X115257500Y-101414500D01*
X115257500Y-100615250D01*
X115511500Y-100615250D01*
X115511500Y-101414500D01*
X117857500Y-101414500D01*
X117857500Y-100615250D01*
X118111500Y-100615250D01*
X118111500Y-101414500D01*
X119710750Y-101414500D01*
X119869500Y-101255750D01*
X119869500Y-100965191D01*
X119772827Y-100731802D01*
X119594199Y-100553173D01*
X119360810Y-100456500D01*
X118270250Y-100456500D01*
X118111500Y-100615250D01*
X117857500Y-100615250D01*
X117698750Y-100456500D01*
X115670250Y-100456500D01*
X115511500Y-100615250D01*
X115257500Y-100615250D01*
X115098750Y-100456500D01*
X114210124Y-100456500D01*
X114077340Y-100401499D01*
X112986780Y-100401499D01*
X112828030Y-100560249D01*
X112574030Y-100560249D01*
X112415280Y-100401499D01*
X111324720Y-100401499D01*
X111091331Y-100498172D01*
X110912703Y-100676801D01*
X110816030Y-100910190D01*
X105644227Y-100910190D01*
X105478153Y-100743826D01*
X105216071Y-100635000D01*
X107699995Y-100635000D01*
X107700000Y-100635001D01*
X107905393Y-100594145D01*
X108123405Y-100684672D01*
X108873305Y-100685326D01*
X109566372Y-100398957D01*
X110097093Y-99869161D01*
X110384672Y-99176595D01*
X110385326Y-98426695D01*
X110098957Y-97733628D01*
X110015483Y-97650008D01*
X111421749Y-96243742D01*
X111637147Y-96203212D01*
X111853271Y-96064140D01*
X111953270Y-95917787D01*
X111953270Y-96550050D01*
X111997548Y-96785367D01*
X112136620Y-97001491D01*
X112348820Y-97146481D01*
X112600710Y-97197490D01*
X113400810Y-97197490D01*
X113467189Y-97185000D01*
X113821288Y-97185000D01*
X114169611Y-97533323D01*
X113951030Y-97489059D01*
X111451030Y-97489059D01*
X111215713Y-97533337D01*
X110999589Y-97672409D01*
X110854599Y-97884609D01*
X110803590Y-98136499D01*
X110803590Y-99036499D01*
X110847868Y-99271816D01*
X110986940Y-99487940D01*
X111199140Y-99632930D01*
X111451030Y-99683939D01*
X113876768Y-99683939D01*
X113882610Y-99687931D01*
X114134500Y-99738940D01*
X116634500Y-99738940D01*
X116686336Y-99729186D01*
X116734500Y-99738940D01*
X119234500Y-99738940D01*
X119469817Y-99694662D01*
X119685941Y-99555590D01*
X119830931Y-99343390D01*
X119881940Y-99091500D01*
X119881940Y-98191500D01*
X119837662Y-97956183D01*
X119698590Y-97740059D01*
X119486390Y-97595069D01*
X119234500Y-97544060D01*
X116734500Y-97544060D01*
X116682664Y-97553814D01*
X116634500Y-97544060D01*
X116419500Y-97544060D01*
X116419500Y-97284500D01*
X116345198Y-96910959D01*
X116340715Y-96888422D01*
X116250849Y-96753929D01*
X116116356Y-96552644D01*
X116116353Y-96552642D01*
X114981856Y-95418144D01*
X114646077Y-95193785D01*
X114250000Y-95114999D01*
X114249995Y-95115000D01*
X113850915Y-95115000D01*
X113852251Y-95114140D01*
X113997241Y-94901940D01*
X114048250Y-94650050D01*
X114048250Y-93849950D01*
X114003972Y-93614633D01*
X113864900Y-93398509D01*
X113652700Y-93253519D01*
X113421088Y-93206616D01*
X112682616Y-92468144D01*
X112346837Y-92243785D01*
X111950760Y-92164999D01*
X111950755Y-92165000D01*
X110374152Y-92165000D01*
X110397440Y-92050000D01*
X110397440Y-91935000D01*
X116529868Y-91935000D01*
X118797434Y-94202566D01*
X119165654Y-94448603D01*
X119600000Y-94535000D01*
X125900000Y-94535000D01*
X126334346Y-94448603D01*
X126702566Y-94202566D01*
X128220375Y-92684757D01*
X128873305Y-92685326D01*
X129566372Y-92398957D01*
X130097093Y-91869161D01*
X130384672Y-91176595D01*
X130385245Y-90519888D01*
X132802566Y-88102567D01*
X133048603Y-87734346D01*
X133101621Y-87467806D01*
X133135000Y-87300000D01*
X133135000Y-83720854D01*
X134564457Y-83720854D01*
X135040727Y-84873515D01*
X135921847Y-85756174D01*
X137073674Y-86234454D01*
X138320854Y-86235543D01*
X139473515Y-85759273D01*
X140356174Y-84878153D01*
X140834454Y-83726326D01*
X140835543Y-82479146D01*
X140359273Y-81326485D01*
X139478153Y-80443826D01*
X138326326Y-79965546D01*
X137079146Y-79964457D01*
X135926485Y-80440727D01*
X135043826Y-81321847D01*
X134565546Y-82473674D01*
X134564457Y-83720854D01*
X133135000Y-83720854D01*
X133135000Y-74100000D01*
X133048603Y-73665654D01*
X132802566Y-73297434D01*
X130682566Y-71177434D01*
X130543235Y-71084336D01*
X130314346Y-70931397D01*
X129880000Y-70845000D01*
X125040132Y-70845000D01*
X129250000Y-66635132D01*
X129617434Y-67002566D01*
X129985654Y-67248603D01*
X130420000Y-67335000D01*
X141479868Y-67335000D01*
X144959868Y-70815000D01*
X142150000Y-70815000D01*
X141715654Y-70901397D01*
X141441868Y-71084335D01*
X141347434Y-71147434D01*
X137929868Y-74565000D01*
X137641100Y-74565000D01*
X137611020Y-74492200D01*
X137035000Y-73915174D01*
X137035000Y-71872440D01*
X137725000Y-71872440D01*
X137960317Y-71828162D01*
X138176441Y-71689090D01*
X138321431Y-71476890D01*
X138372440Y-71225000D01*
X138372440Y-69175000D01*
X138328162Y-68939683D01*
X138189090Y-68723559D01*
X137976890Y-68578569D01*
X137725000Y-68527560D01*
X134075000Y-68527560D01*
X133839683Y-68571838D01*
X133623559Y-68710910D01*
X133478569Y-68923110D01*
X133427560Y-69175000D01*
X133427560Y-71225000D01*
X133471838Y-71460317D01*
X133610910Y-71676441D01*
X133823110Y-71821431D01*
X134075000Y-71872440D01*
X134765000Y-71872440D01*
X134765000Y-73817580D01*
X134592200Y-73888980D01*
X133991091Y-74489041D01*
X133665372Y-75273459D01*
X133664630Y-76122815D01*
X133988980Y-76907800D01*
X134589041Y-77508909D01*
X135373459Y-77834628D01*
X136222815Y-77835370D01*
X137007800Y-77511020D01*
X137056887Y-77462019D01*
X141415000Y-81820132D01*
X141415000Y-86952560D01*
X140650000Y-86952560D01*
X140414683Y-86996838D01*
X140198559Y-87135910D01*
X140053569Y-87348110D01*
X140002560Y-87600000D01*
X140002560Y-88465000D01*
X138600000Y-88465000D01*
X138165654Y-88551397D01*
X137864747Y-88752457D01*
X137797434Y-88797434D01*
X136929868Y-89665000D01*
X135030449Y-89665000D01*
X134569161Y-89202907D01*
X133876595Y-88915328D01*
X133126695Y-88914674D01*
X132433628Y-89201043D01*
X131902907Y-89730839D01*
X131615328Y-90423405D01*
X131614755Y-91080113D01*
X128129858Y-94565010D01*
X122649990Y-94565010D01*
X122215645Y-94651406D01*
X121847424Y-94897443D01*
X120247434Y-96497434D01*
X120001397Y-96865654D01*
X119915000Y-97300000D01*
X119915000Y-102829868D01*
X118095434Y-104649434D01*
X117849397Y-105017654D01*
X117763000Y-105452000D01*
X117763000Y-106720497D01*
X117484000Y-106665000D01*
X89000000Y-106665000D01*
X88565654Y-106751397D01*
X88233315Y-106973459D01*
X88197434Y-106997434D01*
X86997434Y-108197434D01*
X86919427Y-108314180D01*
X83847540Y-108314180D01*
X83847540Y-107649590D01*
X83803262Y-107414273D01*
X83664190Y-107198149D01*
X83451990Y-107053159D01*
X83200100Y-107002150D01*
X81599900Y-107002150D01*
X81364583Y-107046428D01*
X81148459Y-107185500D01*
X81003469Y-107397700D01*
X80952460Y-107649590D01*
X80952460Y-111248770D01*
X80996738Y-111484087D01*
X81135810Y-111700211D01*
X81348010Y-111845201D01*
X81599900Y-111896210D01*
X83200100Y-111896210D01*
X83435417Y-111851932D01*
X83651541Y-111712860D01*
X83796531Y-111500660D01*
X83847540Y-111248770D01*
X83847540Y-110584180D01*
X87379048Y-110584180D01*
X87832388Y-111037520D01*
X87828569Y-111043110D01*
X87777560Y-111295000D01*
X87777560Y-111895000D01*
X87821838Y-112130317D01*
X87885678Y-112229528D01*
X87828569Y-112313110D01*
X87777560Y-112565000D01*
X87777560Y-113100000D01*
X83837900Y-113100000D01*
X83803262Y-112915913D01*
X83664190Y-112699789D01*
X83451990Y-112554799D01*
X83200100Y-112503790D01*
X81599900Y-112503790D01*
X81364583Y-112548068D01*
X81148459Y-112687140D01*
X81003469Y-112899340D01*
X80952460Y-113151230D01*
X80952460Y-116750410D01*
X80996738Y-116985727D01*
X81135810Y-117201851D01*
X81348010Y-117346841D01*
X81365000Y-117350282D01*
X81365000Y-117752560D01*
X80650000Y-117752560D01*
X80414683Y-117796838D01*
X80198559Y-117935910D01*
X80053569Y-118148110D01*
X80002560Y-118400000D01*
X80002560Y-120400000D01*
X80046838Y-120635317D01*
X80185910Y-120851441D01*
X80398110Y-120996431D01*
X80650000Y-121047440D01*
X82350000Y-121047440D01*
X82585317Y-121003162D01*
X82801441Y-120864090D01*
X82946431Y-120651890D01*
X82990352Y-120435000D01*
X83768554Y-120435000D01*
X83796838Y-120585317D01*
X83935910Y-120801441D01*
X84148110Y-120946431D01*
X84400000Y-120997440D01*
X86400000Y-120997440D01*
X86635317Y-120953162D01*
X86851441Y-120814090D01*
X86996431Y-120601890D01*
X87047440Y-120350000D01*
X87047440Y-119100000D01*
X87003162Y-118864683D01*
X86864090Y-118648559D01*
X86651890Y-118503569D01*
X86400000Y-118452560D01*
X85484210Y-118452560D01*
X85471077Y-118443785D01*
X85075000Y-118364999D01*
X85074995Y-118365000D01*
X83435000Y-118365000D01*
X83435000Y-117353650D01*
X83435417Y-117353572D01*
X83651541Y-117214500D01*
X83796531Y-117002300D01*
X83847540Y-116750410D01*
X83847540Y-115170000D01*
X87777560Y-115170000D01*
X87777560Y-115705000D01*
X87821838Y-115940317D01*
X87960910Y-116156441D01*
X88165000Y-116295890D01*
X88165000Y-117396778D01*
X88164683Y-117396838D01*
X87948559Y-117535910D01*
X87803569Y-117748110D01*
X87752560Y-118000000D01*
X87752560Y-120000000D01*
X87796838Y-120235317D01*
X87935910Y-120451441D01*
X88148110Y-120596431D01*
X88400000Y-120647440D01*
X90000000Y-120647440D01*
X90235317Y-120603162D01*
X90451441Y-120464090D01*
X90596431Y-120251890D01*
X90647440Y-120000000D01*
X90647440Y-118000000D01*
X90603162Y-117764683D01*
X90464090Y-117548559D01*
X90251890Y-117403569D01*
X90235000Y-117400149D01*
X90235000Y-116292279D01*
X90426441Y-116169090D01*
X90571431Y-115956890D01*
X90622440Y-115705000D01*
X90622440Y-115158575D01*
X90961077Y-115091215D01*
X90967616Y-115086846D01*
X90964999Y-115100000D01*
X90965000Y-115100005D01*
X90965000Y-118899995D01*
X90964999Y-118900000D01*
X91043785Y-119296077D01*
X91268144Y-119631856D01*
X92268142Y-120631853D01*
X92268144Y-120631856D01*
X92596778Y-120851441D01*
X92603923Y-120856215D01*
X92675214Y-120870396D01*
X92696838Y-120985317D01*
X92835910Y-121201441D01*
X93048110Y-121346431D01*
X93265000Y-121390352D01*
X93265000Y-122099995D01*
X93264999Y-122100000D01*
X93343785Y-122496077D01*
X93568144Y-122831856D01*
X95668142Y-124931853D01*
X95668144Y-124931856D01*
X95776001Y-125003923D01*
X96003922Y-125156215D01*
X96400000Y-125235000D01*
X106571288Y-125235000D01*
X112268142Y-130931853D01*
X112268144Y-130931856D01*
X112454262Y-131056215D01*
X112603922Y-131156215D01*
X113000000Y-131235000D01*
X138399995Y-131235000D01*
X138400000Y-131235001D01*
X138796077Y-131156215D01*
X138827828Y-131135000D01*
X139529442Y-131135000D01*
X139571838Y-131360317D01*
X139710910Y-131576441D01*
X139923110Y-131721431D01*
X140175000Y-131772440D01*
X143825000Y-131772440D01*
X144060317Y-131728162D01*
X144276441Y-131589090D01*
X144421431Y-131376890D01*
X144472440Y-131125000D01*
X144472440Y-129075000D01*
X144428162Y-128839683D01*
X144289090Y-128623559D01*
X144076890Y-128478569D01*
X143825000Y-128427560D01*
X143035000Y-128427560D01*
X143035000Y-126847440D01*
X143050000Y-126847440D01*
X143285317Y-126803162D01*
X143501441Y-126664090D01*
X143642952Y-126456981D01*
X143735910Y-126601441D01*
X143948110Y-126746431D01*
X144200000Y-126797440D01*
X145900000Y-126797440D01*
X146135317Y-126753162D01*
X146351441Y-126614090D01*
X146496431Y-126401890D01*
X146547440Y-126150000D01*
X146547440Y-126035000D01*
X147568811Y-126035000D01*
X147580838Y-126098917D01*
X147719910Y-126315041D01*
X147932110Y-126460031D01*
X148184000Y-126511040D01*
X150216000Y-126511040D01*
X150451317Y-126466762D01*
X150667441Y-126327690D01*
X150812431Y-126115490D01*
X150863440Y-125863600D01*
X150863440Y-124136400D01*
X150819162Y-123901083D01*
X150680090Y-123684959D01*
X150467890Y-123539969D01*
X150426561Y-123531600D01*
X150444415Y-123519670D01*
X150769271Y-123033489D01*
X150883345Y-122460000D01*
X150769271Y-121886511D01*
X150444415Y-121400330D01*
X150129634Y-121190000D01*
X150331676Y-121055000D01*
X152268324Y-121055000D01*
X152470366Y-121190000D01*
X152155585Y-121400330D01*
X151830729Y-121886511D01*
X151716655Y-122460000D01*
X151830729Y-123033489D01*
X152155585Y-123519670D01*
X152169913Y-123529243D01*
X152148683Y-123533238D01*
X151932559Y-123672310D01*
X151787569Y-123884510D01*
X151736560Y-124136400D01*
X151736560Y-125863600D01*
X151780838Y-126098917D01*
X151919910Y-126315041D01*
X152132110Y-126460031D01*
X152384000Y-126511040D01*
X154416000Y-126511040D01*
X154651317Y-126466762D01*
X154867441Y-126327690D01*
X155012431Y-126115490D01*
X155028731Y-126035000D01*
X156285025Y-126035000D01*
X156448110Y-126146431D01*
X156700000Y-126197440D01*
X158400000Y-126197440D01*
X158635317Y-126153162D01*
X158851441Y-126014090D01*
X158996431Y-125801890D01*
X159047440Y-125550000D01*
X159047440Y-123550000D01*
X159003162Y-123314683D01*
X158864090Y-123098559D01*
X158651890Y-122953569D01*
X158400000Y-122902560D01*
X156700000Y-122902560D01*
X156464683Y-122946838D01*
X156248559Y-123085910D01*
X156103569Y-123298110D01*
X156052560Y-123550000D01*
X156052560Y-123965000D01*
X155031189Y-123965000D01*
X155019162Y-123901083D01*
X154880090Y-123684959D01*
X154667890Y-123539969D01*
X154626561Y-123531600D01*
X154644415Y-123519670D01*
X154969271Y-123033489D01*
X155083345Y-122460000D01*
X154969271Y-121886511D01*
X154644415Y-121400330D01*
X154329634Y-121190000D01*
X154644415Y-120979670D01*
X154740579Y-120835750D01*
X156065000Y-120835750D01*
X156065000Y-121676309D01*
X156161673Y-121909698D01*
X156340301Y-122088327D01*
X156573690Y-122185000D01*
X157264250Y-122185000D01*
X157423000Y-122026250D01*
X157423000Y-120677000D01*
X157677000Y-120677000D01*
X157677000Y-122026250D01*
X157835750Y-122185000D01*
X158526310Y-122185000D01*
X158759699Y-122088327D01*
X158938327Y-121909698D01*
X159035000Y-121676309D01*
X159035000Y-120835750D01*
X158876250Y-120677000D01*
X157677000Y-120677000D01*
X157423000Y-120677000D01*
X156223750Y-120677000D01*
X156065000Y-120835750D01*
X154740579Y-120835750D01*
X154969271Y-120493489D01*
X155083345Y-119920000D01*
X154984624Y-119423691D01*
X156065000Y-119423691D01*
X156065000Y-120264250D01*
X156223750Y-120423000D01*
X157423000Y-120423000D01*
X157423000Y-119073750D01*
X157677000Y-119073750D01*
X157677000Y-120423000D01*
X158876250Y-120423000D01*
X159035000Y-120264250D01*
X159035000Y-119423691D01*
X158938327Y-119190302D01*
X158759699Y-119011673D01*
X158526310Y-118915000D01*
X157835750Y-118915000D01*
X157677000Y-119073750D01*
X157423000Y-119073750D01*
X157264250Y-118915000D01*
X156573690Y-118915000D01*
X156340301Y-119011673D01*
X156161673Y-119190302D01*
X156065000Y-119423691D01*
X154984624Y-119423691D01*
X154969271Y-119346511D01*
X154644415Y-118860330D01*
X154535000Y-118787221D01*
X154535000Y-116820132D01*
X158370132Y-112985000D01*
X167350000Y-112985000D01*
X167515110Y-112952157D01*
X162045868Y-118421400D01*
X161815255Y-118421400D01*
X161241766Y-118535474D01*
X160755585Y-118860330D01*
X160430729Y-119346511D01*
X160316655Y-119920000D01*
X160430729Y-120493489D01*
X160755585Y-120979670D01*
X161070366Y-121190000D01*
X160755585Y-121400330D01*
X160430729Y-121886511D01*
X160316655Y-122460000D01*
X160430729Y-123033489D01*
X160755585Y-123519670D01*
X160769913Y-123529243D01*
X160748683Y-123533238D01*
X160532559Y-123672310D01*
X160387569Y-123884510D01*
X160336560Y-124136400D01*
X160336560Y-125863600D01*
X160380838Y-126098917D01*
X160519910Y-126315041D01*
X160732110Y-126460031D01*
X160984000Y-126511040D01*
X163016000Y-126511040D01*
X163251317Y-126466762D01*
X163467441Y-126327690D01*
X163612431Y-126115490D01*
X163663440Y-125863600D01*
X163663440Y-125744161D01*
X163681856Y-125731856D01*
X165467469Y-123946243D01*
X165165458Y-124673567D01*
X165164543Y-125721834D01*
X165564853Y-126690658D01*
X166305443Y-127432542D01*
X167273567Y-127834542D01*
X168321834Y-127835457D01*
X169290658Y-127435147D01*
X170032542Y-126694557D01*
X170434542Y-125726433D01*
X170435457Y-124678166D01*
X170035147Y-123709342D01*
X169294557Y-122967458D01*
X168326433Y-122565458D01*
X167278166Y-122564543D01*
X166517192Y-122878971D01*
X166706215Y-122596077D01*
X166785001Y-122200000D01*
X166785000Y-122199995D01*
X166785000Y-121147440D01*
X167400000Y-121147440D01*
X167635317Y-121103162D01*
X167851441Y-120964090D01*
X167996431Y-120751890D01*
X168047440Y-120500000D01*
X168047440Y-119935750D01*
X168765000Y-119935750D01*
X168765000Y-120626310D01*
X168861673Y-120859699D01*
X169040302Y-121038327D01*
X169273691Y-121135000D01*
X170114250Y-121135000D01*
X170273000Y-120976250D01*
X170273000Y-119777000D01*
X170527000Y-119777000D01*
X170527000Y-120976250D01*
X170685750Y-121135000D01*
X171526309Y-121135000D01*
X171759698Y-121038327D01*
X171938327Y-120859699D01*
X172035000Y-120626310D01*
X172035000Y-119935750D01*
X171876250Y-119777000D01*
X170527000Y-119777000D01*
X170273000Y-119777000D01*
X168923750Y-119777000D01*
X168765000Y-119935750D01*
X168047440Y-119935750D01*
X168047440Y-118800000D01*
X168023674Y-118673690D01*
X168765000Y-118673690D01*
X168765000Y-119364250D01*
X168923750Y-119523000D01*
X170273000Y-119523000D01*
X170273000Y-118323750D01*
X170527000Y-118323750D01*
X170527000Y-119523000D01*
X171876250Y-119523000D01*
X172035000Y-119364250D01*
X172035000Y-118673690D01*
X171938327Y-118440301D01*
X171759698Y-118261673D01*
X171526309Y-118165000D01*
X170685750Y-118165000D01*
X170527000Y-118323750D01*
X170273000Y-118323750D01*
X170114250Y-118165000D01*
X169273691Y-118165000D01*
X169040302Y-118261673D01*
X168861673Y-118440301D01*
X168765000Y-118673690D01*
X168023674Y-118673690D01*
X168003162Y-118564683D01*
X167864090Y-118348559D01*
X167651890Y-118203569D01*
X167400000Y-118152560D01*
X165524972Y-118152560D01*
X177452567Y-106224966D01*
X177698604Y-105856745D01*
X177785000Y-105422400D01*
X177785000Y-91480370D01*
X177698603Y-91046024D01*
X177452566Y-90677804D01*
X173063445Y-86288683D01*
X173173674Y-86334454D01*
X174420854Y-86335543D01*
X175573515Y-85859273D01*
X176456174Y-84978153D01*
X176934454Y-83826326D01*
X176935543Y-82579146D01*
X176459273Y-81426485D01*
X175578153Y-80543826D01*
X174426326Y-80065546D01*
X173179146Y-80064457D01*
X172026485Y-80540727D01*
X171143826Y-81421847D01*
X170785000Y-82285997D01*
X170785000Y-81358622D01*
X173602576Y-78541046D01*
X173632113Y-78496841D01*
X173848613Y-78172826D01*
X173935010Y-77738480D01*
X173935010Y-73811519D01*
X173848613Y-73377173D01*
X173602576Y-73008953D01*
X170441047Y-69847424D01*
X170436865Y-69844630D01*
X170072827Y-69601387D01*
X169638481Y-69514990D01*
X146870122Y-69514990D01*
X144676966Y-67321834D01*
X165164543Y-67321834D01*
X165564853Y-68290658D01*
X166305443Y-69032542D01*
X167273567Y-69434542D01*
X168321834Y-69435457D01*
X169290658Y-69035147D01*
X170032542Y-68294557D01*
X170434542Y-67326433D01*
X170435457Y-66278166D01*
X170035147Y-65309342D01*
X169294557Y-64567458D01*
X168326433Y-64165458D01*
X167278166Y-64164543D01*
X166309342Y-64564853D01*
X165567458Y-65305443D01*
X165165458Y-66273567D01*
X165164543Y-67321834D01*
X144676966Y-67321834D01*
X142752566Y-65397434D01*
X142614892Y-65305443D01*
X142384346Y-65151397D01*
X141950000Y-65065000D01*
X130890132Y-65065000D01*
X130385000Y-64559868D01*
X130385000Y-63672440D01*
X131075000Y-63672440D01*
X131310317Y-63628162D01*
X131526441Y-63489090D01*
X131671431Y-63276890D01*
X131722440Y-63025000D01*
X131722440Y-62485750D01*
X137440000Y-62485750D01*
X137440000Y-63351310D01*
X137536673Y-63584699D01*
X137715302Y-63763327D01*
X137948691Y-63860000D01*
X139614250Y-63860000D01*
X139773000Y-63701250D01*
X139773000Y-62327000D01*
X140027000Y-62327000D01*
X140027000Y-63701250D01*
X140185750Y-63860000D01*
X141851309Y-63860000D01*
X142084698Y-63763327D01*
X142263327Y-63584699D01*
X142360000Y-63351310D01*
X142360000Y-62485750D01*
X142201250Y-62327000D01*
X140027000Y-62327000D01*
X139773000Y-62327000D01*
X137598750Y-62327000D01*
X137440000Y-62485750D01*
X131722440Y-62485750D01*
X131722440Y-61048690D01*
X137440000Y-61048690D01*
X137440000Y-61914250D01*
X137598750Y-62073000D01*
X139773000Y-62073000D01*
X139773000Y-60698750D01*
X140027000Y-60698750D01*
X140027000Y-62073000D01*
X142201250Y-62073000D01*
X142360000Y-61914250D01*
X142360000Y-61048690D01*
X142263327Y-60815301D01*
X142084698Y-60636673D01*
X141851309Y-60540000D01*
X140185750Y-60540000D01*
X140027000Y-60698750D01*
X139773000Y-60698750D01*
X139614250Y-60540000D01*
X137948691Y-60540000D01*
X137715302Y-60636673D01*
X137536673Y-60815301D01*
X137440000Y-61048690D01*
X131722440Y-61048690D01*
X131722440Y-60975000D01*
X131678162Y-60739683D01*
X131539090Y-60523559D01*
X131326890Y-60378569D01*
X131075000Y-60327560D01*
X127425000Y-60327560D01*
X127189683Y-60371838D01*
X126973559Y-60510910D01*
X126828569Y-60723110D01*
X126777560Y-60975000D01*
X126777560Y-63025000D01*
X126821838Y-63260317D01*
X126960910Y-63476441D01*
X127173110Y-63621431D01*
X127425000Y-63672440D01*
X128115000Y-63672440D01*
X128115000Y-64559868D01*
X122799289Y-69875579D01*
X122726541Y-69845372D01*
X121877185Y-69844630D01*
X121092200Y-70168980D01*
X120491091Y-70769041D01*
X120165372Y-71553459D01*
X120164630Y-72402815D01*
X120488980Y-73187800D01*
X121089041Y-73788909D01*
X121873459Y-74114628D01*
X122722815Y-74115370D01*
X123507800Y-73791020D01*
X124108909Y-73190959D01*
X124140450Y-73115000D01*
X129409868Y-73115000D01*
X130865000Y-74570132D01*
X130865000Y-82605000D01*
X129728730Y-82605000D01*
X129767441Y-82580090D01*
X129912431Y-82367890D01*
X129963440Y-82116000D01*
X129963440Y-80084000D01*
X129919162Y-79848683D01*
X129780090Y-79632559D01*
X129567890Y-79487569D01*
X129316000Y-79436560D01*
X128835000Y-79436560D01*
X128835000Y-77582420D01*
X129007800Y-77511020D01*
X129608909Y-76910959D01*
X129934628Y-76126541D01*
X129935370Y-75277185D01*
X129611020Y-74492200D01*
X129010959Y-73891091D01*
X128226541Y-73565372D01*
X127377185Y-73564630D01*
X126592200Y-73888980D01*
X125991091Y-74489041D01*
X125665372Y-75273459D01*
X125664630Y-76122815D01*
X125988980Y-76907800D01*
X126589041Y-77508909D01*
X126765000Y-77581974D01*
X126765000Y-79718786D01*
X126687569Y-79832110D01*
X126637907Y-80077350D01*
X126303923Y-80143785D01*
X125968144Y-80368144D01*
X125968142Y-80368147D01*
X124368144Y-81968144D01*
X124143785Y-82303923D01*
X124064999Y-82700000D01*
X124065000Y-82700005D01*
X124065000Y-85671289D01*
X122771288Y-86965000D01*
X115928711Y-86965000D01*
X113736527Y-84772815D01*
X119164630Y-84772815D01*
X119488980Y-85557800D01*
X120089041Y-86158909D01*
X120873459Y-86484628D01*
X121722815Y-86485370D01*
X122507800Y-86161020D01*
X123108909Y-85560959D01*
X123434628Y-84776541D01*
X123435370Y-83927185D01*
X123111020Y-83142200D01*
X122510959Y-82541091D01*
X121726541Y-82215372D01*
X120877185Y-82214630D01*
X120092200Y-82538980D01*
X119491091Y-83139041D01*
X119165372Y-83923459D01*
X119164630Y-84772815D01*
X113736527Y-84772815D01*
X112835000Y-83871288D01*
X112835000Y-80733970D01*
X120965635Y-80733970D01*
X121125418Y-81052739D01*
X121916187Y-81362723D01*
X122765387Y-81346497D01*
X123474582Y-81052739D01*
X123634365Y-80733970D01*
X122300000Y-79399605D01*
X120965635Y-80733970D01*
X112835000Y-80733970D01*
X112835000Y-79701345D01*
X112835001Y-79701340D01*
X112835000Y-79701335D01*
X112835000Y-79379432D01*
X113378244Y-78836187D01*
X120157277Y-78836187D01*
X120173503Y-79685387D01*
X120467261Y-80394582D01*
X120786030Y-80554365D01*
X122120395Y-79220000D01*
X122479605Y-79220000D01*
X123813970Y-80554365D01*
X124132739Y-80394582D01*
X124442723Y-79603813D01*
X124426497Y-78754613D01*
X124132739Y-78045418D01*
X123813970Y-77885635D01*
X122479605Y-79220000D01*
X122120395Y-79220000D01*
X120786030Y-77885635D01*
X120467261Y-78045418D01*
X120157277Y-78836187D01*
X113378244Y-78836187D01*
X114552460Y-77661971D01*
X114552460Y-78150410D01*
X114596738Y-78385727D01*
X114735810Y-78601851D01*
X114948010Y-78746841D01*
X115199900Y-78797850D01*
X116800100Y-78797850D01*
X117035417Y-78753572D01*
X117251541Y-78614500D01*
X117396531Y-78402300D01*
X117447540Y-78150410D01*
X117447540Y-77706030D01*
X120965635Y-77706030D01*
X122300000Y-79040395D01*
X123634365Y-77706030D01*
X123474582Y-77387261D01*
X122683813Y-77077277D01*
X121834613Y-77093503D01*
X121125418Y-77387261D01*
X120965635Y-77706030D01*
X117447540Y-77706030D01*
X117447540Y-74551230D01*
X117403262Y-74315913D01*
X117264190Y-74099789D01*
X117051990Y-73954799D01*
X116800100Y-73903790D01*
X115199900Y-73903790D01*
X114964583Y-73948068D01*
X114748459Y-74087140D01*
X114603469Y-74299340D01*
X114552460Y-74551230D01*
X114552460Y-75315820D01*
X114399905Y-75315820D01*
X114399900Y-75315819D01*
X114003823Y-75394605D01*
X113668044Y-75618964D01*
X113668042Y-75618967D01*
X111424690Y-77862318D01*
X109876250Y-76313878D01*
X109951541Y-76265430D01*
X110096531Y-76053230D01*
X110147540Y-75801340D01*
X110147540Y-73200380D01*
X110103262Y-72965063D01*
X109964190Y-72748939D01*
X109895643Y-72702103D01*
X110038427Y-72559318D01*
X110135100Y-72325929D01*
X110135100Y-71184890D01*
X110085140Y-71134930D01*
X114564900Y-71134930D01*
X114564900Y-72775079D01*
X114661573Y-73008468D01*
X114840201Y-73187097D01*
X115073590Y-73283770D01*
X115714250Y-73283770D01*
X115873000Y-73125020D01*
X115873000Y-70976180D01*
X116127000Y-70976180D01*
X116127000Y-73125020D01*
X116285750Y-73283770D01*
X116926410Y-73283770D01*
X117159799Y-73187097D01*
X117338427Y-73008468D01*
X117435100Y-72775079D01*
X117435100Y-71134930D01*
X117276350Y-70976180D01*
X116127000Y-70976180D01*
X115873000Y-70976180D01*
X114723650Y-70976180D01*
X114564900Y-71134930D01*
X110085140Y-71134930D01*
X109976350Y-71026140D01*
X108827000Y-71026140D01*
X108827000Y-71046140D01*
X108573000Y-71046140D01*
X108573000Y-71026140D01*
X107423650Y-71026140D01*
X107264900Y-71184890D01*
X107264900Y-72325929D01*
X107361573Y-72559318D01*
X107503273Y-72701018D01*
X107448459Y-72736290D01*
X107303469Y-72948490D01*
X107252460Y-73200380D01*
X107252460Y-75801340D01*
X107296738Y-76036657D01*
X107435810Y-76252781D01*
X107648010Y-76397771D01*
X107665000Y-76401212D01*
X107665000Y-76601335D01*
X107664999Y-76601340D01*
X107743785Y-76997417D01*
X107968144Y-77333196D01*
X110765000Y-80130051D01*
X110765000Y-84299995D01*
X110764999Y-84300000D01*
X110843785Y-84696077D01*
X111068144Y-85031856D01*
X114768142Y-88731853D01*
X114768144Y-88731856D01*
X114897284Y-88818144D01*
X115103922Y-88956215D01*
X115500000Y-89035001D01*
X115500005Y-89035000D01*
X122835483Y-89035000D01*
X122433628Y-89201043D01*
X121902907Y-89730839D01*
X121615328Y-90423405D01*
X121614674Y-91173305D01*
X121901043Y-91866372D01*
X122298976Y-92265000D01*
X120070132Y-92265000D01*
X117802566Y-89997434D01*
X117678382Y-89914457D01*
X117434346Y-89751397D01*
X117000000Y-89665000D01*
X110397440Y-89665000D01*
X110397440Y-89550000D01*
X110353162Y-89314683D01*
X110214090Y-89098559D01*
X110001890Y-88953569D01*
X109750000Y-88902560D01*
X108207692Y-88902560D01*
X106898180Y-87593048D01*
X106898180Y-84750270D01*
X106853902Y-84514953D01*
X106714830Y-84298829D01*
X106502630Y-84153839D01*
X106250740Y-84102830D01*
X106136060Y-84102830D01*
X106136060Y-80001370D01*
X106049663Y-79567024D01*
X105803626Y-79198804D01*
X103547540Y-76942718D01*
X103547540Y-74301230D01*
X103503262Y-74065913D01*
X103364190Y-73849789D01*
X103151990Y-73704799D01*
X102900100Y-73653790D01*
X101299900Y-73653790D01*
X101064583Y-73698068D01*
X100848459Y-73837140D01*
X100703469Y-74049340D01*
X100652460Y-74301230D01*
X100652460Y-77900410D01*
X100696738Y-78135727D01*
X100835810Y-78351851D01*
X101048010Y-78496841D01*
X101299900Y-78547850D01*
X101942408Y-78547850D01*
X103866060Y-80471502D01*
X103866060Y-84102830D01*
X103751380Y-84102830D01*
X103516063Y-84147108D01*
X103299939Y-84286180D01*
X103154949Y-84498380D01*
X103103940Y-84750270D01*
X103103940Y-86691988D01*
X100797434Y-88998494D01*
X100551397Y-89366714D01*
X100465000Y-89801060D01*
X100465000Y-92849284D01*
X100400222Y-92892567D01*
X100042330Y-93428190D01*
X99916655Y-94060000D01*
X100042330Y-94691810D01*
X100269499Y-95031792D01*
X100132559Y-95119910D01*
X99987569Y-95332110D01*
X99936560Y-95584000D01*
X99936560Y-97616000D01*
X99980838Y-97851317D01*
X100119910Y-98067441D01*
X100332110Y-98212431D01*
X100584000Y-98263440D01*
X102616000Y-98263440D01*
X102851317Y-98219162D01*
X103067441Y-98080090D01*
X103212431Y-97867890D01*
X103259592Y-97635000D01*
X103702560Y-97635000D01*
X103702560Y-98200000D01*
X103746838Y-98435317D01*
X103830287Y-98565000D01*
X100028711Y-98565000D01*
X99233940Y-97770228D01*
X99233940Y-88697170D01*
X99448620Y-88697170D01*
X99683937Y-88652892D01*
X99900061Y-88513820D01*
X100045051Y-88301620D01*
X100096060Y-88049730D01*
X100096060Y-84750270D01*
X100051782Y-84514953D01*
X99912710Y-84298829D01*
X99700510Y-84153839D01*
X99448620Y-84102830D01*
X97806185Y-84102830D01*
X97872440Y-70884930D01*
X100664900Y-70884930D01*
X100664900Y-72525079D01*
X100761573Y-72758468D01*
X100940201Y-72937097D01*
X101173590Y-73033770D01*
X101814250Y-73033770D01*
X101973000Y-72875020D01*
X101973000Y-70726180D01*
X102227000Y-70726180D01*
X102227000Y-72875020D01*
X102385750Y-73033770D01*
X103026410Y-73033770D01*
X103259799Y-72937097D01*
X103438427Y-72758468D01*
X103535100Y-72525079D01*
X103535100Y-70884930D01*
X103376350Y-70726180D01*
X102227000Y-70726180D01*
X101973000Y-70726180D01*
X100823650Y-70726180D01*
X100664900Y-70884930D01*
X97872440Y-70884930D01*
X97883526Y-68673281D01*
X100664900Y-68673281D01*
X100664900Y-70313430D01*
X100823650Y-70472180D01*
X101973000Y-70472180D01*
X101973000Y-68323340D01*
X102227000Y-68323340D01*
X102227000Y-70472180D01*
X103376350Y-70472180D01*
X103535100Y-70313430D01*
X103535100Y-69472351D01*
X107264900Y-69472351D01*
X107264900Y-70613390D01*
X107423650Y-70772140D01*
X108573000Y-70772140D01*
X108573000Y-69122410D01*
X108827000Y-69122410D01*
X108827000Y-70772140D01*
X109976350Y-70772140D01*
X110135100Y-70613390D01*
X110135100Y-69472351D01*
X110038427Y-69238962D01*
X109859799Y-69060333D01*
X109626410Y-68963660D01*
X108985750Y-68963660D01*
X108827000Y-69122410D01*
X108573000Y-69122410D01*
X108414250Y-68963660D01*
X107773590Y-68963660D01*
X107540201Y-69060333D01*
X107361573Y-69238962D01*
X107264900Y-69472351D01*
X103535100Y-69472351D01*
X103535100Y-68923281D01*
X114564900Y-68923281D01*
X114564900Y-70563430D01*
X114723650Y-70722180D01*
X115873000Y-70722180D01*
X115873000Y-68573340D01*
X116127000Y-68573340D01*
X116127000Y-70722180D01*
X117276350Y-70722180D01*
X117435100Y-70563430D01*
X117435100Y-68923281D01*
X117338427Y-68689892D01*
X117159799Y-68511263D01*
X116926410Y-68414590D01*
X116285750Y-68414590D01*
X116127000Y-68573340D01*
X115873000Y-68573340D01*
X115714250Y-68414590D01*
X115073590Y-68414590D01*
X114840201Y-68511263D01*
X114661573Y-68689892D01*
X114564900Y-68923281D01*
X103535100Y-68923281D01*
X103535100Y-68673281D01*
X103438427Y-68439892D01*
X103259799Y-68261263D01*
X103026410Y-68164590D01*
X102385750Y-68164590D01*
X102227000Y-68323340D01*
X101973000Y-68323340D01*
X101814250Y-68164590D01*
X101173590Y-68164590D01*
X100940201Y-68261263D01*
X100761573Y-68439892D01*
X100664900Y-68673281D01*
X97883526Y-68673281D01*
X97890545Y-67272815D01*
X119164630Y-67272815D01*
X119488980Y-68057800D01*
X120089041Y-68658909D01*
X120873459Y-68984628D01*
X121722815Y-68985370D01*
X122507800Y-68661020D01*
X123108909Y-68060959D01*
X123434628Y-67276541D01*
X123435370Y-66427185D01*
X123111020Y-65642200D01*
X122510959Y-65041091D01*
X121726541Y-64715372D01*
X120877185Y-64714630D01*
X120092200Y-65038980D01*
X119491091Y-65639041D01*
X119165372Y-66423459D01*
X119164630Y-67272815D01*
X97890545Y-67272815D01*
X97926365Y-60127000D01*
X177873000Y-60127000D01*
X177873000Y-131873000D01*
G36*
X122430839Y-100397093D02*
X122465000Y-100411278D01*
X122465000Y-100567761D01*
X122464999Y-100567766D01*
X122543785Y-100963843D01*
X122768144Y-101299622D01*
X124700376Y-103231853D01*
X124700378Y-103231856D01*
X124963149Y-103407433D01*
X125036157Y-103456215D01*
X125432234Y-103535001D01*
X125432239Y-103535000D01*
X135783995Y-103535000D01*
X135784000Y-103535001D01*
X136180077Y-103456215D01*
X136515856Y-103231856D01*
X138786929Y-100960783D01*
X138919910Y-101167441D01*
X139068837Y-101269198D01*
X138842330Y-101608190D01*
X138716655Y-102240000D01*
X138842330Y-102871810D01*
X139200222Y-103407433D01*
X139735845Y-103765325D01*
X140367655Y-103891000D01*
X140432345Y-103891000D01*
X141064155Y-103765325D01*
X141599778Y-103407433D01*
X141688267Y-103275000D01*
X152559995Y-103275000D01*
X152560000Y-103275001D01*
X152956077Y-103196215D01*
X153291856Y-102971856D01*
X154100785Y-102162927D01*
X154273459Y-102234628D01*
X155122815Y-102235370D01*
X155907800Y-101911020D01*
X156508909Y-101310959D01*
X156581974Y-101135000D01*
X170876261Y-101135000D01*
X170988980Y-101407800D01*
X171589041Y-102008909D01*
X172373459Y-102334628D01*
X173222815Y-102335370D01*
X174007800Y-102011020D01*
X174015000Y-102003833D01*
X174015000Y-103579868D01*
X166879868Y-110715000D01*
X157900000Y-110715000D01*
X157465654Y-110801397D01*
X157221429Y-110964583D01*
X157097434Y-111047434D01*
X152597434Y-115547434D01*
X152351397Y-115915654D01*
X152265000Y-116350000D01*
X152265000Y-118785000D01*
X150331676Y-118785000D01*
X149958234Y-118535474D01*
X149384745Y-118421400D01*
X149015255Y-118421400D01*
X148441766Y-118535474D01*
X147955585Y-118860330D01*
X147630729Y-119346511D01*
X147516655Y-119920000D01*
X147630729Y-120493489D01*
X147955585Y-120979670D01*
X148270366Y-121190000D01*
X147955585Y-121400330D01*
X147630729Y-121886511D01*
X147516655Y-122460000D01*
X147630729Y-123033489D01*
X147955585Y-123519670D01*
X147969913Y-123529243D01*
X147948683Y-123533238D01*
X147732559Y-123672310D01*
X147587569Y-123884510D01*
X147571269Y-123965000D01*
X146512630Y-123965000D01*
X146503162Y-123914683D01*
X146364090Y-123698559D01*
X146151890Y-123553569D01*
X145900000Y-123502560D01*
X144200000Y-123502560D01*
X143964683Y-123546838D01*
X143748559Y-123685910D01*
X143607048Y-123893019D01*
X143514090Y-123748559D01*
X143301890Y-123603569D01*
X143050000Y-123552560D01*
X141350000Y-123552560D01*
X141114683Y-123596838D01*
X140898559Y-123735910D01*
X140753569Y-123948110D01*
X140702560Y-124200000D01*
X140702560Y-126200000D01*
X140746838Y-126435317D01*
X140885910Y-126651441D01*
X140965000Y-126705481D01*
X140965000Y-128427560D01*
X140175000Y-128427560D01*
X139939683Y-128471838D01*
X139723559Y-128610910D01*
X139578569Y-128823110D01*
X139529585Y-129065000D01*
X138500000Y-129065000D01*
X138103922Y-129143785D01*
X138072172Y-129165000D01*
X137408536Y-129165000D01*
X137534365Y-128913970D01*
X136200000Y-127579605D01*
X134865635Y-128913970D01*
X134991464Y-129165000D01*
X113428711Y-129165000D01*
X111279899Y-127016187D01*
X134057277Y-127016187D01*
X134073503Y-127865387D01*
X134367261Y-128574582D01*
X134686030Y-128734365D01*
X136020395Y-127400000D01*
X136379605Y-127400000D01*
X137713970Y-128734365D01*
X138032739Y-128574582D01*
X138342723Y-127783813D01*
X138326497Y-126934613D01*
X138032739Y-126225418D01*
X137713970Y-126065635D01*
X136379605Y-127400000D01*
X136020395Y-127400000D01*
X134686030Y-126065635D01*
X134367261Y-126225418D01*
X134057277Y-127016187D01*
X111279899Y-127016187D01*
X110149742Y-125886030D01*
X134865635Y-125886030D01*
X136200000Y-127220395D01*
X137534365Y-125886030D01*
X137374582Y-125567261D01*
X136583813Y-125257277D01*
X135734613Y-125273503D01*
X135025418Y-125567261D01*
X134865635Y-125886030D01*
X110149742Y-125886030D01*
X107731856Y-123468144D01*
X107540816Y-123340496D01*
X107699766Y-123238215D01*
X107844756Y-123026015D01*
X107895765Y-122774125D01*
X107895765Y-121074125D01*
X107851487Y-120838808D01*
X107712415Y-120622684D01*
X107572575Y-120527135D01*
X107608023Y-120512452D01*
X107786652Y-120333824D01*
X107883325Y-120100435D01*
X107883325Y-119409875D01*
X107724575Y-119251125D01*
X106375325Y-119251125D01*
X106375325Y-119271125D01*
X106121325Y-119271125D01*
X106121325Y-119251125D01*
X104772075Y-119251125D01*
X104613325Y-119409875D01*
X104613325Y-120100435D01*
X104709998Y-120333824D01*
X104888627Y-120512452D01*
X104925072Y-120527548D01*
X104796884Y-120610035D01*
X104651894Y-120822235D01*
X104638348Y-120889125D01*
X103752836Y-120889125D01*
X103359212Y-120495500D01*
X103353212Y-120463613D01*
X103214140Y-120247489D01*
X103028591Y-120120709D01*
X103173000Y-119976300D01*
X103173000Y-119227000D01*
X103427000Y-119227000D01*
X103427000Y-119976300D01*
X103585750Y-120135050D01*
X103826359Y-120135050D01*
X104059748Y-120038377D01*
X104238377Y-119859749D01*
X104335050Y-119626360D01*
X104335050Y-119385750D01*
X104176300Y-119227000D01*
X103427000Y-119227000D01*
X103173000Y-119227000D01*
X103153000Y-119227000D01*
X103153000Y-118973000D01*
X103173000Y-118973000D01*
X103173000Y-118223700D01*
X103427000Y-118223700D01*
X103427000Y-118973000D01*
X104176300Y-118973000D01*
X104335050Y-118814250D01*
X104335050Y-118573640D01*
X104238377Y-118340251D01*
X104059748Y-118161623D01*
X104026413Y-118147815D01*
X104613325Y-118147815D01*
X104613325Y-118838375D01*
X104772075Y-118997125D01*
X106121325Y-118997125D01*
X106121325Y-117797875D01*
X106375325Y-117797875D01*
X106375325Y-118997125D01*
X107724575Y-118997125D01*
X107883325Y-118838375D01*
X107883325Y-118274125D01*
X108600885Y-118274125D01*
X108600885Y-119974125D01*
X108645163Y-120209442D01*
X108784235Y-120425566D01*
X108929408Y-120524758D01*
X108796884Y-120610035D01*
X108651894Y-120822235D01*
X108600885Y-121074125D01*
X108600885Y-122774125D01*
X108645163Y-123009442D01*
X108784235Y-123225566D01*
X108996435Y-123370556D01*
X109248325Y-123421565D01*
X111248325Y-123421565D01*
X111483642Y-123377287D01*
X111649802Y-123270366D01*
X111796435Y-123370556D01*
X112048325Y-123421565D01*
X114048325Y-123421565D01*
X114283642Y-123377287D01*
X114499766Y-123238215D01*
X114644756Y-123026015D01*
X114695765Y-122774125D01*
X114695765Y-121074125D01*
X114651487Y-120838808D01*
X114512415Y-120622684D01*
X114367242Y-120523492D01*
X114499766Y-120438215D01*
X114644756Y-120226015D01*
X114695765Y-119974125D01*
X114695765Y-118274125D01*
X114651487Y-118038808D01*
X114512415Y-117822684D01*
X114300215Y-117677694D01*
X114048325Y-117626685D01*
X112048325Y-117626685D01*
X111813008Y-117670963D01*
X111646848Y-117777884D01*
X111500215Y-117677694D01*
X111248325Y-117626685D01*
X109248325Y-117626685D01*
X109013008Y-117670963D01*
X108796884Y-117810035D01*
X108651894Y-118022235D01*
X108600885Y-118274125D01*
X107883325Y-118274125D01*
X107883325Y-118147815D01*
X107786652Y-117914426D01*
X107608023Y-117735798D01*
X107374634Y-117639125D01*
X106534075Y-117639125D01*
X106375325Y-117797875D01*
X106121325Y-117797875D01*
X105962575Y-117639125D01*
X105122016Y-117639125D01*
X104888627Y-117735798D01*
X104709998Y-117914426D01*
X104613325Y-118147815D01*
X104026413Y-118147815D01*
X103826359Y-118064950D01*
X103585750Y-118064950D01*
X103427000Y-118223700D01*
X103173000Y-118223700D01*
X103014250Y-118064950D01*
X102773641Y-118064950D01*
X102540252Y-118161623D01*
X102361623Y-118340251D01*
X102346566Y-118376602D01*
X102264140Y-118248509D01*
X102051940Y-118103519D01*
X101800050Y-118052510D01*
X100999950Y-118052510D01*
X100933571Y-118065000D01*
X99600005Y-118065000D01*
X99600000Y-118064999D01*
X99203923Y-118143785D01*
X98868144Y-118368144D01*
X98868142Y-118368147D01*
X98833729Y-118402560D01*
X97300000Y-118402560D01*
X97064683Y-118446838D01*
X96848559Y-118585910D01*
X96703569Y-118798110D01*
X96652560Y-119050000D01*
X96652560Y-120750000D01*
X96696838Y-120985317D01*
X96835910Y-121201441D01*
X97048110Y-121346431D01*
X97300000Y-121397440D01*
X99300000Y-121397440D01*
X99535317Y-121353162D01*
X99751441Y-121214090D01*
X99896431Y-121001890D01*
X99947440Y-120750000D01*
X99947440Y-120216271D01*
X100028711Y-120135000D01*
X100938273Y-120135000D01*
X100999950Y-120147490D01*
X101634255Y-120147490D01*
X101498509Y-120234840D01*
X101353519Y-120447040D01*
X101302510Y-120698930D01*
X101302510Y-121499030D01*
X101346788Y-121734347D01*
X101485860Y-121950471D01*
X101698060Y-122095461D01*
X101949950Y-122146470D01*
X102082758Y-122146470D01*
X102592267Y-122655978D01*
X102592269Y-122655981D01*
X102727638Y-122746431D01*
X102928047Y-122880340D01*
X103324125Y-122959126D01*
X103324130Y-122959125D01*
X104635695Y-122959125D01*
X104645163Y-123009442D01*
X104745262Y-123165000D01*
X96828711Y-123165000D01*
X95335000Y-121671288D01*
X95335000Y-121390854D01*
X95535317Y-121353162D01*
X95751441Y-121214090D01*
X95896431Y-121001890D01*
X95947440Y-120750000D01*
X95947440Y-119050000D01*
X95903162Y-118814683D01*
X95764090Y-118598559D01*
X95551890Y-118453569D01*
X95300000Y-118402560D01*
X93300000Y-118402560D01*
X93064683Y-118446838D01*
X93035000Y-118465938D01*
X93035000Y-115528712D01*
X93177560Y-115386152D01*
X93177560Y-115705000D01*
X93221838Y-115940317D01*
X93360910Y-116156441D01*
X93573110Y-116301431D01*
X93825000Y-116352440D01*
X94014253Y-116352440D01*
X94165654Y-116453603D01*
X94600000Y-116540000D01*
X99795000Y-116540000D01*
X100229346Y-116453603D01*
X100597566Y-116207566D01*
X102002566Y-114802566D01*
X102168156Y-114554743D01*
X102248603Y-114434346D01*
X102335000Y-114000000D01*
X102335000Y-112285750D01*
X105314590Y-112285750D01*
X105314590Y-112926410D01*
X105411263Y-113159799D01*
X105589892Y-113338427D01*
X105823281Y-113435100D01*
X107463430Y-113435100D01*
X107622180Y-113276350D01*
X107622180Y-112127000D01*
X107876180Y-112127000D01*
X107876180Y-113276350D01*
X108034930Y-113435100D01*
X109675079Y-113435100D01*
X109908468Y-113338427D01*
X110087097Y-113159799D01*
X110183770Y-112926410D01*
X110183770Y-112285750D01*
X110025020Y-112127000D01*
X107876180Y-112127000D01*
X107622180Y-112127000D01*
X105473340Y-112127000D01*
X105314590Y-112285750D01*
X102335000Y-112285750D01*
X102335000Y-111073590D01*
X105314590Y-111073590D01*
X105314590Y-111714250D01*
X105473340Y-111873000D01*
X107622180Y-111873000D01*
X107622180Y-110723650D01*
X107876180Y-110723650D01*
X107876180Y-111873000D01*
X110025020Y-111873000D01*
X110183770Y-111714250D01*
X110183770Y-111073590D01*
X110087097Y-110840201D01*
X109908468Y-110661573D01*
X109675079Y-110564900D01*
X108034930Y-110564900D01*
X107876180Y-110723650D01*
X107622180Y-110723650D01*
X107463430Y-110564900D01*
X105823281Y-110564900D01*
X105589892Y-110661573D01*
X105411263Y-110840201D01*
X105314590Y-111073590D01*
X102335000Y-111073590D01*
X102335000Y-110000000D01*
X102248603Y-109565654D01*
X102002566Y-109197434D01*
X101740132Y-108935000D01*
X117013868Y-108935000D01*
X117234560Y-109155692D01*
X117234560Y-109722000D01*
X117278838Y-109957317D01*
X117417910Y-110173441D01*
X117630110Y-110318431D01*
X117818314Y-110356543D01*
X117646683Y-110388838D01*
X117430559Y-110527910D01*
X117285569Y-110740110D01*
X117234560Y-110992000D01*
X117234560Y-112008000D01*
X117278838Y-112243317D01*
X117417910Y-112459441D01*
X117630110Y-112604431D01*
X117818314Y-112642543D01*
X117646683Y-112674838D01*
X117528324Y-112751000D01*
X115697850Y-112751000D01*
X115697850Y-111199900D01*
X115653572Y-110964583D01*
X115514500Y-110748459D01*
X115302300Y-110603469D01*
X115050410Y-110552460D01*
X111451230Y-110552460D01*
X111215913Y-110596738D01*
X110999789Y-110735810D01*
X110854799Y-110948010D01*
X110803790Y-111199900D01*
X110803790Y-112800100D01*
X110848068Y-113035417D01*
X110987140Y-113251541D01*
X111199340Y-113396531D01*
X111451230Y-113447540D01*
X113234648Y-113447540D01*
X114304962Y-114517853D01*
X114304964Y-114517856D01*
X114506249Y-114652349D01*
X114640742Y-114742215D01*
X115036820Y-114821000D01*
X117528494Y-114821000D01*
X117630110Y-114890431D01*
X117882000Y-114941440D01*
X119914000Y-114941440D01*
X120149317Y-114897162D01*
X120365441Y-114758090D01*
X120510431Y-114545890D01*
X120561440Y-114294000D01*
X120561440Y-113278000D01*
X120517162Y-113042683D01*
X120378090Y-112826559D01*
X120165890Y-112681569D01*
X119977686Y-112643457D01*
X120149317Y-112611162D01*
X120267676Y-112535000D01*
X123838560Y-112535000D01*
X123838560Y-113328800D01*
X123882838Y-113564117D01*
X124021910Y-113780241D01*
X124234110Y-113925231D01*
X124467000Y-113972392D01*
X124467000Y-114101995D01*
X124466999Y-114102000D01*
X124545785Y-114498077D01*
X124770144Y-114833856D01*
X126165000Y-116228711D01*
X126165000Y-120371289D01*
X125647163Y-120889125D01*
X125460955Y-120889125D01*
X125451487Y-120838808D01*
X125312415Y-120622684D01*
X125167242Y-120523492D01*
X125299766Y-120438215D01*
X125444756Y-120226015D01*
X125495765Y-119974125D01*
X125495765Y-118274125D01*
X125451487Y-118038808D01*
X125312415Y-117822684D01*
X125100215Y-117677694D01*
X124848325Y-117626685D01*
X122848325Y-117626685D01*
X122613008Y-117670963D01*
X122396884Y-117810035D01*
X122251894Y-118022235D01*
X122200885Y-118274125D01*
X122200885Y-118354273D01*
X122144019Y-118392269D01*
X121495765Y-119040523D01*
X121495765Y-118274125D01*
X121451487Y-118038808D01*
X121312415Y-117822684D01*
X121100215Y-117677694D01*
X120848325Y-117626685D01*
X118848325Y-117626685D01*
X118613008Y-117670963D01*
X118446848Y-117777884D01*
X118300215Y-117677694D01*
X118048325Y-117626685D01*
X116048325Y-117626685D01*
X115813008Y-117670963D01*
X115596884Y-117810035D01*
X115451894Y-118022235D01*
X115400885Y-118274125D01*
X115400885Y-119974125D01*
X115445163Y-120209442D01*
X115584235Y-120425566D01*
X115729408Y-120524758D01*
X115596884Y-120610035D01*
X115451894Y-120822235D01*
X115400885Y-121074125D01*
X115400885Y-122774125D01*
X115445163Y-123009442D01*
X115584235Y-123225566D01*
X115796435Y-123370556D01*
X116048325Y-123421565D01*
X118048325Y-123421565D01*
X118283642Y-123377287D01*
X118449802Y-123270366D01*
X118596435Y-123370556D01*
X118848325Y-123421565D01*
X120848325Y-123421565D01*
X121083642Y-123377287D01*
X121299766Y-123238215D01*
X121444756Y-123026015D01*
X121495765Y-122774125D01*
X121495765Y-122567947D01*
X122200885Y-121862826D01*
X122200885Y-122774125D01*
X122245163Y-123009442D01*
X122384235Y-123225566D01*
X122596435Y-123370556D01*
X122848325Y-123421565D01*
X124848325Y-123421565D01*
X125083642Y-123377287D01*
X125299766Y-123238215D01*
X125444756Y-123026015D01*
X125458302Y-122959125D01*
X126075870Y-122959125D01*
X126075875Y-122959126D01*
X126471952Y-122880340D01*
X126807731Y-122655981D01*
X127931853Y-121531858D01*
X127931856Y-121531856D01*
X128156215Y-121196077D01*
X128188881Y-121031856D01*
X128235001Y-120800000D01*
X128235000Y-120799995D01*
X128235000Y-119935750D01*
X133665000Y-119935750D01*
X133665000Y-121676309D01*
X133761673Y-121909698D01*
X133940301Y-122088327D01*
X134173690Y-122185000D01*
X136014250Y-122185000D01*
X136173000Y-122026250D01*
X136173000Y-119777000D01*
X136427000Y-119777000D01*
X136427000Y-122026250D01*
X136585750Y-122185000D01*
X138426310Y-122185000D01*
X138659699Y-122088327D01*
X138838327Y-121909698D01*
X138935000Y-121676309D01*
X138935000Y-120200000D01*
X140702560Y-120200000D01*
X140702560Y-122200000D01*
X140746838Y-122435317D01*
X140885910Y-122651441D01*
X141098110Y-122796431D01*
X141350000Y-122847440D01*
X143050000Y-122847440D01*
X143285317Y-122803162D01*
X143501441Y-122664090D01*
X143642952Y-122456981D01*
X143735910Y-122601441D01*
X143948110Y-122746431D01*
X144200000Y-122797440D01*
X145900000Y-122797440D01*
X146135317Y-122753162D01*
X146351441Y-122614090D01*
X146496431Y-122401890D01*
X146547440Y-122150000D01*
X146547440Y-120150000D01*
X146503162Y-119914683D01*
X146364090Y-119698559D01*
X146151890Y-119553569D01*
X146085000Y-119540023D01*
X146085000Y-115350000D01*
X146049196Y-115170000D01*
X146006215Y-114953922D01*
X145875364Y-114758090D01*
X145781856Y-114618144D01*
X145781853Y-114618142D01*
X145552857Y-114389145D01*
X145462360Y-114248509D01*
X145250160Y-114103519D01*
X144998270Y-114052510D01*
X144198170Y-114052510D01*
X143962853Y-114096788D01*
X143746729Y-114235860D01*
X143619949Y-114421409D01*
X143475540Y-114277000D01*
X142726240Y-114277000D01*
X142726240Y-114297000D01*
X142472240Y-114297000D01*
X142472240Y-114277000D01*
X141722940Y-114277000D01*
X141564190Y-114435750D01*
X141564190Y-114676359D01*
X141660863Y-114909748D01*
X141839491Y-115088377D01*
X141875842Y-115103434D01*
X141747749Y-115185860D01*
X141602759Y-115398060D01*
X141555856Y-115629672D01*
X141468144Y-115717384D01*
X141243785Y-116053163D01*
X141164999Y-116449240D01*
X141165000Y-116449245D01*
X141165000Y-119587370D01*
X141114683Y-119596838D01*
X140898559Y-119735910D01*
X140753569Y-119948110D01*
X140702560Y-120200000D01*
X138935000Y-120200000D01*
X138935000Y-119935750D01*
X138776250Y-119777000D01*
X136427000Y-119777000D01*
X136173000Y-119777000D01*
X133823750Y-119777000D01*
X133665000Y-119935750D01*
X128235000Y-119935750D01*
X128235000Y-117623691D01*
X133665000Y-117623691D01*
X133665000Y-119364250D01*
X133823750Y-119523000D01*
X136173000Y-119523000D01*
X136173000Y-117273750D01*
X136427000Y-117273750D01*
X136427000Y-119523000D01*
X138776250Y-119523000D01*
X138935000Y-119364250D01*
X138935000Y-117623691D01*
X138838327Y-117390302D01*
X138659699Y-117211673D01*
X138426310Y-117115000D01*
X136585750Y-117115000D01*
X136427000Y-117273750D01*
X136173000Y-117273750D01*
X136014250Y-117115000D01*
X134173690Y-117115000D01*
X133940301Y-117211673D01*
X133761673Y-117390302D01*
X133665000Y-117623691D01*
X128235000Y-117623691D01*
X128235000Y-115800005D01*
X128235001Y-115800000D01*
X128156215Y-115403923D01*
X128118112Y-115346897D01*
X127931856Y-115068144D01*
X127931853Y-115068142D01*
X126779090Y-113915378D01*
X126969441Y-113792890D01*
X127114431Y-113580690D01*
X127165440Y-113328800D01*
X127165440Y-112535000D01*
X133652560Y-112535000D01*
X133652560Y-113450000D01*
X133696838Y-113685317D01*
X133835910Y-113901441D01*
X134048110Y-114046431D01*
X134300000Y-114097440D01*
X138300000Y-114097440D01*
X138535317Y-114053162D01*
X138751441Y-113914090D01*
X138896431Y-113701890D01*
X138912276Y-113623641D01*
X141564190Y-113623641D01*
X141564190Y-113864250D01*
X141722940Y-114023000D01*
X142472240Y-114023000D01*
X142472240Y-113273700D01*
X142726240Y-113273700D01*
X142726240Y-114023000D01*
X143475540Y-114023000D01*
X143634290Y-113864250D01*
X143634290Y-113623641D01*
X143537617Y-113390252D01*
X143358989Y-113211623D01*
X143125600Y-113114950D01*
X142884990Y-113114950D01*
X142726240Y-113273700D01*
X142472240Y-113273700D01*
X142313490Y-113114950D01*
X142072880Y-113114950D01*
X141839491Y-113211623D01*
X141660863Y-113390252D01*
X141564190Y-113623641D01*
X138912276Y-113623641D01*
X138947440Y-113450000D01*
X138947440Y-109650000D01*
X138903162Y-109414683D01*
X138764090Y-109198559D01*
X138551890Y-109053569D01*
X138300000Y-109002560D01*
X137616624Y-109002560D01*
X138008909Y-108610959D01*
X138334628Y-107826541D01*
X138335370Y-106977185D01*
X138011020Y-106192200D01*
X137410959Y-105591091D01*
X136626541Y-105265372D01*
X135777185Y-105264630D01*
X134992200Y-105588980D01*
X134391091Y-106189041D01*
X134065372Y-106973459D01*
X134064630Y-107822815D01*
X134388980Y-108607800D01*
X134783052Y-109002560D01*
X134300000Y-109002560D01*
X134064683Y-109046838D01*
X133848559Y-109185910D01*
X133703569Y-109398110D01*
X133652560Y-109650000D01*
X133652560Y-110465000D01*
X127165440Y-110465000D01*
X127165440Y-109671200D01*
X127121162Y-109435883D01*
X126982090Y-109219759D01*
X126769890Y-109074769D01*
X126518000Y-109023760D01*
X124486000Y-109023760D01*
X124250683Y-109068038D01*
X124034559Y-109207110D01*
X123889569Y-109419310D01*
X123838560Y-109671200D01*
X123838560Y-110465000D01*
X120267506Y-110465000D01*
X120165890Y-110395569D01*
X119977686Y-110357457D01*
X120149317Y-110325162D01*
X120365441Y-110186090D01*
X120510431Y-109973890D01*
X120561440Y-109722000D01*
X120561440Y-108706000D01*
X120517162Y-108470683D01*
X120378090Y-108254559D01*
X120165890Y-108109569D01*
X120033000Y-108082658D01*
X120033000Y-105922132D01*
X121852566Y-104102566D01*
X122098604Y-103734345D01*
X122185000Y-103300000D01*
X122185000Y-100150825D01*
X122430839Y-100397093D01*
X122430839Y-100397093D01*
G37*
X122430839Y-100397093D02*
X122465000Y-100411278D01*
X122465000Y-100567761D01*
X122464999Y-100567766D01*
X122543785Y-100963843D01*
X122768144Y-101299622D01*
X124700376Y-103231853D01*
X124700378Y-103231856D01*
X124963149Y-103407433D01*
X125036157Y-103456215D01*
X125432234Y-103535001D01*
X125432239Y-103535000D01*
X135783995Y-103535000D01*
X135784000Y-103535001D01*
X136180077Y-103456215D01*
X136515856Y-103231856D01*
X138786929Y-100960783D01*
X138919910Y-101167441D01*
X139068837Y-101269198D01*
X138842330Y-101608190D01*
X138716655Y-102240000D01*
X138842330Y-102871810D01*
X139200222Y-103407433D01*
X139735845Y-103765325D01*
X140367655Y-103891000D01*
X140432345Y-103891000D01*
X141064155Y-103765325D01*
X141599778Y-103407433D01*
X141688267Y-103275000D01*
X152559995Y-103275000D01*
X152560000Y-103275001D01*
X152956077Y-103196215D01*
X153291856Y-102971856D01*
X154100785Y-102162927D01*
X154273459Y-102234628D01*
X155122815Y-102235370D01*
X155907800Y-101911020D01*
X156508909Y-101310959D01*
X156581974Y-101135000D01*
X170876261Y-101135000D01*
X170988980Y-101407800D01*
X171589041Y-102008909D01*
X172373459Y-102334628D01*
X173222815Y-102335370D01*
X174007800Y-102011020D01*
X174015000Y-102003833D01*
X174015000Y-103579868D01*
X166879868Y-110715000D01*
X157900000Y-110715000D01*
X157465654Y-110801397D01*
X157221429Y-110964583D01*
X157097434Y-111047434D01*
X152597434Y-115547434D01*
X152351397Y-115915654D01*
X152265000Y-116350000D01*
X152265000Y-118785000D01*
X150331676Y-118785000D01*
X149958234Y-118535474D01*
X149384745Y-118421400D01*
X149015255Y-118421400D01*
X148441766Y-118535474D01*
X147955585Y-118860330D01*
X147630729Y-119346511D01*
X147516655Y-119920000D01*
X147630729Y-120493489D01*
X147955585Y-120979670D01*
X148270366Y-121190000D01*
X147955585Y-121400330D01*
X147630729Y-121886511D01*
X147516655Y-122460000D01*
X147630729Y-123033489D01*
X147955585Y-123519670D01*
X147969913Y-123529243D01*
X147948683Y-123533238D01*
X147732559Y-123672310D01*
X147587569Y-123884510D01*
X147571269Y-123965000D01*
X146512630Y-123965000D01*
X146503162Y-123914683D01*
X146364090Y-123698559D01*
X146151890Y-123553569D01*
X145900000Y-123502560D01*
X144200000Y-123502560D01*
X143964683Y-123546838D01*
X143748559Y-123685910D01*
X143607048Y-123893019D01*
X143514090Y-123748559D01*
X143301890Y-123603569D01*
X143050000Y-123552560D01*
X141350000Y-123552560D01*
X141114683Y-123596838D01*
X140898559Y-123735910D01*
X140753569Y-123948110D01*
X140702560Y-124200000D01*
X140702560Y-126200000D01*
X140746838Y-126435317D01*
X140885910Y-126651441D01*
X140965000Y-126705481D01*
X140965000Y-128427560D01*
X140175000Y-128427560D01*
X139939683Y-128471838D01*
X139723559Y-128610910D01*
X139578569Y-128823110D01*
X139529585Y-129065000D01*
X138500000Y-129065000D01*
X138103922Y-129143785D01*
X138072172Y-129165000D01*
X137408536Y-129165000D01*
X137534365Y-128913970D01*
X136200000Y-127579605D01*
X134865635Y-128913970D01*
X134991464Y-129165000D01*
X113428711Y-129165000D01*
X111279899Y-127016187D01*
X134057277Y-127016187D01*
X134073503Y-127865387D01*
X134367261Y-128574582D01*
X134686030Y-128734365D01*
X136020395Y-127400000D01*
X136379605Y-127400000D01*
X137713970Y-128734365D01*
X138032739Y-128574582D01*
X138342723Y-127783813D01*
X138326497Y-126934613D01*
X138032739Y-126225418D01*
X137713970Y-126065635D01*
X136379605Y-127400000D01*
X136020395Y-127400000D01*
X134686030Y-126065635D01*
X134367261Y-126225418D01*
X134057277Y-127016187D01*
X111279899Y-127016187D01*
X110149742Y-125886030D01*
X134865635Y-125886030D01*
X136200000Y-127220395D01*
X137534365Y-125886030D01*
X137374582Y-125567261D01*
X136583813Y-125257277D01*
X135734613Y-125273503D01*
X135025418Y-125567261D01*
X134865635Y-125886030D01*
X110149742Y-125886030D01*
X107731856Y-123468144D01*
X107540816Y-123340496D01*
X107699766Y-123238215D01*
X107844756Y-123026015D01*
X107895765Y-122774125D01*
X107895765Y-121074125D01*
X107851487Y-120838808D01*
X107712415Y-120622684D01*
X107572575Y-120527135D01*
X107608023Y-120512452D01*
X107786652Y-120333824D01*
X107883325Y-120100435D01*
X107883325Y-119409875D01*
X107724575Y-119251125D01*
X106375325Y-119251125D01*
X106375325Y-119271125D01*
X106121325Y-119271125D01*
X106121325Y-119251125D01*
X104772075Y-119251125D01*
X104613325Y-119409875D01*
X104613325Y-120100435D01*
X104709998Y-120333824D01*
X104888627Y-120512452D01*
X104925072Y-120527548D01*
X104796884Y-120610035D01*
X104651894Y-120822235D01*
X104638348Y-120889125D01*
X103752836Y-120889125D01*
X103359212Y-120495500D01*
X103353212Y-120463613D01*
X103214140Y-120247489D01*
X103028591Y-120120709D01*
X103173000Y-119976300D01*
X103173000Y-119227000D01*
X103427000Y-119227000D01*
X103427000Y-119976300D01*
X103585750Y-120135050D01*
X103826359Y-120135050D01*
X104059748Y-120038377D01*
X104238377Y-119859749D01*
X104335050Y-119626360D01*
X104335050Y-119385750D01*
X104176300Y-119227000D01*
X103427000Y-119227000D01*
X103173000Y-119227000D01*
X103153000Y-119227000D01*
X103153000Y-118973000D01*
X103173000Y-118973000D01*
X103173000Y-118223700D01*
X103427000Y-118223700D01*
X103427000Y-118973000D01*
X104176300Y-118973000D01*
X104335050Y-118814250D01*
X104335050Y-118573640D01*
X104238377Y-118340251D01*
X104059748Y-118161623D01*
X104026413Y-118147815D01*
X104613325Y-118147815D01*
X104613325Y-118838375D01*
X104772075Y-118997125D01*
X106121325Y-118997125D01*
X106121325Y-117797875D01*
X106375325Y-117797875D01*
X106375325Y-118997125D01*
X107724575Y-118997125D01*
X107883325Y-118838375D01*
X107883325Y-118274125D01*
X108600885Y-118274125D01*
X108600885Y-119974125D01*
X108645163Y-120209442D01*
X108784235Y-120425566D01*
X108929408Y-120524758D01*
X108796884Y-120610035D01*
X108651894Y-120822235D01*
X108600885Y-121074125D01*
X108600885Y-122774125D01*
X108645163Y-123009442D01*
X108784235Y-123225566D01*
X108996435Y-123370556D01*
X109248325Y-123421565D01*
X111248325Y-123421565D01*
X111483642Y-123377287D01*
X111649802Y-123270366D01*
X111796435Y-123370556D01*
X112048325Y-123421565D01*
X114048325Y-123421565D01*
X114283642Y-123377287D01*
X114499766Y-123238215D01*
X114644756Y-123026015D01*
X114695765Y-122774125D01*
X114695765Y-121074125D01*
X114651487Y-120838808D01*
X114512415Y-120622684D01*
X114367242Y-120523492D01*
X114499766Y-120438215D01*
X114644756Y-120226015D01*
X114695765Y-119974125D01*
X114695765Y-118274125D01*
X114651487Y-118038808D01*
X114512415Y-117822684D01*
X114300215Y-117677694D01*
X114048325Y-117626685D01*
X112048325Y-117626685D01*
X111813008Y-117670963D01*
X111646848Y-117777884D01*
X111500215Y-117677694D01*
X111248325Y-117626685D01*
X109248325Y-117626685D01*
X109013008Y-117670963D01*
X108796884Y-117810035D01*
X108651894Y-118022235D01*
X108600885Y-118274125D01*
X107883325Y-118274125D01*
X107883325Y-118147815D01*
X107786652Y-117914426D01*
X107608023Y-117735798D01*
X107374634Y-117639125D01*
X106534075Y-117639125D01*
X106375325Y-117797875D01*
X106121325Y-117797875D01*
X105962575Y-117639125D01*
X105122016Y-117639125D01*
X104888627Y-117735798D01*
X104709998Y-117914426D01*
X104613325Y-118147815D01*
X104026413Y-118147815D01*
X103826359Y-118064950D01*
X103585750Y-118064950D01*
X103427000Y-118223700D01*
X103173000Y-118223700D01*
X103014250Y-118064950D01*
X102773641Y-118064950D01*
X102540252Y-118161623D01*
X102361623Y-118340251D01*
X102346566Y-118376602D01*
X102264140Y-118248509D01*
X102051940Y-118103519D01*
X101800050Y-118052510D01*
X100999950Y-118052510D01*
X100933571Y-118065000D01*
X99600005Y-118065000D01*
X99600000Y-118064999D01*
X99203923Y-118143785D01*
X98868144Y-118368144D01*
X98868142Y-118368147D01*
X98833729Y-118402560D01*
X97300000Y-118402560D01*
X97064683Y-118446838D01*
X96848559Y-118585910D01*
X96703569Y-118798110D01*
X96652560Y-119050000D01*
X96652560Y-120750000D01*
X96696838Y-120985317D01*
X96835910Y-121201441D01*
X97048110Y-121346431D01*
X97300000Y-121397440D01*
X99300000Y-121397440D01*
X99535317Y-121353162D01*
X99751441Y-121214090D01*
X99896431Y-121001890D01*
X99947440Y-120750000D01*
X99947440Y-120216271D01*
X100028711Y-120135000D01*
X100938273Y-120135000D01*
X100999950Y-120147490D01*
X101634255Y-120147490D01*
X101498509Y-120234840D01*
X101353519Y-120447040D01*
X101302510Y-120698930D01*
X101302510Y-121499030D01*
X101346788Y-121734347D01*
X101485860Y-121950471D01*
X101698060Y-122095461D01*
X101949950Y-122146470D01*
X102082758Y-122146470D01*
X102592267Y-122655978D01*
X102592269Y-122655981D01*
X102727638Y-122746431D01*
X102928047Y-122880340D01*
X103324125Y-122959126D01*
X103324130Y-122959125D01*
X104635695Y-122959125D01*
X104645163Y-123009442D01*
X104745262Y-123165000D01*
X96828711Y-123165000D01*
X95335000Y-121671288D01*
X95335000Y-121390854D01*
X95535317Y-121353162D01*
X95751441Y-121214090D01*
X95896431Y-121001890D01*
X95947440Y-120750000D01*
X95947440Y-119050000D01*
X95903162Y-118814683D01*
X95764090Y-118598559D01*
X95551890Y-118453569D01*
X95300000Y-118402560D01*
X93300000Y-118402560D01*
X93064683Y-118446838D01*
X93035000Y-118465938D01*
X93035000Y-115528712D01*
X93177560Y-115386152D01*
X93177560Y-115705000D01*
X93221838Y-115940317D01*
X93360910Y-116156441D01*
X93573110Y-116301431D01*
X93825000Y-116352440D01*
X94014253Y-116352440D01*
X94165654Y-116453603D01*
X94600000Y-116540000D01*
X99795000Y-116540000D01*
X100229346Y-116453603D01*
X100597566Y-116207566D01*
X102002566Y-114802566D01*
X102168156Y-114554743D01*
X102248603Y-114434346D01*
X102335000Y-114000000D01*
X102335000Y-112285750D01*
X105314590Y-112285750D01*
X105314590Y-112926410D01*
X105411263Y-113159799D01*
X105589892Y-113338427D01*
X105823281Y-113435100D01*
X107463430Y-113435100D01*
X107622180Y-113276350D01*
X107622180Y-112127000D01*
X107876180Y-112127000D01*
X107876180Y-113276350D01*
X108034930Y-113435100D01*
X109675079Y-113435100D01*
X109908468Y-113338427D01*
X110087097Y-113159799D01*
X110183770Y-112926410D01*
X110183770Y-112285750D01*
X110025020Y-112127000D01*
X107876180Y-112127000D01*
X107622180Y-112127000D01*
X105473340Y-112127000D01*
X105314590Y-112285750D01*
X102335000Y-112285750D01*
X102335000Y-111073590D01*
X105314590Y-111073590D01*
X105314590Y-111714250D01*
X105473340Y-111873000D01*
X107622180Y-111873000D01*
X107622180Y-110723650D01*
X107876180Y-110723650D01*
X107876180Y-111873000D01*
X110025020Y-111873000D01*
X110183770Y-111714250D01*
X110183770Y-111073590D01*
X110087097Y-110840201D01*
X109908468Y-110661573D01*
X109675079Y-110564900D01*
X108034930Y-110564900D01*
X107876180Y-110723650D01*
X107622180Y-110723650D01*
X107463430Y-110564900D01*
X105823281Y-110564900D01*
X105589892Y-110661573D01*
X105411263Y-110840201D01*
X105314590Y-111073590D01*
X102335000Y-111073590D01*
X102335000Y-110000000D01*
X102248603Y-109565654D01*
X102002566Y-109197434D01*
X101740132Y-108935000D01*
X117013868Y-108935000D01*
X117234560Y-109155692D01*
X117234560Y-109722000D01*
X117278838Y-109957317D01*
X117417910Y-110173441D01*
X117630110Y-110318431D01*
X117818314Y-110356543D01*
X117646683Y-110388838D01*
X117430559Y-110527910D01*
X117285569Y-110740110D01*
X117234560Y-110992000D01*
X117234560Y-112008000D01*
X117278838Y-112243317D01*
X117417910Y-112459441D01*
X117630110Y-112604431D01*
X117818314Y-112642543D01*
X117646683Y-112674838D01*
X117528324Y-112751000D01*
X115697850Y-112751000D01*
X115697850Y-111199900D01*
X115653572Y-110964583D01*
X115514500Y-110748459D01*
X115302300Y-110603469D01*
X115050410Y-110552460D01*
X111451230Y-110552460D01*
X111215913Y-110596738D01*
X110999789Y-110735810D01*
X110854799Y-110948010D01*
X110803790Y-111199900D01*
X110803790Y-112800100D01*
X110848068Y-113035417D01*
X110987140Y-113251541D01*
X111199340Y-113396531D01*
X111451230Y-113447540D01*
X113234648Y-113447540D01*
X114304962Y-114517853D01*
X114304964Y-114517856D01*
X114506249Y-114652349D01*
X114640742Y-114742215D01*
X115036820Y-114821000D01*
X117528494Y-114821000D01*
X117630110Y-114890431D01*
X117882000Y-114941440D01*
X119914000Y-114941440D01*
X120149317Y-114897162D01*
X120365441Y-114758090D01*
X120510431Y-114545890D01*
X120561440Y-114294000D01*
X120561440Y-113278000D01*
X120517162Y-113042683D01*
X120378090Y-112826559D01*
X120165890Y-112681569D01*
X119977686Y-112643457D01*
X120149317Y-112611162D01*
X120267676Y-112535000D01*
X123838560Y-112535000D01*
X123838560Y-113328800D01*
X123882838Y-113564117D01*
X124021910Y-113780241D01*
X124234110Y-113925231D01*
X124467000Y-113972392D01*
X124467000Y-114101995D01*
X124466999Y-114102000D01*
X124545785Y-114498077D01*
X124770144Y-114833856D01*
X126165000Y-116228711D01*
X126165000Y-120371289D01*
X125647163Y-120889125D01*
X125460955Y-120889125D01*
X125451487Y-120838808D01*
X125312415Y-120622684D01*
X125167242Y-120523492D01*
X125299766Y-120438215D01*
X125444756Y-120226015D01*
X125495765Y-119974125D01*
X125495765Y-118274125D01*
X125451487Y-118038808D01*
X125312415Y-117822684D01*
X125100215Y-117677694D01*
X124848325Y-117626685D01*
X122848325Y-117626685D01*
X122613008Y-117670963D01*
X122396884Y-117810035D01*
X122251894Y-118022235D01*
X122200885Y-118274125D01*
X122200885Y-118354273D01*
X122144019Y-118392269D01*
X121495765Y-119040523D01*
X121495765Y-118274125D01*
X121451487Y-118038808D01*
X121312415Y-117822684D01*
X121100215Y-117677694D01*
X120848325Y-117626685D01*
X118848325Y-117626685D01*
X118613008Y-117670963D01*
X118446848Y-117777884D01*
X118300215Y-117677694D01*
X118048325Y-117626685D01*
X116048325Y-117626685D01*
X115813008Y-117670963D01*
X115596884Y-117810035D01*
X115451894Y-118022235D01*
X115400885Y-118274125D01*
X115400885Y-119974125D01*
X115445163Y-120209442D01*
X115584235Y-120425566D01*
X115729408Y-120524758D01*
X115596884Y-120610035D01*
X115451894Y-120822235D01*
X115400885Y-121074125D01*
X115400885Y-122774125D01*
X115445163Y-123009442D01*
X115584235Y-123225566D01*
X115796435Y-123370556D01*
X116048325Y-123421565D01*
X118048325Y-123421565D01*
X118283642Y-123377287D01*
X118449802Y-123270366D01*
X118596435Y-123370556D01*
X118848325Y-123421565D01*
X120848325Y-123421565D01*
X121083642Y-123377287D01*
X121299766Y-123238215D01*
X121444756Y-123026015D01*
X121495765Y-122774125D01*
X121495765Y-122567947D01*
X122200885Y-121862826D01*
X122200885Y-122774125D01*
X122245163Y-123009442D01*
X122384235Y-123225566D01*
X122596435Y-123370556D01*
X122848325Y-123421565D01*
X124848325Y-123421565D01*
X125083642Y-123377287D01*
X125299766Y-123238215D01*
X125444756Y-123026015D01*
X125458302Y-122959125D01*
X126075870Y-122959125D01*
X126075875Y-122959126D01*
X126471952Y-122880340D01*
X126807731Y-122655981D01*
X127931853Y-121531858D01*
X127931856Y-121531856D01*
X128156215Y-121196077D01*
X128188881Y-121031856D01*
X128235001Y-120800000D01*
X128235000Y-120799995D01*
X128235000Y-119935750D01*
X133665000Y-119935750D01*
X133665000Y-121676309D01*
X133761673Y-121909698D01*
X133940301Y-122088327D01*
X134173690Y-122185000D01*
X136014250Y-122185000D01*
X136173000Y-122026250D01*
X136173000Y-119777000D01*
X136427000Y-119777000D01*
X136427000Y-122026250D01*
X136585750Y-122185000D01*
X138426310Y-122185000D01*
X138659699Y-122088327D01*
X138838327Y-121909698D01*
X138935000Y-121676309D01*
X138935000Y-120200000D01*
X140702560Y-120200000D01*
X140702560Y-122200000D01*
X140746838Y-122435317D01*
X140885910Y-122651441D01*
X141098110Y-122796431D01*
X141350000Y-122847440D01*
X143050000Y-122847440D01*
X143285317Y-122803162D01*
X143501441Y-122664090D01*
X143642952Y-122456981D01*
X143735910Y-122601441D01*
X143948110Y-122746431D01*
X144200000Y-122797440D01*
X145900000Y-122797440D01*
X146135317Y-122753162D01*
X146351441Y-122614090D01*
X146496431Y-122401890D01*
X146547440Y-122150000D01*
X146547440Y-120150000D01*
X146503162Y-119914683D01*
X146364090Y-119698559D01*
X146151890Y-119553569D01*
X146085000Y-119540023D01*
X146085000Y-115350000D01*
X146049196Y-115170000D01*
X146006215Y-114953922D01*
X145875364Y-114758090D01*
X145781856Y-114618144D01*
X145781853Y-114618142D01*
X145552857Y-114389145D01*
X145462360Y-114248509D01*
X145250160Y-114103519D01*
X144998270Y-114052510D01*
X144198170Y-114052510D01*
X143962853Y-114096788D01*
X143746729Y-114235860D01*
X143619949Y-114421409D01*
X143475540Y-114277000D01*
X142726240Y-114277000D01*
X142726240Y-114297000D01*
X142472240Y-114297000D01*
X142472240Y-114277000D01*
X141722940Y-114277000D01*
X141564190Y-114435750D01*
X141564190Y-114676359D01*
X141660863Y-114909748D01*
X141839491Y-115088377D01*
X141875842Y-115103434D01*
X141747749Y-115185860D01*
X141602759Y-115398060D01*
X141555856Y-115629672D01*
X141468144Y-115717384D01*
X141243785Y-116053163D01*
X141164999Y-116449240D01*
X141165000Y-116449245D01*
X141165000Y-119587370D01*
X141114683Y-119596838D01*
X140898559Y-119735910D01*
X140753569Y-119948110D01*
X140702560Y-120200000D01*
X138935000Y-120200000D01*
X138935000Y-119935750D01*
X138776250Y-119777000D01*
X136427000Y-119777000D01*
X136173000Y-119777000D01*
X133823750Y-119777000D01*
X133665000Y-119935750D01*
X128235000Y-119935750D01*
X128235000Y-117623691D01*
X133665000Y-117623691D01*
X133665000Y-119364250D01*
X133823750Y-119523000D01*
X136173000Y-119523000D01*
X136173000Y-117273750D01*
X136427000Y-117273750D01*
X136427000Y-119523000D01*
X138776250Y-119523000D01*
X138935000Y-119364250D01*
X138935000Y-117623691D01*
X138838327Y-117390302D01*
X138659699Y-117211673D01*
X138426310Y-117115000D01*
X136585750Y-117115000D01*
X136427000Y-117273750D01*
X136173000Y-117273750D01*
X136014250Y-117115000D01*
X134173690Y-117115000D01*
X133940301Y-117211673D01*
X133761673Y-117390302D01*
X133665000Y-117623691D01*
X128235000Y-117623691D01*
X128235000Y-115800005D01*
X128235001Y-115800000D01*
X128156215Y-115403923D01*
X128118112Y-115346897D01*
X127931856Y-115068144D01*
X127931853Y-115068142D01*
X126779090Y-113915378D01*
X126969441Y-113792890D01*
X127114431Y-113580690D01*
X127165440Y-113328800D01*
X127165440Y-112535000D01*
X133652560Y-112535000D01*
X133652560Y-113450000D01*
X133696838Y-113685317D01*
X133835910Y-113901441D01*
X134048110Y-114046431D01*
X134300000Y-114097440D01*
X138300000Y-114097440D01*
X138535317Y-114053162D01*
X138751441Y-113914090D01*
X138896431Y-113701890D01*
X138912276Y-113623641D01*
X141564190Y-113623641D01*
X141564190Y-113864250D01*
X141722940Y-114023000D01*
X142472240Y-114023000D01*
X142472240Y-113273700D01*
X142726240Y-113273700D01*
X142726240Y-114023000D01*
X143475540Y-114023000D01*
X143634290Y-113864250D01*
X143634290Y-113623641D01*
X143537617Y-113390252D01*
X143358989Y-113211623D01*
X143125600Y-113114950D01*
X142884990Y-113114950D01*
X142726240Y-113273700D01*
X142472240Y-113273700D01*
X142313490Y-113114950D01*
X142072880Y-113114950D01*
X141839491Y-113211623D01*
X141660863Y-113390252D01*
X141564190Y-113623641D01*
X138912276Y-113623641D01*
X138947440Y-113450000D01*
X138947440Y-109650000D01*
X138903162Y-109414683D01*
X138764090Y-109198559D01*
X138551890Y-109053569D01*
X138300000Y-109002560D01*
X137616624Y-109002560D01*
X138008909Y-108610959D01*
X138334628Y-107826541D01*
X138335370Y-106977185D01*
X138011020Y-106192200D01*
X137410959Y-105591091D01*
X136626541Y-105265372D01*
X135777185Y-105264630D01*
X134992200Y-105588980D01*
X134391091Y-106189041D01*
X134065372Y-106973459D01*
X134064630Y-107822815D01*
X134388980Y-108607800D01*
X134783052Y-109002560D01*
X134300000Y-109002560D01*
X134064683Y-109046838D01*
X133848559Y-109185910D01*
X133703569Y-109398110D01*
X133652560Y-109650000D01*
X133652560Y-110465000D01*
X127165440Y-110465000D01*
X127165440Y-109671200D01*
X127121162Y-109435883D01*
X126982090Y-109219759D01*
X126769890Y-109074769D01*
X126518000Y-109023760D01*
X124486000Y-109023760D01*
X124250683Y-109068038D01*
X124034559Y-109207110D01*
X123889569Y-109419310D01*
X123838560Y-109671200D01*
X123838560Y-110465000D01*
X120267506Y-110465000D01*
X120165890Y-110395569D01*
X119977686Y-110357457D01*
X120149317Y-110325162D01*
X120365441Y-110186090D01*
X120510431Y-109973890D01*
X120561440Y-109722000D01*
X120561440Y-108706000D01*
X120517162Y-108470683D01*
X120378090Y-108254559D01*
X120165890Y-108109569D01*
X120033000Y-108082658D01*
X120033000Y-105922132D01*
X121852566Y-104102566D01*
X122098604Y-103734345D01*
X122185000Y-103300000D01*
X122185000Y-100150825D01*
X122430839Y-100397093D01*
G36*
X100065000Y-110470132D02*
X100065000Y-113529868D01*
X99324868Y-114270000D01*
X96022440Y-114270000D01*
X96022440Y-113835000D01*
X95978162Y-113599683D01*
X95914322Y-113500472D01*
X95971431Y-113416890D01*
X96022440Y-113165000D01*
X96022440Y-112565000D01*
X95978162Y-112329683D01*
X95919822Y-112239020D01*
X96010000Y-112021310D01*
X96010000Y-111880750D01*
X95851250Y-111722000D01*
X94727000Y-111722000D01*
X94727000Y-111742000D01*
X94473000Y-111742000D01*
X94473000Y-111722000D01*
X93348750Y-111722000D01*
X93240750Y-111830000D01*
X91835005Y-111830000D01*
X91835000Y-111829999D01*
X91438922Y-111908785D01*
X91359523Y-111961838D01*
X91103144Y-112133144D01*
X91103142Y-112133147D01*
X90622440Y-112613849D01*
X90622440Y-112565000D01*
X90578162Y-112329683D01*
X90514322Y-112230472D01*
X90571431Y-112146890D01*
X90622440Y-111895000D01*
X90622440Y-111295000D01*
X90598674Y-111168690D01*
X93190000Y-111168690D01*
X93190000Y-111309250D01*
X93348750Y-111468000D01*
X94473000Y-111468000D01*
X94473000Y-110818750D01*
X94727000Y-110818750D01*
X94727000Y-111468000D01*
X95851250Y-111468000D01*
X96010000Y-111309250D01*
X96010000Y-111168690D01*
X95913327Y-110935301D01*
X95734698Y-110756673D01*
X95501309Y-110660000D01*
X94885750Y-110660000D01*
X94727000Y-110818750D01*
X94473000Y-110818750D01*
X94314250Y-110660000D01*
X93698691Y-110660000D01*
X93465302Y-110756673D01*
X93286673Y-110935301D01*
X93190000Y-111168690D01*
X90598674Y-111168690D01*
X90578162Y-111059683D01*
X90439090Y-110843559D01*
X90328655Y-110768102D01*
X90248603Y-110365654D01*
X90002566Y-109997434D01*
X89205132Y-109200000D01*
X89470132Y-108935000D01*
X98529868Y-108935000D01*
X100065000Y-110470132D01*
X100065000Y-110470132D01*
G37*
X100065000Y-110470132D02*
X100065000Y-113529868D01*
X99324868Y-114270000D01*
X96022440Y-114270000D01*
X96022440Y-113835000D01*
X95978162Y-113599683D01*
X95914322Y-113500472D01*
X95971431Y-113416890D01*
X96022440Y-113165000D01*
X96022440Y-112565000D01*
X95978162Y-112329683D01*
X95919822Y-112239020D01*
X96010000Y-112021310D01*
X96010000Y-111880750D01*
X95851250Y-111722000D01*
X94727000Y-111722000D01*
X94727000Y-111742000D01*
X94473000Y-111742000D01*
X94473000Y-111722000D01*
X93348750Y-111722000D01*
X93240750Y-111830000D01*
X91835005Y-111830000D01*
X91835000Y-111829999D01*
X91438922Y-111908785D01*
X91359523Y-111961838D01*
X91103144Y-112133144D01*
X91103142Y-112133147D01*
X90622440Y-112613849D01*
X90622440Y-112565000D01*
X90578162Y-112329683D01*
X90514322Y-112230472D01*
X90571431Y-112146890D01*
X90622440Y-111895000D01*
X90622440Y-111295000D01*
X90598674Y-111168690D01*
X93190000Y-111168690D01*
X93190000Y-111309250D01*
X93348750Y-111468000D01*
X94473000Y-111468000D01*
X94473000Y-110818750D01*
X94727000Y-110818750D01*
X94727000Y-111468000D01*
X95851250Y-111468000D01*
X96010000Y-111309250D01*
X96010000Y-111168690D01*
X95913327Y-110935301D01*
X95734698Y-110756673D01*
X95501309Y-110660000D01*
X94885750Y-110660000D01*
X94727000Y-110818750D01*
X94473000Y-110818750D01*
X94314250Y-110660000D01*
X93698691Y-110660000D01*
X93465302Y-110756673D01*
X93286673Y-110935301D01*
X93190000Y-111168690D01*
X90598674Y-111168690D01*
X90578162Y-111059683D01*
X90439090Y-110843559D01*
X90328655Y-110768102D01*
X90248603Y-110365654D01*
X90002566Y-109997434D01*
X89205132Y-109200000D01*
X89470132Y-108935000D01*
X98529868Y-108935000D01*
X100065000Y-110470132D01*
G36*
X170365000Y-74820133D02*
X170365000Y-76729868D01*
X170185708Y-76909160D01*
X170233180Y-76794552D01*
X170233180Y-76153892D01*
X170074430Y-75995142D01*
X167925590Y-75995142D01*
X167925590Y-77144492D01*
X168084340Y-77303242D01*
X169724489Y-77303242D01*
X169839099Y-77255769D01*
X167297434Y-79797434D01*
X167051397Y-80165654D01*
X166965000Y-80600000D01*
X166965000Y-87595699D01*
X166950330Y-87668142D01*
X166950330Y-91668142D01*
X166994608Y-91903459D01*
X167133680Y-92119583D01*
X167345880Y-92264573D01*
X167597770Y-92315582D01*
X168362770Y-92315582D01*
X168362770Y-92397770D01*
X168449167Y-92832116D01*
X168684956Y-93184999D01*
X168695204Y-93200336D01*
X169959868Y-94465000D01*
X156541100Y-94465000D01*
X156511020Y-94392200D01*
X155910959Y-93791091D01*
X155126541Y-93465372D01*
X154277185Y-93464630D01*
X153492200Y-93788980D01*
X152891091Y-94389041D01*
X152565372Y-95173459D01*
X152564630Y-96022815D01*
X152888980Y-96807800D01*
X153489041Y-97408909D01*
X154273459Y-97734628D01*
X155122815Y-97735370D01*
X155907800Y-97411020D01*
X156508909Y-96810959D01*
X156540450Y-96735000D01*
X170917580Y-96735000D01*
X170988980Y-96907800D01*
X171589041Y-97508909D01*
X172373459Y-97834628D01*
X173222815Y-97835370D01*
X173511115Y-97716247D01*
X174015000Y-98220132D01*
X174015000Y-98395139D01*
X174010959Y-98391091D01*
X173226541Y-98065372D01*
X172377185Y-98064630D01*
X171592200Y-98388980D01*
X170991091Y-98989041D01*
X170959550Y-99065000D01*
X156582420Y-99065000D01*
X156511020Y-98892200D01*
X155910959Y-98291091D01*
X155126541Y-97965372D01*
X154277185Y-97964630D01*
X153492200Y-98288980D01*
X153072079Y-98708368D01*
X151685000Y-97321288D01*
X151685000Y-92247440D01*
X152550000Y-92247440D01*
X152785317Y-92203162D01*
X153001441Y-92064090D01*
X153146431Y-91851890D01*
X153197440Y-91600000D01*
X153197440Y-90635000D01*
X158850330Y-90635000D01*
X158850330Y-91668142D01*
X158894608Y-91903459D01*
X159033680Y-92119583D01*
X159245880Y-92264573D01*
X159497770Y-92315582D01*
X163297770Y-92315582D01*
X163533087Y-92271304D01*
X163749211Y-92132232D01*
X163894201Y-91920032D01*
X163945210Y-91668142D01*
X163945210Y-87668142D01*
X163900932Y-87432825D01*
X163761860Y-87216701D01*
X163549660Y-87071711D01*
X163297770Y-87020702D01*
X161882770Y-87020702D01*
X161882770Y-86358996D01*
X162083087Y-86321304D01*
X162299211Y-86182232D01*
X162444201Y-85970032D01*
X162495210Y-85718142D01*
X162495210Y-85153892D01*
X163212770Y-85153892D01*
X163212770Y-85844452D01*
X163309443Y-86077841D01*
X163488072Y-86256469D01*
X163721461Y-86353142D01*
X164562020Y-86353142D01*
X164720770Y-86194392D01*
X164720770Y-84995142D01*
X164974770Y-84995142D01*
X164974770Y-86194392D01*
X165133520Y-86353142D01*
X165974079Y-86353142D01*
X166207468Y-86256469D01*
X166386097Y-86077841D01*
X166482770Y-85844452D01*
X166482770Y-85153892D01*
X166324020Y-84995142D01*
X164974770Y-84995142D01*
X164720770Y-84995142D01*
X163371520Y-84995142D01*
X163212770Y-85153892D01*
X162495210Y-85153892D01*
X162495210Y-84018142D01*
X162471444Y-83891832D01*
X163212770Y-83891832D01*
X163212770Y-84582392D01*
X163371520Y-84741142D01*
X164720770Y-84741142D01*
X164720770Y-83541892D01*
X164974770Y-83541892D01*
X164974770Y-84741142D01*
X166324020Y-84741142D01*
X166482770Y-84582392D01*
X166482770Y-83891832D01*
X166386097Y-83658443D01*
X166207468Y-83479815D01*
X166097336Y-83434197D01*
X166252467Y-83369939D01*
X166431096Y-83191311D01*
X166527769Y-82957922D01*
X166527769Y-82267362D01*
X166369019Y-82108612D01*
X165019769Y-82108612D01*
X165019769Y-83307862D01*
X165114285Y-83402378D01*
X164974770Y-83541892D01*
X164720770Y-83541892D01*
X164626255Y-83447377D01*
X164765769Y-83307862D01*
X164765769Y-82108612D01*
X163416519Y-82108612D01*
X163257769Y-82267362D01*
X163257769Y-82957922D01*
X163354442Y-83191311D01*
X163533071Y-83369939D01*
X163643203Y-83415557D01*
X163488072Y-83479815D01*
X163309443Y-83658443D01*
X163212770Y-83891832D01*
X162471444Y-83891832D01*
X162450932Y-83782825D01*
X162311860Y-83566701D01*
X162120788Y-83436147D01*
X162128086Y-83434774D01*
X162344210Y-83295702D01*
X162489200Y-83083502D01*
X162540209Y-82831612D01*
X162540209Y-81131612D01*
X162516443Y-81005302D01*
X163257769Y-81005302D01*
X163257769Y-81695862D01*
X163416519Y-81854612D01*
X164765769Y-81854612D01*
X164765769Y-80655362D01*
X165019769Y-80655362D01*
X165019769Y-81854612D01*
X166369019Y-81854612D01*
X166527769Y-81695862D01*
X166527769Y-81005302D01*
X166431096Y-80771913D01*
X166252467Y-80593285D01*
X166019078Y-80496612D01*
X165178519Y-80496612D01*
X165019769Y-80655362D01*
X164765769Y-80655362D01*
X164607019Y-80496612D01*
X163766460Y-80496612D01*
X163533071Y-80593285D01*
X163354442Y-80771913D01*
X163257769Y-81005302D01*
X162516443Y-81005302D01*
X162495931Y-80896295D01*
X162356859Y-80680171D01*
X162144659Y-80535181D01*
X161927769Y-80491260D01*
X161927769Y-79035943D01*
X163028803Y-77934908D01*
X163028806Y-77934906D01*
X163253165Y-77599127D01*
X163265989Y-77534656D01*
X163309547Y-77315682D01*
X164096540Y-77315682D01*
X164331857Y-77271404D01*
X164547981Y-77132332D01*
X164692971Y-76920132D01*
X164743980Y-76668242D01*
X164743980Y-76153892D01*
X165364000Y-76153892D01*
X165364000Y-76794552D01*
X165460673Y-77027941D01*
X165639302Y-77206569D01*
X165872691Y-77303242D01*
X167512840Y-77303242D01*
X167671590Y-77144492D01*
X167671590Y-75995142D01*
X165522750Y-75995142D01*
X165364000Y-76153892D01*
X164743980Y-76153892D01*
X164743980Y-75068042D01*
X164720214Y-74941732D01*
X165364000Y-74941732D01*
X165364000Y-75582392D01*
X165522750Y-75741142D01*
X167671590Y-75741142D01*
X167671590Y-74591792D01*
X167925590Y-74591792D01*
X167925590Y-75741142D01*
X170074430Y-75741142D01*
X170233180Y-75582392D01*
X170233180Y-74941732D01*
X170136507Y-74708343D01*
X169957878Y-74529715D01*
X169724489Y-74433042D01*
X168084340Y-74433042D01*
X167925590Y-74591792D01*
X167671590Y-74591792D01*
X167512840Y-74433042D01*
X165872691Y-74433042D01*
X165639302Y-74529715D01*
X165460673Y-74708343D01*
X165364000Y-74941732D01*
X164720214Y-74941732D01*
X164699702Y-74832725D01*
X164560630Y-74616601D01*
X164348430Y-74471611D01*
X164096540Y-74420602D01*
X160497360Y-74420602D01*
X160262043Y-74464880D01*
X160045919Y-74603952D01*
X159900929Y-74816152D01*
X159849920Y-75068042D01*
X159849920Y-76668242D01*
X159894198Y-76903559D01*
X160033270Y-77119683D01*
X160245470Y-77264673D01*
X160497360Y-77315682D01*
X160720606Y-77315682D01*
X160160913Y-77875375D01*
X159936554Y-78211154D01*
X159857768Y-78607231D01*
X159857769Y-78607236D01*
X159857769Y-80490758D01*
X159657452Y-80528450D01*
X159441328Y-80667522D01*
X159296338Y-80879722D01*
X159245329Y-81131612D01*
X159245329Y-82831612D01*
X159289607Y-83066929D01*
X159428679Y-83283053D01*
X159619751Y-83413607D01*
X159612453Y-83414980D01*
X159396329Y-83554052D01*
X159251339Y-83766252D01*
X159200330Y-84018142D01*
X159200330Y-85718142D01*
X159244608Y-85953459D01*
X159383680Y-86169583D01*
X159595880Y-86314573D01*
X159812770Y-86358494D01*
X159812770Y-87020702D01*
X159497770Y-87020702D01*
X159262453Y-87064980D01*
X159046329Y-87204052D01*
X158901339Y-87416252D01*
X158850330Y-87668142D01*
X158850330Y-88565000D01*
X153197440Y-88565000D01*
X153197440Y-87600000D01*
X153153162Y-87364683D01*
X153014090Y-87148559D01*
X152801890Y-87003569D01*
X152550000Y-86952560D01*
X151735000Y-86952560D01*
X151735000Y-86290854D01*
X151935317Y-86253162D01*
X152151441Y-86114090D01*
X152296431Y-85901890D01*
X152347440Y-85650000D01*
X152347440Y-83950000D01*
X152304324Y-83720854D01*
X152564457Y-83720854D01*
X153040727Y-84873515D01*
X153921847Y-85756174D01*
X153922145Y-85756298D01*
X154021847Y-85856174D01*
X155173674Y-86334454D01*
X156420854Y-86335543D01*
X157573515Y-85859273D01*
X158456174Y-84978153D01*
X158934454Y-83826326D01*
X158935543Y-82579146D01*
X158459273Y-81426485D01*
X157578153Y-80543826D01*
X157577855Y-80543702D01*
X157478153Y-80443826D01*
X156326326Y-79965546D01*
X155079146Y-79964457D01*
X153926485Y-80440727D01*
X153043826Y-81321847D01*
X152565546Y-82473674D01*
X152564457Y-83720854D01*
X152304324Y-83720854D01*
X152303162Y-83714683D01*
X152164090Y-83498559D01*
X152162701Y-83497610D01*
X152296431Y-83301890D01*
X152347440Y-83050000D01*
X152347440Y-81350000D01*
X152303162Y-81114683D01*
X152164090Y-80898559D01*
X151951890Y-80753569D01*
X151735000Y-80709648D01*
X151735000Y-79200005D01*
X151735001Y-79200000D01*
X151656215Y-78803922D01*
X151524790Y-78607231D01*
X151431856Y-78468144D01*
X151431853Y-78468142D01*
X150785820Y-77822108D01*
X150785820Y-77547540D01*
X151550410Y-77547540D01*
X151785727Y-77503262D01*
X152001851Y-77364190D01*
X152146841Y-77151990D01*
X152197850Y-76900100D01*
X152197850Y-75299900D01*
X152153572Y-75064583D01*
X152014500Y-74848459D01*
X151802300Y-74703469D01*
X151550410Y-74652460D01*
X147951230Y-74652460D01*
X147715913Y-74696738D01*
X147499789Y-74835810D01*
X147354799Y-75048010D01*
X147303790Y-75299900D01*
X147303790Y-76900100D01*
X147348068Y-77135417D01*
X147487140Y-77351541D01*
X147699340Y-77496531D01*
X147951230Y-77547540D01*
X148715820Y-77547540D01*
X148715820Y-78250815D01*
X148715819Y-78250820D01*
X148794605Y-78646897D01*
X149018964Y-78982676D01*
X149665000Y-79628711D01*
X149665000Y-80709146D01*
X149464683Y-80746838D01*
X149248559Y-80885910D01*
X149103569Y-81098110D01*
X149052560Y-81350000D01*
X149052560Y-83050000D01*
X149096838Y-83285317D01*
X149235910Y-83501441D01*
X149237299Y-83502390D01*
X149103569Y-83698110D01*
X149052560Y-83950000D01*
X149052560Y-85650000D01*
X149096838Y-85885317D01*
X149235910Y-86101441D01*
X149448110Y-86246431D01*
X149665000Y-86290352D01*
X149665000Y-86952560D01*
X148750000Y-86952560D01*
X148514683Y-86996838D01*
X148298559Y-87135910D01*
X148153569Y-87348110D01*
X148102560Y-87600000D01*
X148102560Y-91600000D01*
X148146838Y-91835317D01*
X148285910Y-92051441D01*
X148498110Y-92196431D01*
X148750000Y-92247440D01*
X149615000Y-92247440D01*
X149615000Y-97749995D01*
X149614999Y-97750000D01*
X149693785Y-98146077D01*
X149918144Y-98481856D01*
X152268142Y-100831853D01*
X152268144Y-100831856D01*
X152409789Y-100926499D01*
X152131288Y-101205000D01*
X141828730Y-101205000D01*
X141867441Y-101180090D01*
X142012431Y-100967890D01*
X142063440Y-100716000D01*
X142063440Y-98684000D01*
X142019162Y-98448683D01*
X141880090Y-98232559D01*
X141667890Y-98087569D01*
X141416000Y-98036560D01*
X139384000Y-98036560D01*
X139148683Y-98080838D01*
X138932559Y-98219910D01*
X138787569Y-98432110D01*
X138740408Y-98665000D01*
X138584005Y-98665000D01*
X138584000Y-98664999D01*
X138187923Y-98743785D01*
X137852144Y-98968144D01*
X135355288Y-101465000D01*
X125860945Y-101465000D01*
X124680737Y-100284791D01*
X124832472Y-100133320D01*
X127346285Y-100133320D01*
X127475533Y-100426123D01*
X128175806Y-100694388D01*
X128925435Y-100674250D01*
X129524467Y-100426123D01*
X129653715Y-100133320D01*
X128500000Y-98979605D01*
X127346285Y-100133320D01*
X124832472Y-100133320D01*
X125097093Y-99869161D01*
X125384672Y-99176595D01*
X125385283Y-98475806D01*
X126605612Y-98475806D01*
X126625750Y-99225435D01*
X126873877Y-99824467D01*
X127166680Y-99953715D01*
X128320395Y-98800000D01*
X128679605Y-98800000D01*
X129833320Y-99953715D01*
X130126123Y-99824467D01*
X130375574Y-99173305D01*
X131614674Y-99173305D01*
X131901043Y-99866372D01*
X132430839Y-100397093D01*
X133123405Y-100684672D01*
X133873305Y-100685326D01*
X134566372Y-100398957D01*
X135097093Y-99869161D01*
X135384672Y-99176595D01*
X135385326Y-98426695D01*
X135098957Y-97733628D01*
X134569161Y-97202907D01*
X133876595Y-96915328D01*
X133126695Y-96914674D01*
X132433628Y-97201043D01*
X131902907Y-97730839D01*
X131615328Y-98423405D01*
X131614674Y-99173305D01*
X130375574Y-99173305D01*
X130394388Y-99124194D01*
X130374250Y-98374565D01*
X130126123Y-97775533D01*
X129833320Y-97646285D01*
X128679605Y-98800000D01*
X128320395Y-98800000D01*
X127166680Y-97646285D01*
X126873877Y-97775533D01*
X126605612Y-98475806D01*
X125385283Y-98475806D01*
X125385326Y-98426695D01*
X125098957Y-97733628D01*
X124832475Y-97466680D01*
X127346285Y-97466680D01*
X128500000Y-98620395D01*
X129653715Y-97466680D01*
X129524467Y-97173877D01*
X128824194Y-96905612D01*
X128074565Y-96925750D01*
X127475533Y-97173877D01*
X127346285Y-97466680D01*
X124832475Y-97466680D01*
X124569161Y-97202907D01*
X123876595Y-96915328D01*
X123126695Y-96914674D01*
X122979737Y-96975396D01*
X123120123Y-96835010D01*
X128599990Y-96835010D01*
X129034336Y-96748613D01*
X129402556Y-96502576D01*
X133052567Y-92852565D01*
X133220376Y-92684757D01*
X133873305Y-92685326D01*
X134566372Y-92398957D01*
X135031139Y-91935000D01*
X137400000Y-91935000D01*
X137834346Y-91848603D01*
X138202566Y-91602566D01*
X139070132Y-90735000D01*
X140002560Y-90735000D01*
X140002560Y-91600000D01*
X140046838Y-91835317D01*
X140185910Y-92051441D01*
X140398110Y-92196431D01*
X140650000Y-92247440D01*
X144450000Y-92247440D01*
X144685317Y-92203162D01*
X144901441Y-92064090D01*
X145046431Y-91851890D01*
X145097440Y-91600000D01*
X145097440Y-87600000D01*
X145053162Y-87364683D01*
X144914090Y-87148559D01*
X144701890Y-87003569D01*
X144450000Y-86952560D01*
X143685000Y-86952560D01*
X143685000Y-85085750D01*
X145065000Y-85085750D01*
X145065000Y-85776310D01*
X145161673Y-86009699D01*
X145340302Y-86188327D01*
X145573691Y-86285000D01*
X146414250Y-86285000D01*
X146573000Y-86126250D01*
X146573000Y-84927000D01*
X146827000Y-84927000D01*
X146827000Y-86126250D01*
X146985750Y-86285000D01*
X147826309Y-86285000D01*
X148059698Y-86188327D01*
X148238327Y-86009699D01*
X148335000Y-85776310D01*
X148335000Y-85085750D01*
X148176250Y-84927000D01*
X146827000Y-84927000D01*
X146573000Y-84927000D01*
X145223750Y-84927000D01*
X145065000Y-85085750D01*
X143685000Y-85085750D01*
X143685000Y-82485750D01*
X145065000Y-82485750D01*
X145065000Y-83176310D01*
X145161673Y-83409699D01*
X145251975Y-83500000D01*
X145161673Y-83590301D01*
X145065000Y-83823690D01*
X145065000Y-84514250D01*
X145223750Y-84673000D01*
X146573000Y-84673000D01*
X146573000Y-82327000D01*
X146827000Y-82327000D01*
X146827000Y-84673000D01*
X148176250Y-84673000D01*
X148335000Y-84514250D01*
X148335000Y-83823690D01*
X148238327Y-83590301D01*
X148148025Y-83500000D01*
X148238327Y-83409699D01*
X148335000Y-83176310D01*
X148335000Y-82485750D01*
X148176250Y-82327000D01*
X146827000Y-82327000D01*
X146573000Y-82327000D01*
X145223750Y-82327000D01*
X145065000Y-82485750D01*
X143685000Y-82485750D01*
X143685000Y-81350000D01*
X143665060Y-81249756D01*
X143659876Y-81223690D01*
X145065000Y-81223690D01*
X145065000Y-81914250D01*
X145223750Y-82073000D01*
X146573000Y-82073000D01*
X146573000Y-80873750D01*
X146827000Y-80873750D01*
X146827000Y-82073000D01*
X148176250Y-82073000D01*
X148335000Y-81914250D01*
X148335000Y-81223690D01*
X148238327Y-80990301D01*
X148059698Y-80811673D01*
X147826309Y-80715000D01*
X146985750Y-80715000D01*
X146827000Y-80873750D01*
X146573000Y-80873750D01*
X146414250Y-80715000D01*
X145573691Y-80715000D01*
X145340302Y-80811673D01*
X145161673Y-80990301D01*
X145065000Y-81223690D01*
X143659876Y-81223690D01*
X143598604Y-80915655D01*
X143352566Y-80547434D01*
X139255132Y-76450000D01*
X139319382Y-76385750D01*
X141814590Y-76385750D01*
X141814590Y-77026410D01*
X141911263Y-77259799D01*
X142089892Y-77438427D01*
X142323281Y-77535100D01*
X143963430Y-77535100D01*
X144122180Y-77376350D01*
X144122180Y-76227000D01*
X144376180Y-76227000D01*
X144376180Y-77376350D01*
X144534930Y-77535100D01*
X146175079Y-77535100D01*
X146408468Y-77438427D01*
X146587097Y-77259799D01*
X146683770Y-77026410D01*
X146683770Y-76385750D01*
X146525020Y-76227000D01*
X144376180Y-76227000D01*
X144122180Y-76227000D01*
X141973340Y-76227000D01*
X141814590Y-76385750D01*
X139319382Y-76385750D01*
X140531542Y-75173590D01*
X141814590Y-75173590D01*
X141814590Y-75814250D01*
X141973340Y-75973000D01*
X144122180Y-75973000D01*
X144122180Y-74823650D01*
X144376180Y-74823650D01*
X144376180Y-75973000D01*
X146525020Y-75973000D01*
X146683770Y-75814250D01*
X146683770Y-75173590D01*
X146587097Y-74940201D01*
X146408468Y-74761573D01*
X146175079Y-74664900D01*
X144534930Y-74664900D01*
X144376180Y-74823650D01*
X144122180Y-74823650D01*
X143963430Y-74664900D01*
X142323281Y-74664900D01*
X142089892Y-74761573D01*
X141911263Y-74940201D01*
X141814590Y-75173590D01*
X140531542Y-75173590D01*
X142620132Y-73085000D01*
X168629868Y-73085000D01*
X170365000Y-74820133D01*
X170365000Y-74820133D01*
G37*
X170365000Y-74820133D02*
X170365000Y-76729868D01*
X170185708Y-76909160D01*
X170233180Y-76794552D01*
X170233180Y-76153892D01*
X170074430Y-75995142D01*
X167925590Y-75995142D01*
X167925590Y-77144492D01*
X168084340Y-77303242D01*
X169724489Y-77303242D01*
X169839099Y-77255769D01*
X167297434Y-79797434D01*
X167051397Y-80165654D01*
X166965000Y-80600000D01*
X166965000Y-87595699D01*
X166950330Y-87668142D01*
X166950330Y-91668142D01*
X166994608Y-91903459D01*
X167133680Y-92119583D01*
X167345880Y-92264573D01*
X167597770Y-92315582D01*
X168362770Y-92315582D01*
X168362770Y-92397770D01*
X168449167Y-92832116D01*
X168684956Y-93184999D01*
X168695204Y-93200336D01*
X169959868Y-94465000D01*
X156541100Y-94465000D01*
X156511020Y-94392200D01*
X155910959Y-93791091D01*
X155126541Y-93465372D01*
X154277185Y-93464630D01*
X153492200Y-93788980D01*
X152891091Y-94389041D01*
X152565372Y-95173459D01*
X152564630Y-96022815D01*
X152888980Y-96807800D01*
X153489041Y-97408909D01*
X154273459Y-97734628D01*
X155122815Y-97735370D01*
X155907800Y-97411020D01*
X156508909Y-96810959D01*
X156540450Y-96735000D01*
X170917580Y-96735000D01*
X170988980Y-96907800D01*
X171589041Y-97508909D01*
X172373459Y-97834628D01*
X173222815Y-97835370D01*
X173511115Y-97716247D01*
X174015000Y-98220132D01*
X174015000Y-98395139D01*
X174010959Y-98391091D01*
X173226541Y-98065372D01*
X172377185Y-98064630D01*
X171592200Y-98388980D01*
X170991091Y-98989041D01*
X170959550Y-99065000D01*
X156582420Y-99065000D01*
X156511020Y-98892200D01*
X155910959Y-98291091D01*
X155126541Y-97965372D01*
X154277185Y-97964630D01*
X153492200Y-98288980D01*
X153072079Y-98708368D01*
X151685000Y-97321288D01*
X151685000Y-92247440D01*
X152550000Y-92247440D01*
X152785317Y-92203162D01*
X153001441Y-92064090D01*
X153146431Y-91851890D01*
X153197440Y-91600000D01*
X153197440Y-90635000D01*
X158850330Y-90635000D01*
X158850330Y-91668142D01*
X158894608Y-91903459D01*
X159033680Y-92119583D01*
X159245880Y-92264573D01*
X159497770Y-92315582D01*
X163297770Y-92315582D01*
X163533087Y-92271304D01*
X163749211Y-92132232D01*
X163894201Y-91920032D01*
X163945210Y-91668142D01*
X163945210Y-87668142D01*
X163900932Y-87432825D01*
X163761860Y-87216701D01*
X163549660Y-87071711D01*
X163297770Y-87020702D01*
X161882770Y-87020702D01*
X161882770Y-86358996D01*
X162083087Y-86321304D01*
X162299211Y-86182232D01*
X162444201Y-85970032D01*
X162495210Y-85718142D01*
X162495210Y-85153892D01*
X163212770Y-85153892D01*
X163212770Y-85844452D01*
X163309443Y-86077841D01*
X163488072Y-86256469D01*
X163721461Y-86353142D01*
X164562020Y-86353142D01*
X164720770Y-86194392D01*
X164720770Y-84995142D01*
X164974770Y-84995142D01*
X164974770Y-86194392D01*
X165133520Y-86353142D01*
X165974079Y-86353142D01*
X166207468Y-86256469D01*
X166386097Y-86077841D01*
X166482770Y-85844452D01*
X166482770Y-85153892D01*
X166324020Y-84995142D01*
X164974770Y-84995142D01*
X164720770Y-84995142D01*
X163371520Y-84995142D01*
X163212770Y-85153892D01*
X162495210Y-85153892D01*
X162495210Y-84018142D01*
X162471444Y-83891832D01*
X163212770Y-83891832D01*
X163212770Y-84582392D01*
X163371520Y-84741142D01*
X164720770Y-84741142D01*
X164720770Y-83541892D01*
X164974770Y-83541892D01*
X164974770Y-84741142D01*
X166324020Y-84741142D01*
X166482770Y-84582392D01*
X166482770Y-83891832D01*
X166386097Y-83658443D01*
X166207468Y-83479815D01*
X166097336Y-83434197D01*
X166252467Y-83369939D01*
X166431096Y-83191311D01*
X166527769Y-82957922D01*
X166527769Y-82267362D01*
X166369019Y-82108612D01*
X165019769Y-82108612D01*
X165019769Y-83307862D01*
X165114285Y-83402378D01*
X164974770Y-83541892D01*
X164720770Y-83541892D01*
X164626255Y-83447377D01*
X164765769Y-83307862D01*
X164765769Y-82108612D01*
X163416519Y-82108612D01*
X163257769Y-82267362D01*
X163257769Y-82957922D01*
X163354442Y-83191311D01*
X163533071Y-83369939D01*
X163643203Y-83415557D01*
X163488072Y-83479815D01*
X163309443Y-83658443D01*
X163212770Y-83891832D01*
X162471444Y-83891832D01*
X162450932Y-83782825D01*
X162311860Y-83566701D01*
X162120788Y-83436147D01*
X162128086Y-83434774D01*
X162344210Y-83295702D01*
X162489200Y-83083502D01*
X162540209Y-82831612D01*
X162540209Y-81131612D01*
X162516443Y-81005302D01*
X163257769Y-81005302D01*
X163257769Y-81695862D01*
X163416519Y-81854612D01*
X164765769Y-81854612D01*
X164765769Y-80655362D01*
X165019769Y-80655362D01*
X165019769Y-81854612D01*
X166369019Y-81854612D01*
X166527769Y-81695862D01*
X166527769Y-81005302D01*
X166431096Y-80771913D01*
X166252467Y-80593285D01*
X166019078Y-80496612D01*
X165178519Y-80496612D01*
X165019769Y-80655362D01*
X164765769Y-80655362D01*
X164607019Y-80496612D01*
X163766460Y-80496612D01*
X163533071Y-80593285D01*
X163354442Y-80771913D01*
X163257769Y-81005302D01*
X162516443Y-81005302D01*
X162495931Y-80896295D01*
X162356859Y-80680171D01*
X162144659Y-80535181D01*
X161927769Y-80491260D01*
X161927769Y-79035943D01*
X163028803Y-77934908D01*
X163028806Y-77934906D01*
X163253165Y-77599127D01*
X163265989Y-77534656D01*
X163309547Y-77315682D01*
X164096540Y-77315682D01*
X164331857Y-77271404D01*
X164547981Y-77132332D01*
X164692971Y-76920132D01*
X164743980Y-76668242D01*
X164743980Y-76153892D01*
X165364000Y-76153892D01*
X165364000Y-76794552D01*
X165460673Y-77027941D01*
X165639302Y-77206569D01*
X165872691Y-77303242D01*
X167512840Y-77303242D01*
X167671590Y-77144492D01*
X167671590Y-75995142D01*
X165522750Y-75995142D01*
X165364000Y-76153892D01*
X164743980Y-76153892D01*
X164743980Y-75068042D01*
X164720214Y-74941732D01*
X165364000Y-74941732D01*
X165364000Y-75582392D01*
X165522750Y-75741142D01*
X167671590Y-75741142D01*
X167671590Y-74591792D01*
X167925590Y-74591792D01*
X167925590Y-75741142D01*
X170074430Y-75741142D01*
X170233180Y-75582392D01*
X170233180Y-74941732D01*
X170136507Y-74708343D01*
X169957878Y-74529715D01*
X169724489Y-74433042D01*
X168084340Y-74433042D01*
X167925590Y-74591792D01*
X167671590Y-74591792D01*
X167512840Y-74433042D01*
X165872691Y-74433042D01*
X165639302Y-74529715D01*
X165460673Y-74708343D01*
X165364000Y-74941732D01*
X164720214Y-74941732D01*
X164699702Y-74832725D01*
X164560630Y-74616601D01*
X164348430Y-74471611D01*
X164096540Y-74420602D01*
X160497360Y-74420602D01*
X160262043Y-74464880D01*
X160045919Y-74603952D01*
X159900929Y-74816152D01*
X159849920Y-75068042D01*
X159849920Y-76668242D01*
X159894198Y-76903559D01*
X160033270Y-77119683D01*
X160245470Y-77264673D01*
X160497360Y-77315682D01*
X160720606Y-77315682D01*
X160160913Y-77875375D01*
X159936554Y-78211154D01*
X159857768Y-78607231D01*
X159857769Y-78607236D01*
X159857769Y-80490758D01*
X159657452Y-80528450D01*
X159441328Y-80667522D01*
X159296338Y-80879722D01*
X159245329Y-81131612D01*
X159245329Y-82831612D01*
X159289607Y-83066929D01*
X159428679Y-83283053D01*
X159619751Y-83413607D01*
X159612453Y-83414980D01*
X159396329Y-83554052D01*
X159251339Y-83766252D01*
X159200330Y-84018142D01*
X159200330Y-85718142D01*
X159244608Y-85953459D01*
X159383680Y-86169583D01*
X159595880Y-86314573D01*
X159812770Y-86358494D01*
X159812770Y-87020702D01*
X159497770Y-87020702D01*
X159262453Y-87064980D01*
X159046329Y-87204052D01*
X158901339Y-87416252D01*
X158850330Y-87668142D01*
X158850330Y-88565000D01*
X153197440Y-88565000D01*
X153197440Y-87600000D01*
X153153162Y-87364683D01*
X153014090Y-87148559D01*
X152801890Y-87003569D01*
X152550000Y-86952560D01*
X151735000Y-86952560D01*
X151735000Y-86290854D01*
X151935317Y-86253162D01*
X152151441Y-86114090D01*
X152296431Y-85901890D01*
X152347440Y-85650000D01*
X152347440Y-83950000D01*
X152304324Y-83720854D01*
X152564457Y-83720854D01*
X153040727Y-84873515D01*
X153921847Y-85756174D01*
X153922145Y-85756298D01*
X154021847Y-85856174D01*
X155173674Y-86334454D01*
X156420854Y-86335543D01*
X157573515Y-85859273D01*
X158456174Y-84978153D01*
X158934454Y-83826326D01*
X158935543Y-82579146D01*
X158459273Y-81426485D01*
X157578153Y-80543826D01*
X157577855Y-80543702D01*
X157478153Y-80443826D01*
X156326326Y-79965546D01*
X155079146Y-79964457D01*
X153926485Y-80440727D01*
X153043826Y-81321847D01*
X152565546Y-82473674D01*
X152564457Y-83720854D01*
X152304324Y-83720854D01*
X152303162Y-83714683D01*
X152164090Y-83498559D01*
X152162701Y-83497610D01*
X152296431Y-83301890D01*
X152347440Y-83050000D01*
X152347440Y-81350000D01*
X152303162Y-81114683D01*
X152164090Y-80898559D01*
X151951890Y-80753569D01*
X151735000Y-80709648D01*
X151735000Y-79200005D01*
X151735001Y-79200000D01*
X151656215Y-78803922D01*
X151524790Y-78607231D01*
X151431856Y-78468144D01*
X151431853Y-78468142D01*
X150785820Y-77822108D01*
X150785820Y-77547540D01*
X151550410Y-77547540D01*
X151785727Y-77503262D01*
X152001851Y-77364190D01*
X152146841Y-77151990D01*
X152197850Y-76900100D01*
X152197850Y-75299900D01*
X152153572Y-75064583D01*
X152014500Y-74848459D01*
X151802300Y-74703469D01*
X151550410Y-74652460D01*
X147951230Y-74652460D01*
X147715913Y-74696738D01*
X147499789Y-74835810D01*
X147354799Y-75048010D01*
X147303790Y-75299900D01*
X147303790Y-76900100D01*
X147348068Y-77135417D01*
X147487140Y-77351541D01*
X147699340Y-77496531D01*
X147951230Y-77547540D01*
X148715820Y-77547540D01*
X148715820Y-78250815D01*
X148715819Y-78250820D01*
X148794605Y-78646897D01*
X149018964Y-78982676D01*
X149665000Y-79628711D01*
X149665000Y-80709146D01*
X149464683Y-80746838D01*
X149248559Y-80885910D01*
X149103569Y-81098110D01*
X149052560Y-81350000D01*
X149052560Y-83050000D01*
X149096838Y-83285317D01*
X149235910Y-83501441D01*
X149237299Y-83502390D01*
X149103569Y-83698110D01*
X149052560Y-83950000D01*
X149052560Y-85650000D01*
X149096838Y-85885317D01*
X149235910Y-86101441D01*
X149448110Y-86246431D01*
X149665000Y-86290352D01*
X149665000Y-86952560D01*
X148750000Y-86952560D01*
X148514683Y-86996838D01*
X148298559Y-87135910D01*
X148153569Y-87348110D01*
X148102560Y-87600000D01*
X148102560Y-91600000D01*
X148146838Y-91835317D01*
X148285910Y-92051441D01*
X148498110Y-92196431D01*
X148750000Y-92247440D01*
X149615000Y-92247440D01*
X149615000Y-97749995D01*
X149614999Y-97750000D01*
X149693785Y-98146077D01*
X149918144Y-98481856D01*
X152268142Y-100831853D01*
X152268144Y-100831856D01*
X152409789Y-100926499D01*
X152131288Y-101205000D01*
X141828730Y-101205000D01*
X141867441Y-101180090D01*
X142012431Y-100967890D01*
X142063440Y-100716000D01*
X142063440Y-98684000D01*
X142019162Y-98448683D01*
X141880090Y-98232559D01*
X141667890Y-98087569D01*
X141416000Y-98036560D01*
X139384000Y-98036560D01*
X139148683Y-98080838D01*
X138932559Y-98219910D01*
X138787569Y-98432110D01*
X138740408Y-98665000D01*
X138584005Y-98665000D01*
X138584000Y-98664999D01*
X138187923Y-98743785D01*
X137852144Y-98968144D01*
X135355288Y-101465000D01*
X125860945Y-101465000D01*
X124680737Y-100284791D01*
X124832472Y-100133320D01*
X127346285Y-100133320D01*
X127475533Y-100426123D01*
X128175806Y-100694388D01*
X128925435Y-100674250D01*
X129524467Y-100426123D01*
X129653715Y-100133320D01*
X128500000Y-98979605D01*
X127346285Y-100133320D01*
X124832472Y-100133320D01*
X125097093Y-99869161D01*
X125384672Y-99176595D01*
X125385283Y-98475806D01*
X126605612Y-98475806D01*
X126625750Y-99225435D01*
X126873877Y-99824467D01*
X127166680Y-99953715D01*
X128320395Y-98800000D01*
X128679605Y-98800000D01*
X129833320Y-99953715D01*
X130126123Y-99824467D01*
X130375574Y-99173305D01*
X131614674Y-99173305D01*
X131901043Y-99866372D01*
X132430839Y-100397093D01*
X133123405Y-100684672D01*
X133873305Y-100685326D01*
X134566372Y-100398957D01*
X135097093Y-99869161D01*
X135384672Y-99176595D01*
X135385326Y-98426695D01*
X135098957Y-97733628D01*
X134569161Y-97202907D01*
X133876595Y-96915328D01*
X133126695Y-96914674D01*
X132433628Y-97201043D01*
X131902907Y-97730839D01*
X131615328Y-98423405D01*
X131614674Y-99173305D01*
X130375574Y-99173305D01*
X130394388Y-99124194D01*
X130374250Y-98374565D01*
X130126123Y-97775533D01*
X129833320Y-97646285D01*
X128679605Y-98800000D01*
X128320395Y-98800000D01*
X127166680Y-97646285D01*
X126873877Y-97775533D01*
X126605612Y-98475806D01*
X125385283Y-98475806D01*
X125385326Y-98426695D01*
X125098957Y-97733628D01*
X124832475Y-97466680D01*
X127346285Y-97466680D01*
X128500000Y-98620395D01*
X129653715Y-97466680D01*
X129524467Y-97173877D01*
X128824194Y-96905612D01*
X128074565Y-96925750D01*
X127475533Y-97173877D01*
X127346285Y-97466680D01*
X124832475Y-97466680D01*
X124569161Y-97202907D01*
X123876595Y-96915328D01*
X123126695Y-96914674D01*
X122979737Y-96975396D01*
X123120123Y-96835010D01*
X128599990Y-96835010D01*
X129034336Y-96748613D01*
X129402556Y-96502576D01*
X133052567Y-92852565D01*
X133220376Y-92684757D01*
X133873305Y-92685326D01*
X134566372Y-92398957D01*
X135031139Y-91935000D01*
X137400000Y-91935000D01*
X137834346Y-91848603D01*
X138202566Y-91602566D01*
X139070132Y-90735000D01*
X140002560Y-90735000D01*
X140002560Y-91600000D01*
X140046838Y-91835317D01*
X140185910Y-92051441D01*
X140398110Y-92196431D01*
X140650000Y-92247440D01*
X144450000Y-92247440D01*
X144685317Y-92203162D01*
X144901441Y-92064090D01*
X145046431Y-91851890D01*
X145097440Y-91600000D01*
X145097440Y-87600000D01*
X145053162Y-87364683D01*
X144914090Y-87148559D01*
X144701890Y-87003569D01*
X144450000Y-86952560D01*
X143685000Y-86952560D01*
X143685000Y-85085750D01*
X145065000Y-85085750D01*
X145065000Y-85776310D01*
X145161673Y-86009699D01*
X145340302Y-86188327D01*
X145573691Y-86285000D01*
X146414250Y-86285000D01*
X146573000Y-86126250D01*
X146573000Y-84927000D01*
X146827000Y-84927000D01*
X146827000Y-86126250D01*
X146985750Y-86285000D01*
X147826309Y-86285000D01*
X148059698Y-86188327D01*
X148238327Y-86009699D01*
X148335000Y-85776310D01*
X148335000Y-85085750D01*
X148176250Y-84927000D01*
X146827000Y-84927000D01*
X146573000Y-84927000D01*
X145223750Y-84927000D01*
X145065000Y-85085750D01*
X143685000Y-85085750D01*
X143685000Y-82485750D01*
X145065000Y-82485750D01*
X145065000Y-83176310D01*
X145161673Y-83409699D01*
X145251975Y-83500000D01*
X145161673Y-83590301D01*
X145065000Y-83823690D01*
X145065000Y-84514250D01*
X145223750Y-84673000D01*
X146573000Y-84673000D01*
X146573000Y-82327000D01*
X146827000Y-82327000D01*
X146827000Y-84673000D01*
X148176250Y-84673000D01*
X148335000Y-84514250D01*
X148335000Y-83823690D01*
X148238327Y-83590301D01*
X148148025Y-83500000D01*
X148238327Y-83409699D01*
X148335000Y-83176310D01*
X148335000Y-82485750D01*
X148176250Y-82327000D01*
X146827000Y-82327000D01*
X146573000Y-82327000D01*
X145223750Y-82327000D01*
X145065000Y-82485750D01*
X143685000Y-82485750D01*
X143685000Y-81350000D01*
X143665060Y-81249756D01*
X143659876Y-81223690D01*
X145065000Y-81223690D01*
X145065000Y-81914250D01*
X145223750Y-82073000D01*
X146573000Y-82073000D01*
X146573000Y-80873750D01*
X146827000Y-80873750D01*
X146827000Y-82073000D01*
X148176250Y-82073000D01*
X148335000Y-81914250D01*
X148335000Y-81223690D01*
X148238327Y-80990301D01*
X148059698Y-80811673D01*
X147826309Y-80715000D01*
X146985750Y-80715000D01*
X146827000Y-80873750D01*
X146573000Y-80873750D01*
X146414250Y-80715000D01*
X145573691Y-80715000D01*
X145340302Y-80811673D01*
X145161673Y-80990301D01*
X145065000Y-81223690D01*
X143659876Y-81223690D01*
X143598604Y-80915655D01*
X143352566Y-80547434D01*
X139255132Y-76450000D01*
X139319382Y-76385750D01*
X141814590Y-76385750D01*
X141814590Y-77026410D01*
X141911263Y-77259799D01*
X142089892Y-77438427D01*
X142323281Y-77535100D01*
X143963430Y-77535100D01*
X144122180Y-77376350D01*
X144122180Y-76227000D01*
X144376180Y-76227000D01*
X144376180Y-77376350D01*
X144534930Y-77535100D01*
X146175079Y-77535100D01*
X146408468Y-77438427D01*
X146587097Y-77259799D01*
X146683770Y-77026410D01*
X146683770Y-76385750D01*
X146525020Y-76227000D01*
X144376180Y-76227000D01*
X144122180Y-76227000D01*
X141973340Y-76227000D01*
X141814590Y-76385750D01*
X139319382Y-76385750D01*
X140531542Y-75173590D01*
X141814590Y-75173590D01*
X141814590Y-75814250D01*
X141973340Y-75973000D01*
X144122180Y-75973000D01*
X144122180Y-74823650D01*
X144376180Y-74823650D01*
X144376180Y-75973000D01*
X146525020Y-75973000D01*
X146683770Y-75814250D01*
X146683770Y-75173590D01*
X146587097Y-74940201D01*
X146408468Y-74761573D01*
X146175079Y-74664900D01*
X144534930Y-74664900D01*
X144376180Y-74823650D01*
X144122180Y-74823650D01*
X143963430Y-74664900D01*
X142323281Y-74664900D01*
X142089892Y-74761573D01*
X141911263Y-74940201D01*
X141814590Y-75173590D01*
X140531542Y-75173590D01*
X142620132Y-73085000D01*
X168629868Y-73085000D01*
X170365000Y-74820133D01*
M02*
